<svg width="100" height="100" viewBox="0 0 100 100" fill="none" xmlns="http://www.w3.org/2000/svg">
<g clip-path="url(#clip0)">
<path d="M90.2024 75.8125H96.2152C98.3026 75.8125 100 74.115 100 72.0276C100 69.941 98.3026 68.2434 96.2152 68.2434H64.3861C63.5774 68.2434 62.9212 68.8995 62.9212 69.7083C62.9212 70.517 63.5774 71.1731 64.3861 71.1731H96.2152C96.6867 71.1731 97.0704 71.5561 97.0704 72.0276C97.0704 72.4991 96.6867 72.8829 96.2152 72.8829H44.2193C42.6293 72.8829 41.1805 72.0085 40.4389 70.6009C39.6981 69.194 39.7958 67.5057 40.6938 66.1942L42.8178 63.0928L45.0753 62.8235L42.1037 67.1608C41.5567 67.9604 41.5002 68.9484 41.9511 69.8044C42.4035 70.6612 43.2519 71.1731 44.2193 71.1731H58.5267C59.3362 71.1731 59.9916 70.517 59.9916 69.7083C59.9916 68.8995 59.3362 68.2434 58.5267 68.2434H44.9136L48.3239 63.2668C48.5139 62.9898 48.6627 62.6923 48.7718 62.3825L81.9581 58.4198L88.2646 57.6683C93.0162 57.0992 96.5989 53.0624 96.5989 48.2788V42.8833C96.5989 42.0746 95.9428 41.4185 95.1341 41.4185C94.3254 41.4185 93.6692 42.0746 93.6692 42.8833V43.5921L75.8569 44.7701L75.1229 36.1404L93.6692 36.0291V37.001C93.6692 37.8098 94.3254 38.4659 95.1341 38.4659C95.9428 38.4659 96.5989 37.8098 96.5989 37.001V34.5642C96.5989 34.5581 96.5997 34.5528 96.5997 34.5467C96.5997 34.5421 96.5989 34.5375 96.5989 34.5329V26.5007C96.5989 24.4011 94.9571 22.67 92.8613 22.5594L50.2221 20.3011C50.2046 20.3003 50.187 20.2988 50.1695 20.2988L28.9674 19.1757L28.6378 17.6926C28.1106 15.3168 26.2231 13.4979 23.8298 13.0592L19.1125 12.1948L19.3307 10.9573C19.4108 10.5011 19.3093 10.041 19.0438 9.66263C18.7783 9.28345 18.3808 9.03092 17.9254 8.95005L5.21709 6.70929C4.04827 6.5033 2.86876 6.76422 1.89601 7.44553C0.923265 8.12683 0.274004 9.14536 0.0680102 10.3149C-0.35771 12.7289 1.25972 15.0383 3.67366 15.464L16.3819 17.7048C16.4834 17.7223 16.5841 17.7315 16.6833 17.7315C17.5073 17.7315 18.2397 17.1394 18.3885 16.3002L18.6036 15.0795L23.3018 15.9401C24.5347 16.1659 25.5067 17.1028 25.7783 18.3266L33.9357 55.0942C33.9357 55.0949 33.9364 55.0964 33.9364 55.0972L35.1907 60.7506C35.56 62.4146 37.0202 63.5605 38.6834 63.5605C38.7735 63.5605 38.8635 63.5559 38.9543 63.549L38.2768 64.5386C36.7623 66.7496 36.5975 69.5961 37.8472 71.9666C39.0977 74.3385 41.5391 75.8118 44.2193 75.8118H45.865V76.577C41.8069 77.2751 38.7086 80.8174 38.7086 85.0716C38.7086 89.8254 42.5759 93.6928 47.3298 93.6928C52.0829 93.6928 55.951 89.8254 55.951 85.0716C55.951 82.9475 55.1713 80.9067 53.7561 79.3251C53.2167 78.7224 52.2912 78.6705 51.6877 79.2099C51.085 79.7493 51.0331 80.6755 51.5733 81.2782C52.5071 82.3219 53.0213 83.6693 53.0213 85.0716C53.0213 88.2103 50.4678 90.7631 47.3298 90.7631C44.1918 90.7631 41.6383 88.2103 41.6383 85.0716C41.6383 82.4394 43.4342 80.22 45.865 79.5723V81.2218C44.3132 81.8138 43.2061 83.3145 43.2061 85.0716C43.2061 87.3459 45.0555 89.196 47.3298 89.196C49.6041 89.196 51.4535 87.3459 51.4535 85.0716C51.4535 83.3145 50.3465 81.8146 48.7947 81.2218V75.8125H87.2728V76.5778C83.2147 77.2751 80.1164 80.8174 80.1164 85.0716C80.1164 89.8254 83.9837 93.6936 88.7376 93.6936C93.4915 93.6936 97.3588 89.8254 97.3588 85.0716C97.3588 82.9475 96.5798 80.9067 95.1646 79.3251C94.6252 78.7224 93.699 78.6713 93.0963 79.2107C92.4935 79.7501 92.4417 80.6755 92.9811 81.279C93.9149 82.3227 94.4299 83.6693 94.4299 85.0716C94.4299 88.2103 91.8763 90.7639 88.7384 90.7639C85.5996 90.7639 83.0461 88.2103 83.0461 85.0716C83.0461 82.4402 84.8428 80.22 87.2735 79.5723V81.2218C85.7209 81.8138 84.6139 83.3145 84.6139 85.0716C84.6139 87.3459 86.464 89.196 88.7384 89.196C91.0119 89.196 92.862 87.3459 92.862 85.0716C92.862 83.3145 91.755 81.8146 90.2032 81.2218V75.8125H90.2024ZM4.18254 12.5786C3.35933 12.4336 2.80849 11.6463 2.95345 10.8238C3.02364 10.4248 3.24489 10.0777 3.57601 9.84497C3.83388 9.66492 4.13371 9.57108 4.44194 9.57108C4.53044 9.57108 4.61971 9.57871 4.70821 9.59473L16.237 11.6272L15.7106 14.6118L4.18254 12.5786ZM57.3701 58.4053L55.8946 49.025L73.1813 47.8821L73.9083 56.4308L57.3701 58.4053ZM93.6692 46.5286V48.278C93.6692 51.5801 91.1958 54.3663 87.9174 54.7585L76.819 56.0837L76.1048 47.6891L93.6692 46.5286ZM72.9325 44.9631L55.4376 46.1189L53.8873 36.2671L72.1841 36.158L72.9325 44.9631ZM32.7874 36.3937L50.9248 36.2846L52.5025 46.3135L35.241 47.4541L32.7874 36.3937ZM71.1793 24.3446L71.9354 33.2291L53.4272 33.3397L51.851 23.3208L71.1793 24.3446ZM93.6692 26.4999V33.0994L74.8742 33.2115L74.1334 24.501L92.7064 25.4845C93.2466 25.5135 93.6692 25.959 93.6692 26.4999ZM48.8603 23.1628L50.4647 33.358L32.1382 33.4679L29.6266 22.1443L48.8603 23.1628ZM38.0502 60.1158L35.8834 50.3479L52.9595 49.2188L54.4595 58.7524L47.3603 59.6001C47.3558 59.6008 47.3512 59.6008 47.3474 59.6008L41.8107 60.2623C41.8077 60.2623 41.8046 60.2631 41.8016 60.2638L38.7696 60.6255C38.4332 60.6651 38.1242 60.4469 38.0502 60.1158ZM47.3291 86.2663C46.6706 86.2663 46.1351 85.73 46.1351 85.0716C46.1351 84.4132 46.6706 83.8776 47.3291 83.8776C47.9882 83.8776 48.5238 84.4132 48.5238 85.0716C48.5238 85.73 47.9875 86.2663 47.3291 86.2663ZM88.7376 86.2663C88.0792 86.2663 87.5428 85.73 87.5428 85.0716C87.5428 84.4132 88.0792 83.8776 88.7376 83.8776C89.396 83.8776 89.9316 84.4132 89.9316 85.0716C89.9316 85.73 89.396 86.2663 88.7376 86.2663Z" fill="#E96325"/>
</g>
<defs>
<clipPath id="clip0">
<rect width="100" height="100" fill="white"/>
</clipPath>
</defs>
</svg>
