<svg width="115" height="87" viewBox="0 0 115 87" fill="none" xmlns="http://www.w3.org/2000/svg">
<path d="M8.73096 19.514H26.4971C27.4274 19.514 28.1817 18.76 28.1817 17.8294C28.1817 16.8989 27.4274 16.1448 26.4971 16.1448H8.73096C7.80063 16.1448 7.04639 16.8989 7.04639 17.8294C7.04639 18.76 7.8004 19.514 8.73096 19.514Z" fill="#E96325"/>
<path d="M25.888 27.624H18.8699C17.9395 27.624 17.1853 28.378 17.1853 29.3085C17.1853 30.2391 17.9395 30.9931 18.8699 30.9931H25.888C26.8184 30.9931 27.5726 30.2391 27.5726 29.3085C27.5726 28.378 26.8184 27.624 25.888 27.624Z" fill="#E96325"/>
<path d="M1.68457 39.3058H18.8699C19.8002 39.3058 20.5545 38.5518 20.5545 37.6213C20.5545 36.6907 19.8002 35.9367 18.8699 35.9367H1.68457C0.754238 35.9367 0 36.6907 0 37.6213C0 38.5518 0.754238 39.3058 1.68457 39.3058Z" fill="#E96325"/>
<path d="M28.1817 69.1703C28.1817 68.2398 27.4274 67.4858 26.4971 67.4858H8.73096C7.80063 67.4858 7.04639 68.2398 7.04639 69.1703C7.04639 70.1009 7.80063 70.8549 8.73096 70.8549H26.4971C27.4274 70.8549 28.1817 70.1009 28.1817 69.1703Z" fill="#E96325"/>
<path d="M25.888 56.007H18.8699C17.9395 56.007 17.1853 56.761 17.1853 57.6915C17.1853 58.6221 17.9395 59.3761 18.8699 59.3761H25.888C26.8184 59.3761 27.5726 58.6221 27.5726 57.6915C27.5726 56.761 26.8184 56.007 25.888 56.007Z" fill="#E96325"/>
<path d="M20.5545 49.3787C20.5545 48.4482 19.8002 47.6942 18.8699 47.6942H1.68457C0.754238 47.6942 0 48.4482 0 49.3787C0 50.3093 0.754238 51.0633 1.68457 51.0633H18.8699C19.8002 51.0633 20.5545 50.3093 20.5545 49.3787Z" fill="#E96325"/>
<path d="M71.7693 23.247C72.6998 23.247 73.4539 22.493 73.4539 21.5624V18.9911C73.4539 18.0605 72.6998 17.3065 71.7693 17.3065C70.8387 17.3065 70.0847 18.0605 70.0847 18.9911V21.5624C70.0847 22.493 70.8387 23.247 71.7693 23.247Z" fill="#E96325"/>
<path d="M90.2907 24.9782C89.6326 24.3206 88.5662 24.3206 87.9083 24.9782L86.0901 26.7964C85.4322 27.4545 85.4322 28.521 86.0901 29.1789C86.7484 29.8368 87.8146 29.8365 88.4725 29.1789L90.2907 27.3607C90.9484 26.7028 90.9484 25.6363 90.2907 24.9782Z" fill="#E96325"/>
<path d="M93.7068 41.8154C92.7762 41.8154 92.0222 42.5694 92.0222 43.5C92.0222 44.4306 92.7762 45.1846 93.7068 45.1846H96.2779C97.2084 45.1846 97.9625 44.4306 97.9625 43.5C97.9625 42.5694 97.2084 41.8154 96.2779 41.8154H93.7068Z" fill="#E96325"/>
<path d="M88.4725 57.8209C87.8144 57.1632 86.748 57.1632 86.0901 57.8209C85.4322 58.479 85.4322 59.5454 86.0901 60.2033L87.9083 62.0215C88.5666 62.6794 89.6329 62.6792 90.2907 62.0215C90.9486 61.3634 90.9486 60.297 90.2907 59.6391L88.4725 57.8209Z" fill="#E96325"/>
<path d="M70.0847 65.4376V68.0087C70.0847 68.9393 70.8387 69.6933 71.7693 69.6933C72.6998 69.6933 73.4539 68.9393 73.4539 68.0087V65.4376C73.4539 64.5071 72.6998 63.7531 71.7693 63.7531C70.8387 63.7531 70.0847 64.5073 70.0847 65.4376Z" fill="#E96325"/>
<path d="M55.0658 57.8209L53.2476 59.6391C52.5897 60.2972 52.5897 61.3636 53.2476 62.0215C53.9057 62.6794 54.9721 62.6792 55.6298 62.0215L57.448 60.2033C58.1059 59.5452 58.1059 58.4788 57.448 57.8209C56.7903 57.1632 55.7237 57.1632 55.0658 57.8209Z" fill="#E96325"/>
<path d="M47.2603 41.8154C46.3299 41.8154 45.5757 42.5694 45.5757 43.5C45.5757 44.4306 46.3299 45.1846 47.2603 45.1846H49.8316C50.7619 45.1846 51.5162 44.4306 51.5162 43.5C51.5162 42.5694 50.7619 41.8154 49.8316 41.8154H47.2603Z" fill="#E96325"/>
<path d="M57.4482 26.7964L55.63 24.9782C54.9721 24.3206 53.9055 24.3206 53.2478 24.9782C52.5899 25.6363 52.5899 26.7028 53.2478 27.3607L55.066 29.1789C55.7241 29.8368 56.7906 29.8365 57.4482 29.1789C58.1061 28.521 58.1061 27.4545 57.4482 26.7964Z" fill="#E96325"/>
<path d="M80.8278 43.4999C80.8278 42.5694 80.0738 41.8154 79.1432 41.8154H73.4539V29.3082C73.4539 28.3777 72.6998 27.6237 71.7693 27.6237C70.8387 27.6237 70.0847 28.3777 70.0847 29.3082V43.4999C70.0847 44.4305 70.8387 45.1845 71.7693 45.1845H79.1432C80.0735 45.1845 80.8278 44.4305 80.8278 43.4999Z" fill="#E96325"/>
<path d="M103.711 43.2219C104.64 43.1655 105.347 42.3671 105.291 41.4385C104.219 23.7611 89.4946 9.9137 71.7689 9.9137C53.2494 9.9137 38.1826 24.9805 38.1826 43.5002C38.1826 62.0197 53.2494 77.0865 71.7689 77.0865C88.3606 77.0865 102.518 64.9302 104.981 48.5258C105.119 47.6058 104.485 46.7481 103.565 46.6099C102.647 46.4722 101.787 47.1054 101.649 48.0259C99.4365 62.7634 86.711 73.7176 71.7689 73.7176C55.1072 73.7176 41.5518 60.1622 41.5518 43.5004C41.5518 26.8387 55.1072 13.2831 71.7689 13.2831C87.7164 13.2831 100.964 25.7401 101.928 41.6429C101.984 42.571 102.782 43.2758 103.711 43.2219Z" fill="#E96325"/>
<path d="M71.7691 0.269226C65.8437 0.269226 60.0382 1.49851 54.6947 3.79739H24.9724C24.0421 3.79739 23.2878 4.5514 23.2878 5.48196C23.2878 6.41252 24.0421 7.16653 24.9724 7.16653H48.3572C45.1953 9.20149 42.2846 11.656 39.7182 14.4897C39.0938 15.179 39.1464 16.2443 39.8359 16.869C40.5257 17.4936 41.5906 17.4408 42.2154 16.7513C49.7628 8.41783 60.5348 3.63837 71.7691 3.63837C93.7489 3.63837 111.631 21.5202 111.631 43.5C111.631 65.4796 93.7492 83.3617 71.7691 83.3617C49.7893 83.3617 31.9075 65.4798 31.9075 43.5C31.9075 35.8031 34.1062 28.3326 38.2655 21.8957C38.7704 21.1143 38.5462 20.0717 37.7648 19.5668C36.9834 19.0621 35.9408 19.2858 35.4356 20.0674C30.9232 27.0501 28.5383 35.1529 28.5383 43.5C28.5383 58.7209 36.4459 72.1283 48.3679 79.8335H24.9726C24.0423 79.8335 23.2881 80.5875 23.2881 81.5181C23.2881 82.4486 24.0423 83.2026 24.9726 83.2026H54.6716C59.9185 85.471 65.6993 86.7308 71.7693 86.7308C95.6067 86.7308 115 67.3376 115 43.5C115 19.6624 95.6067 0.269226 71.7691 0.269226Z" fill="#E96325"/>
</svg>
