<svg width="100" height="100" viewBox="0 0 100 100" fill="none" xmlns="http://www.w3.org/2000/svg">
<path d="M15.6259 48.8434H67.6148L72.0139 56.4644C72.4221 57.1678 73.3201 57.4089 74.0235 57.0015C74.7277 56.5956 74.9688 55.6976 74.5606 54.9934C64.4067 37.4046 66.7977 41.5489 64.5211 37.6015H96.441L80.4803 65.2435L77.5018 60.0876C77.0959 59.3834 76.1979 59.1423 75.4945 59.5482C74.7903 59.9541 74.5492 60.8536 74.9551 61.5578L78.3334 67.4065C79.284 69.0567 81.672 69.0605 82.6287 67.4065L99.3859 38.3797C100.338 36.7386 99.1502 34.6603 97.239 34.6603H93.5571V22.9149C93.5571 21.2913 92.4767 19.9127 90.9982 19.4603V7.7774C90.9982 4.13437 88.0341 1.17188 84.3911 1.17188H62.9075C62.0957 1.17188 61.4366 1.83029 61.4366 2.64206C61.4366 3.45383 62.0957 4.11301 62.9075 4.11301H84.3911C86.4129 4.11301 88.0578 5.7579 88.0578 7.7774V19.3031H85.0816V16.9762C85.0816 15.4015 83.9616 14.0198 82.4174 13.6902C80.3979 13.2591 78.7667 11.763 78.1609 9.78699C77.739 8.40607 76.4214 7.444 74.9589 7.444H25.0581C23.5955 7.444 22.2779 8.40607 21.8568 9.78699C21.251 11.763 19.6198 13.2591 17.6003 13.6902C16.0554 14.0198 14.9362 15.4015 14.9362 16.9762V33.0391C14.9362 34.6138 16.0554 35.9955 17.6003 36.3251C19.6198 36.7561 21.251 38.2523 21.8568 40.2283C22.2779 41.6092 23.5955 42.5713 25.0581 42.5713H28.058C28.8697 42.5713 29.5281 41.9128 29.5281 41.1011C29.5281 40.2893 28.8697 39.6309 28.058 39.6309H25.0581C24.878 39.6309 24.7155 39.521 24.6682 39.3677C23.7504 36.3701 21.2762 34.1019 18.2137 33.4488C18.0139 33.4061 17.8765 33.239 17.8765 33.0391V16.9762C17.8765 16.7763 18.0139 16.6092 18.2137 16.5665C21.2762 15.9134 23.7504 13.6452 24.6682 10.6476C24.7155 10.4942 24.878 10.3844 25.0581 10.3844H74.9589C75.1397 10.3844 75.3022 10.4942 75.3487 10.6476C76.2666 13.6452 78.7408 15.9134 81.8032 16.5665C82.0031 16.6092 82.1404 16.7763 82.1404 16.9762V19.3031H71.016C69.024 19.3031 67.405 20.9244 67.405 22.9149V34.6603H63.7231C61.8272 34.6603 60.6172 36.7157 61.5739 38.3797L62.2956 39.6309H33.9395C33.1277 39.6309 32.4693 40.2893 32.4693 41.1011C32.4693 41.9128 33.1277 42.5713 33.9395 42.5713H63.9932L65.9165 45.9022H15.6259C13.6048 45.9022 11.9599 44.2574 11.9599 42.2379V7.7774C11.9599 5.7579 13.6048 4.11301 15.6259 4.11301H57.0252C57.8393 4.11301 58.4962 3.45383 58.4962 2.64206C58.4962 1.83029 57.8393 1.17188 57.0252 1.17188H15.6259C11.9828 1.17188 9.0188 4.13437 9.0188 7.7774V42.2379C9.0188 45.8794 11.9828 48.8434 15.6259 48.8434ZM70.3454 22.9149C70.3454 22.5464 70.646 22.2443 71.016 22.2443H89.9453C90.3146 22.2443 90.6159 22.5464 90.6159 22.9149V34.6603C87.7 34.6603 73.343 34.6603 70.3454 34.6603C70.3454 33.3313 70.3454 24.2409 70.3454 22.9149Z" fill="#E96325"/>
<path d="M18.9033 9.09116C18.9033 9.9487 18.2082 10.6437 17.3507 10.6437C16.4931 10.6437 15.7981 9.9487 15.7981 9.09116C15.7981 8.23361 16.4931 7.53857 17.3507 7.53857C18.2082 7.53857 18.9033 8.23361 18.9033 9.09116Z" fill="#E96325"/>
<path d="M84.2187 9.09116C84.2187 9.9487 83.5237 10.6437 82.6661 10.6437C81.8086 10.6437 81.1135 9.9487 81.1135 9.09116C81.1135 8.23361 81.8086 7.53857 82.6661 7.53857C83.5237 7.53857 84.2187 8.23361 84.2187 9.09116Z" fill="#E96325"/>
<path d="M18.9033 40.924C18.9033 41.7816 18.2082 42.4766 17.3507 42.4766C16.4931 42.4766 15.7981 41.7816 15.7981 40.924C15.7981 40.0665 16.4931 39.3715 17.3507 39.3715C18.2082 39.3715 18.9033 40.0665 18.9033 40.924Z" fill="#E96325"/>
<path d="M51.5861 34.3445V32.5958C53.6338 32.0107 54.6004 30.3764 54.6004 28.2829C54.6004 22.7661 48.2657 24.1508 48.2657 21.4836C48.2657 20.4796 48.9814 19.9715 50.3928 19.9715C51.3808 19.9715 51.9218 20.2499 52.3162 20.4521C52.5771 20.5872 52.8007 20.7031 53.0707 20.7031C54.135 20.7031 55.6777 18.1961 51.5861 17.6506V15.7219C51.5861 14.9101 50.9276 14.2517 50.1159 14.2517C49.3033 14.2517 48.6449 14.9101 48.6449 15.7219V17.7757C46.7521 18.2724 45.6679 19.6388 45.6679 21.6385C45.6679 26.6411 52.0026 25.0999 52.0026 28.4355C52.0026 30.0041 50.814 30.3337 49.816 30.3337C48.5045 30.3337 47.9339 29.7729 47.4753 29.3221C47.1892 29.039 46.9169 28.775 46.5224 28.775C45.8556 28.775 45.3208 29.5258 45.3208 30.1491C45.3208 31.1745 46.701 32.3372 48.6449 32.6996V34.3445C48.6449 35.1562 49.3033 35.8147 50.1159 35.8147C50.9276 35.8147 51.5861 35.157 51.5861 34.3445Z" fill="#E96325"/>
<path d="M64.1854 25.0068C64.1854 17.192 57.8256 10.8314 50.0085 10.8314C42.1914 10.8314 35.8315 17.192 35.8315 25.0068C35.8315 32.8232 42.1914 39.1838 50.0085 39.1838C57.8256 39.1838 64.1854 32.8232 64.1854 25.0068ZM38.7727 25.0068C38.7727 18.8133 43.8134 13.7726 50.0085 13.7726C56.2043 13.7726 61.2451 18.8133 61.2451 25.0068C61.2451 31.2019 56.2043 36.2426 50.0085 36.2426C43.8134 36.2426 38.7727 31.2019 38.7727 25.0068Z" fill="#E96325"/>
<path d="M30.3802 23.8632H23.2124C22.4006 23.8632 21.7422 24.5208 21.7422 25.3333C21.7422 26.1451 22.4006 26.8035 23.2124 26.8035H30.3802C31.192 26.8035 31.8504 26.1451 31.8504 25.3333C31.8504 24.5208 31.192 23.8632 30.3802 23.8632Z" fill="#E96325"/>
<path d="M98.175 68.7592C97.0155 67.749 95.4741 67.2861 93.9461 67.4886C93.8948 67.4955 93.8443 67.5053 93.7945 67.5179L62.6096 75.326C62.3421 74.4129 61.848 73.5506 61.1271 72.8336L51.1924 62.9513C49.9605 61.726 48.3223 61.0516 46.5802 61.0516H26.7626C26.3892 57.6537 23.4868 55 19.9717 55H14.8323C11.0645 55 8 58.0481 8 61.7958V85.6685C8 89.4162 11.0645 92.4664 14.8323 92.4664H19.9717C23.7395 92.4664 26.804 89.4162 26.804 85.6685V83.2871C31.6443 84.1186 34.7678 84.4453 39.1302 86.5684C50.581 92.1411 50.2294 91.9211 51.6072 92.8043C53.8898 94.2676 56.5114 95 59.133 95C61.7083 95 64.2836 94.2935 66.5402 92.8804L97.4093 77.313C97.4486 77.2934 97.4865 77.2718 97.5237 77.2481C99.0742 76.2665 100 74.5888 100 72.761C100 71.2279 99.3346 69.7687 98.175 68.7592ZM24.0982 63.743V85.6685C24.0982 87.9326 22.2458 89.775 19.9717 89.775H14.8323C12.5582 89.775 10.7058 87.9326 10.7058 85.6685V61.7965C10.7058 59.5324 12.5582 57.6914 14.8323 57.6914H19.9717C22.2522 57.6914 24.0982 59.5415 24.0982 61.7965V63.743ZM96.1206 74.9455C96.0293 74.9916 65.2312 90.52 65.1448 90.5744C61.4697 92.9 56.7318 92.8874 53.0728 90.5423C51.5047 89.5369 51.6339 89.6577 40.3192 84.1514C35.5511 81.8307 32.1504 81.4747 26.804 80.5566V63.743H46.5802C47.6007 63.743 48.5588 64.1374 49.2804 64.8551L59.2137 74.7354C60.4126 75.9285 60.4617 77.8534 59.3218 79.0269C58.1342 80.2487 56.1963 80.2487 55.0016 79.0646L46.053 70.1604C45.5252 69.6347 44.6682 69.6347 44.1396 70.1604C43.6111 70.6861 43.6111 71.5386 44.1396 72.0643L53.0896 80.9678C56.3619 84.2121 61.8831 82.4674 62.7387 78.0684L94.3721 70.1478C95.1049 70.071 95.837 70.3 96.3929 70.7839C96.9657 71.283 97.2942 72.0035 97.2942 72.761C97.2942 73.6442 96.8569 74.4568 96.1206 74.9455Z" fill="#E96325"/>
</svg>
