<svg width="110" height="88" viewBox="0 0 110 88" fill="none" xmlns="http://www.w3.org/2000/svg">
<path d="M109.15 68.8192L104.403 64.0724C103.774 63.4434 102.754 63.4431 102.125 64.0726C101.496 64.7019 101.496 65.7222 102.125 66.3513L106.644 70.8701L99.8075 77.7062L88.186 66.0844L95.0223 59.2483L97.2683 61.4943C97.8976 62.1234 98.9179 62.1234 99.5469 61.4943C100.176 60.8648 100.176 59.8447 99.5469 59.2154L93.7945 53.463L91.6039 51.2725C91.6037 51.2722 91.6035 51.272 91.6033 51.2718L87.5782 47.2467C86.4473 46.1162 84.6073 46.1162 83.4766 47.2467L83.2487 47.4749L79.45 43.6747C81.731 40.4128 83.279 36.6962 83.9826 32.7179C84.1706 31.6555 84.2945 30.5897 84.359 29.5247H96.5335C97.4234 29.5247 98.1449 28.8035 98.1449 27.9134C98.1449 27.0233 97.4234 26.302 96.5335 26.302H84.3648C84.1796 22.993 83.4027 19.736 82.0434 16.6667C81.6829 15.8531 80.7309 15.4853 79.9175 15.846C79.1037 16.2065 78.7363 17.1581 79.0968 17.9719C80.492 21.1219 81.1933 24.4969 81.1849 27.9084C81.1849 27.9101 81.1847 27.9119 81.1847 27.9134C81.1847 27.9144 81.1849 27.9157 81.1849 27.9168C81.181 29.3281 81.0588 30.7456 80.8091 32.1565C79.9366 37.0891 77.6011 41.5705 74.0549 45.1168C69.457 49.7146 63.3335 52.247 56.8121 52.247C50.2908 52.247 44.1673 49.7148 39.5694 45.1168C30.062 35.6093 30.062 20.1392 39.5694 10.6318C44.1669 6.0341 50.2906 3.50195 56.8117 3.50195C63.3329 3.50195 69.4566 6.0341 74.0544 10.6322C74.6414 11.2191 75.2041 11.8418 75.7266 12.4826C76.2888 13.1723 77.3039 13.2756 77.9936 12.7134C78.6832 12.1511 78.7866 11.136 78.2243 10.4461C77.6333 9.72103 76.9969 9.01699 76.3331 8.35312C71.1265 3.14682 64.1938 0.279297 56.8117 0.279297C49.4297 0.279297 42.4969 3.14682 37.2904 8.35312C32.3324 13.3111 29.6602 19.7012 29.2694 26.2041H26.6513C26.1271 26.2041 25.6353 26.4593 25.3337 26.8881L21.6437 32.1307L17.7213 19.2448C17.5318 18.622 16.9861 18.1745 16.3384 18.1105C15.6908 18.0484 15.068 18.3786 14.7601 18.952L10.8682 26.2041H8.14746C7.25758 26.2041 6.53613 26.9253 6.53613 27.8154C6.53613 28.7055 7.25758 29.4267 8.14746 29.4267H11.832C12.4256 29.4267 12.9711 29.1004 13.2517 28.5774L15.7669 23.8911L19.5213 36.225C19.7005 36.8141 20.1998 37.2496 20.8078 37.3469C20.8928 37.3605 20.9784 37.3673 21.063 37.3673C21.5819 37.3673 22.0758 37.1162 22.3804 36.6833L27.4875 29.4269H29.2623C29.6275 35.9706 32.3023 42.4082 37.2904 47.3962C42.4969 52.6026 49.4297 55.4701 56.8117 55.4701C62.5517 55.4701 68.0197 53.7356 72.6163 50.5166L76.4123 54.3114L76.1844 54.5394C75.6365 55.0872 75.3347 55.8153 75.3347 56.5905C75.3347 57.3652 75.6363 58.0935 76.1842 58.6414L97.7564 80.2136C98.3041 80.7613 99.0324 81.0629 99.8073 81.0629C100.582 81.0629 101.31 80.7613 101.858 80.2136L109.15 72.9216C109.698 72.3738 110 71.6457 110 70.8707C110 70.0958 109.698 69.3672 109.15 68.8192ZM76.3331 47.396C76.7148 47.0143 77.0799 46.6202 77.4367 46.2198L80.9692 49.7535L78.6908 52.0319L75.1596 48.5018C75.5592 48.1454 75.9513 47.7778 76.3331 47.396ZM85.9072 63.806L83.6285 61.5274L90.4646 54.691L92.7435 56.9699L85.9072 63.806ZM85.5273 49.7537L88.1858 52.4122L81.3497 59.2485L78.6912 56.5898L85.5273 49.7537Z" fill="#E96325"/>
<path d="M41.8479 12.9106C37.8568 16.9018 35.6587 22.2161 35.6587 27.8745C35.6587 33.533 37.8568 38.8472 41.8479 42.8383C45.8391 46.8293 51.1532 49.0276 56.8118 49.0276C62.4703 49.0276 67.7845 46.8295 71.7756 42.8383C75.7668 38.8472 77.9649 33.5328 77.9649 27.8745C77.9649 22.2161 75.7668 16.9018 71.7756 12.9106C63.5246 4.65976 50.099 4.65976 41.8479 12.9106ZM69.497 40.5595C66.1145 43.942 61.6097 45.8049 56.812 45.8049C52.0143 45.8049 47.5093 43.942 44.127 40.5595C40.7445 37.1772 38.8818 32.6722 38.8818 27.8745C38.8818 23.0768 40.7445 18.5717 44.127 15.1895C47.6246 11.6918 52.2176 9.94341 56.812 9.94341C61.4053 9.94341 66.0002 11.6927 69.497 15.1895C72.8795 18.5717 74.7422 23.0768 74.7422 27.8745C74.7422 32.6722 72.8793 37.1772 69.497 40.5595Z" fill="#E96325"/>
<path d="M59.2471 26.2908C58.9512 26.1862 58.65 26.0777 58.3484 25.9654V20.6359C58.8234 20.808 59.1515 21.0317 59.3036 21.1496C60.007 21.6953 61.0191 21.5671 61.5642 20.8637C62.1097 20.1605 61.9814 19.1484 61.2782 18.6031C60.8801 18.2944 59.8456 17.5955 58.3484 17.3069V16.3625C58.3484 15.4724 57.6269 14.7512 56.7371 14.7512C55.8472 14.7512 55.1257 15.4724 55.1257 16.3625V17.4202C55.0149 17.4485 54.9034 17.4792 54.7904 17.5132C52.8482 18.0982 51.3978 19.7564 51.005 21.841C50.6449 23.7525 51.2648 25.6016 52.6226 26.6666C53.2712 27.1754 54.0629 27.6418 55.1257 28.1273V35.1635C54.3544 35.0597 53.7752 34.8049 52.8699 34.2128C52.125 33.7255 51.1264 33.9341 50.6394 34.6792C50.1521 35.4239 50.3609 36.4225 51.1056 36.9097C52.6778 37.9382 53.7836 38.2935 55.1257 38.405V39.4649C55.1257 40.355 55.8472 41.0762 56.7371 41.0762C57.6269 41.0762 58.3484 40.355 58.3484 39.4649V38.2525C61.0909 37.5704 62.8491 35.2335 63.2365 32.9297C63.7405 29.9316 62.1745 27.3258 59.2471 26.2908ZM54.6114 24.1308C54.2098 23.8158 54.0373 23.1513 54.1718 22.4376C54.2728 21.9022 54.5736 21.2809 55.1255 20.8897V24.4877C54.9397 24.371 54.7663 24.2522 54.6114 24.1308ZM60.0583 32.3952C59.903 33.319 59.3231 34.2925 58.3484 34.8236V29.3958C60.2152 30.1497 60.1694 31.7343 60.0583 32.3952Z" fill="#E96325"/>
<path d="M94.1594 84.498H49.1827V74.9375C49.1827 73.1012 47.6889 71.6074 45.8526 71.6074H36.3995C36.3632 71.6074 36.3279 71.6117 36.2921 71.6128V59.8984C36.2921 58.0622 34.7982 56.5684 32.962 56.5684H23.5088C21.6726 56.5684 20.1788 58.0622 20.1788 59.8984V65.1675C20.1429 65.1664 20.1077 65.1621 20.0713 65.1621H10.6182C8.78195 65.1621 7.28814 66.6559 7.28814 68.4922V71.4308C7.28814 72.3209 8.00959 73.0422 8.89947 73.0422C9.78936 73.0422 10.5108 72.3209 10.5108 71.4308V68.4922C10.5108 68.4331 10.5589 68.3848 10.6182 68.3848H20.0713C20.1306 68.3848 20.1788 68.4331 20.1788 68.4922V84.498H10.5108V78.2659C10.5108 77.3758 9.78936 76.6545 8.89947 76.6545C8.00959 76.6545 7.28814 77.3758 7.28814 78.2659V84.498H1.61133C0.721445 84.498 0 85.2193 0 86.1094C0 86.9995 0.721445 87.7207 1.61133 87.7207H94.1594C95.0492 87.7207 95.7707 86.9995 95.7707 86.1094C95.7707 85.2193 95.0492 84.498 94.1594 84.498ZM23.4014 59.8984C23.4014 59.8394 23.4496 59.791 23.5088 59.791H32.962C33.0213 59.791 33.0694 59.8394 33.0694 59.8984V84.498H23.4014V59.8984ZM36.2921 84.498V74.9375C36.2921 74.8784 36.3402 74.8301 36.3995 74.8301H45.8526C45.9119 74.8301 45.96 74.8784 45.96 74.9375V84.498H36.2921Z" fill="#E96325"/>
</svg>
