<svg width="83" height="80" viewBox="0 0 83 80" fill="none" xmlns="http://www.w3.org/2000/svg">
<path d="M64.3661 56.6718L81.0427 39.9953C83.5685 37.4694 83.5685 33.3595 81.0426 30.8337C80.1519 29.943 79.0641 29.3679 77.9184 29.1055C78.3113 28.2609 78.5193 27.334 78.5193 26.3747C78.5193 24.6443 77.8454 23.0175 76.6219 21.7941C75.6624 20.8343 74.4543 20.2145 73.143 19.9913C73.8812 17.7421 73.3594 15.1662 71.5742 13.3811C70.5926 12.3997 69.3717 11.8016 68.0976 11.583C68.3111 10.9352 68.4237 10.2511 68.4237 9.54919C68.4237 7.81875 67.7498 6.19195 66.5264 4.96855C65.3028 3.74514 63.676 3.07122 61.9457 3.07122C60.8469 3.07122 59.7904 3.34381 58.8518 3.85566L58.6859 3.67742C56.5303 1.36089 53.479 0.0324707 50.3149 0.0324707H36.8159C35.8666 0.0324707 35.0968 0.802299 35.0968 1.75156V4.00588C35.0968 4.90805 35.2494 5.78633 35.5413 6.61219C34.7637 6.28924 33.9224 6.1196 33.0551 6.1196C31.3246 6.1196 29.6978 6.79352 28.4743 8.01692C26.6881 9.80305 26.1669 12.3808 26.9068 14.6307C25.6316 14.8488 24.4091 15.4473 23.4266 16.4295C22.2032 17.6531 21.5293 19.2799 21.5293 21.0102C21.5293 21.7107 21.6416 22.3937 21.8542 23.0402C20.5445 23.2641 19.3376 23.8836 18.3789 24.8425C16.4062 26.8151 15.9743 29.7541 17.0831 32.1499C15.909 32.4182 14.8307 33.0094 13.9579 33.882C11.4322 36.4077 11.4322 40.5176 13.9579 43.0435L17.3875 46.4729L0.503508 63.3565C-0.167836 64.0279 -0.167836 65.1164 0.503508 65.7879C0.83918 66.1234 1.27918 66.2915 1.71901 66.2915C2.15884 66.2915 2.59884 66.1236 2.93451 65.7879L19.9814 48.741C20.9465 49.2917 22.0417 49.5863 23.1831 49.5863C24.9134 49.5863 26.5402 48.9123 27.7637 47.6888C29.093 46.3596 29.7217 44.5916 29.6518 42.8467C29.7389 42.8503 29.8261 42.8529 29.9132 42.8529C31.5718 42.8527 33.2313 42.2212 34.4938 40.9587C35.7173 39.7351 36.3912 38.1083 36.3912 36.378C36.3912 36.2905 36.3883 36.2036 36.3848 36.1166C36.4709 36.12 36.557 36.1228 36.6433 36.1228C38.3021 36.1228 39.9612 35.4913 41.224 34.2285C42.4474 33.005 43.1213 31.3782 43.1213 29.6479C43.1213 29.5604 43.1184 29.4734 43.1149 29.3865C43.201 29.3899 43.2871 29.3927 43.3734 29.3927C45.0324 29.3927 46.6913 28.7612 47.9541 27.4984C50.3273 25.1252 50.4701 21.3537 48.3838 18.8115L59.7952 7.40006C60.3694 6.82566 61.1326 6.50958 61.9447 6.50958C62.7568 6.50958 63.5201 6.82566 64.0943 7.40006C64.6686 7.9743 64.9846 8.73742 64.9846 9.54953C64.9846 10.3615 64.6686 11.1249 64.0942 11.699L62.4117 13.3815L56.307 19.4861C55.6357 20.1575 55.6357 21.246 56.307 21.9175C56.6427 22.253 57.0827 22.4211 57.5225 22.4211C57.9623 22.4211 58.4023 22.2532 58.738 21.9175L64.8427 15.8128C66.0277 14.6276 67.9564 14.6274 69.1418 15.8127C70.327 16.9981 70.327 18.9265 69.1418 20.1119L67.4591 21.7946L63.0371 26.2166C62.3658 26.8879 62.3658 27.9764 63.0371 28.6479C63.3728 28.9834 63.8128 29.1515 64.2526 29.1515C64.6925 29.1515 65.1325 28.9836 65.4681 28.6479L69.8901 24.2259C70.4644 23.6515 71.2277 23.3355 72.0396 23.3355C72.8517 23.3355 73.615 23.6515 74.1892 24.2259C74.7635 24.8002 75.0795 25.5633 75.0795 26.3754C75.0795 27.1873 74.7635 27.9508 74.1891 28.5249L71.8796 30.8344L69.7671 32.9469C69.0957 33.6182 69.0957 34.7067 69.7671 35.3782C70.1027 35.7137 70.5427 35.8818 70.9826 35.8818C71.4224 35.8818 71.8624 35.7139 72.1981 35.3782L74.3121 33.2642C75.4975 32.0808 77.4249 32.081 78.6097 33.2657C79.7951 34.451 79.7951 36.3796 78.6097 37.565L61.933 54.2415C57.7454 58.4292 52.18 60.8535 46.2618 61.0684C45.8268 61.0842 45.4136 61.2645 45.1063 61.5732L29.7008 77.0357C29.0306 77.7083 29.0325 78.7968 29.7052 79.4669C30.0406 79.801 30.4795 79.9683 30.9185 79.9683C31.3594 79.9683 31.8006 79.7997 32.1362 79.4624L43.4674 68.0895C46.3457 69.9359 49.7306 70.8139 53.1724 70.5863L62.0408 79.4549C62.3764 79.7904 62.8164 79.9585 63.2563 79.9585C63.6963 79.9585 64.1361 79.7905 64.4718 79.4549C65.1431 78.7835 65.1431 77.695 64.4718 77.0235L55.0427 67.5934C54.6857 67.2366 54.1897 67.0543 53.6866 67.0955L53.1416 67.1402C50.6259 67.3465 48.1392 66.7954 45.9681 65.5787L47.0729 64.4699C53.6069 64.0669 59.7242 61.3138 64.3661 56.6718ZM25.3327 45.2578C24.7585 45.8322 23.995 46.1482 23.1833 46.1482C22.3712 46.1482 21.6079 45.8322 21.0338 45.2578L16.3887 40.6128C15.2035 39.4276 15.2035 37.499 16.3887 36.3136C16.9629 35.7392 17.7264 35.4231 18.5384 35.4231C19.3503 35.4231 20.1138 35.7392 20.6878 36.3136L25.3329 40.9585C26.518 42.1437 26.518 44.0723 25.3327 45.2578ZM32.0632 38.5273C30.8778 39.7126 28.9488 39.7126 27.7639 38.5273L23.1188 33.8822L20.8092 31.5726C19.6239 30.3873 19.6239 28.4587 20.8092 27.2735C21.3834 26.699 22.1469 26.383 22.9586 26.383C23.7707 26.383 24.534 26.699 25.1081 27.2735L32.0627 34.228C32.0627 34.228 32.0627 34.228 32.0628 34.228C32.6373 34.8024 32.9533 35.5657 32.9533 36.3777C32.9533 37.1896 32.6373 37.9531 32.0632 38.5273ZM38.7933 31.797C37.6079 32.9821 35.6791 32.9823 34.494 31.797L25.8568 23.1598C25.2826 22.5856 24.9665 21.8224 24.9665 21.0103C24.9665 20.1984 25.2826 19.4349 25.857 18.8609C26.4496 18.2682 27.2282 17.9719 28.0064 17.9719C28.7843 17.9719 29.5621 18.2679 30.1545 18.8595L34.0911 22.7961L38.793 27.4979H38.7931C39.3672 28.0722 39.6833 28.8353 39.6833 29.6474C39.6836 30.4595 39.3675 31.223 38.7933 31.797ZM45.5236 25.0667C44.3383 26.252 42.4097 26.252 41.2245 25.0667L32.5872 16.4295C32.5864 16.4287 32.5854 16.4278 32.5843 16.4268L30.9046 14.747C29.7193 13.5616 29.7193 11.6332 30.9046 10.4478C31.4972 9.85495 32.2758 9.55864 33.0542 9.55864C33.8326 9.55864 34.6112 9.85495 35.2037 10.4478L45.5232 20.7673C46.0976 21.3415 46.4137 22.1048 46.4137 22.9168C46.4139 23.729 46.098 24.4927 45.5236 25.0667ZM45.9756 16.3575L41.2539 11.6358C41.7893 11.75 42.3398 11.8107 42.9001 11.8105C42.9126 11.8105 42.9254 11.8105 42.9381 11.8105L47.6557 11.7884C48.605 11.7839 49.3712 11.0106 49.3667 10.0612C49.3622 9.11452 48.5934 8.35019 47.6478 8.35019C47.645 8.35019 47.6423 8.35019 47.6395 8.35019L42.9219 8.37236C42.9147 8.37236 42.9078 8.37236 42.9006 8.37236C41.7382 8.37236 40.6449 7.92119 39.8206 7.10083C38.9911 6.27514 38.5345 5.17617 38.5345 4.0057V3.47049H50.3144C52.5273 3.47049 54.6611 4.39947 56.1688 6.01956L56.2388 6.09467L45.9756 16.3575Z" fill="#E96325"/>
</svg>
