<svg width="100" height="100" viewBox="0 0 100 100" fill="none" xmlns="http://www.w3.org/2000/svg">
<g clip-path="url(#clip0)">
<path d="M62.5817 11.7791H24.1584C23.3493 11.7791 22.6936 12.4347 22.6936 13.2439C22.6936 14.0531 23.3493 14.7087 24.1584 14.7087H62.5817C63.3909 14.7087 64.0465 14.0531 64.0465 13.2439C64.0465 12.4347 63.3909 11.7791 62.5817 11.7791Z" fill="#E96325"/>
<path d="M62.5817 26.3861H24.1584C23.3493 26.3861 22.6936 27.0418 22.6936 27.851C22.6936 28.6601 23.3493 29.3158 24.1584 29.3158H62.5817C63.3909 29.3158 64.0465 28.6601 64.0465 27.851C64.0465 27.0418 63.3909 26.3861 62.5817 26.3861Z" fill="#E96325"/>
<path d="M62.5817 40.9933H24.1584C23.3493 40.9933 22.6936 41.649 22.6936 42.4581C22.6936 43.2673 23.3493 43.923 24.1584 43.923H62.5817C63.3909 43.923 64.0465 43.2673 64.0465 42.4581C64.0465 41.649 63.3909 40.9933 62.5817 40.9933Z" fill="#E96325"/>
<path d="M94.8283 56.4891C94.3549 55.8328 93.4397 55.685 92.7832 56.1576C92.1272 56.6308 91.9787 57.5463 92.4518 58.2027C95.4732 62.3932 97.0703 67.3469 97.0703 72.5281C97.0703 86.0514 86.0684 97.0533 72.5453 97.0533C59.0221 97.0533 48.0201 86.0514 48.0201 72.5281C48.0201 59.0051 59.0221 48.0031 72.5453 48.0031C78.5082 48.0031 84.2566 50.1701 88.7314 54.1047C89.3387 54.6383 90.2647 54.5795 90.7988 53.9717C91.3328 53.3642 91.2736 52.4385 90.6658 51.9043C85.849 47.6689 79.7143 45.2644 73.3156 45.0853V22.1912H85.824C87.3844 22.1912 88.6539 20.9217 88.6539 19.3613V9.15096C88.6539 4.00428 84.3906 0.0167847 79.6705 0.0167847H45.2428C44.4336 0.0167847 43.7779 0.672449 43.7779 1.48163C43.7779 2.29081 44.4336 2.94647 45.2428 2.94647H72.8246C71.3127 4.57694 70.3859 6.75722 70.3859 9.15096V45.158C62.5104 45.7736 55.5574 49.7266 50.9441 55.6004H24.1584C23.3492 55.6004 22.6936 56.256 22.6936 57.0652C22.6936 57.8744 23.3492 58.5301 24.1584 58.5301H48.9359C47.2744 61.3217 46.093 64.4303 45.5084 67.743H15.1922V7.58046C15.1922 5.02538 17.2711 2.94647 19.8262 2.94647H39.3859C40.1951 2.94647 40.8508 2.29081 40.8508 1.48163C40.8508 0.672449 40.1951 0.0167847 39.3859 0.0167847H19.8262C15.6555 0.0167847 12.2625 3.40975 12.2625 7.58046V67.743H1.46484C0.655664 67.743 0 68.3986 0 69.2078V72.0471C0 78.8336 5.52148 84.3549 12.308 84.3549H17.0256C17.8348 84.3549 18.4904 83.6992 18.4904 82.89C18.4904 82.0808 17.8348 81.4252 17.0256 81.4252H12.308C7.13672 81.4252 2.92969 77.2182 2.92969 72.0471V70.6726H45.1543C45.1131 71.2861 45.0902 71.9045 45.0902 72.5281C45.0902 75.6408 45.6119 78.6336 46.5707 81.4252H22.8824C22.0732 81.4252 21.4176 82.0808 21.4176 82.89C21.4176 83.6992 22.0732 84.3549 22.8824 84.3549H47.7711C52.1977 93.59 61.6387 99.9832 72.5451 99.9832C87.6838 99.9832 99.9998 87.6668 99.9998 72.5283C100 66.7279 98.2117 61.1816 94.8283 56.4891ZM85.7242 9.15096V19.2615H73.3156V9.15096C73.3156 5.72968 76.0988 2.94647 79.5201 2.94647C82.941 2.94647 85.7242 5.72968 85.7242 9.15096Z" fill="#E96325"/>
<rect x="60" y="60.7751" width="3" height="33.337" rx="1.5" transform="rotate(-45 60 60.7751)" fill="#E96325"/>
<rect width="3" height="33.337" rx="1.5" transform="matrix(-0.707107 -0.707107 -0.707107 0.707107 85.2173 60.7751)" fill="#E96325"/>
</g>
<defs>
<clipPath id="clip0">
<rect width="100" height="100" fill="white"/>
</clipPath>
</defs>
</svg>
