<svg width="22" height="22" viewBox="0 0 22 22" fill="none" xmlns="http://www.w3.org/2000/svg">
<path d="M20.345 14.9433C18.91 14.9433 17.5217 14.71 16.2267 14.29C15.8183 14.15 15.3633 14.255 15.0483 14.57L13.2167 16.8683C9.915 15.2933 6.82333 12.3183 5.17833 8.9L7.45333 6.96333C7.76833 6.63667 7.86167 6.18167 7.73333 5.77333C7.30167 4.47833 7.08 3.09 7.08 1.655C7.08 1.025 6.555 0.5 5.925 0.5H1.88833C1.25833 0.5 0.5 0.78 0.5 1.655C0.5 12.4933 9.51833 21.5 20.345 21.5C21.1733 21.5 21.5 20.765 21.5 20.1233V16.0983C21.5 15.4683 20.975 14.9433 20.345 14.9433Z" fill="#005182"/>
</svg>
