<svg width="120" height="26" viewBox="0 0 120 26" fill="none" xmlns="http://www.w3.org/2000/svg">
<path d="M17.11 19.9898C17.17 20.0698 17.2 20.1798 17.2 20.3198C17.2 20.4998 17.13 20.6598 16.99 20.7998C16.87 20.9398 16.71 21.0098 16.51 21.0098H13.42C13.18 21.0098 13 20.9698 12.88 20.8898C12.76 20.7898 12.64 20.6598 12.52 20.4998L7.36 12.2498H4.51V20.2898C4.51 20.4898 4.44 20.6598 4.3 20.7998C4.18 20.9398 4.01 21.0098 3.79 21.0098H1.06C0.86 21.0098 0.69 20.9398 0.55 20.7998C0.41 20.6598 0.34 20.4898 0.34 20.2898V0.759765C0.34 0.539765 0.4 0.359764 0.52 0.219765C0.66 0.0797645 0.84 0.00976419 1.06 0.00976419H3.79C4.01 0.00976419 4.18 0.0797645 4.3 0.219765C4.44 0.359764 4.51 0.539765 4.51 0.759765V8.49976L7.15 8.52977L12.01 0.549764C12.21 0.189764 12.57 0.00976419 13.09 0.00976419H16.06C16.26 0.00976419 16.41 0.0697646 16.51 0.189765C16.63 0.309765 16.69 0.459765 16.69 0.639765C16.69 0.719765 16.65 0.839765 16.57 0.999764L10.9 10.1498L17.11 19.9898ZM21.1577 21.0098C20.9577 21.0098 20.7877 20.9398 20.6477 20.7998C20.5077 20.6598 20.4377 20.4898 20.4377 20.2898V0.759765C20.4377 0.539765 20.4977 0.359764 20.6177 0.219765C20.7577 0.0797645 20.9377 0.00976419 21.1577 0.00976419H29.1977C31.5977 0.00976419 33.4877 0.579765 34.8677 1.71977C36.2477 2.83977 36.9377 4.48977 36.9377 6.66977C36.9377 8.84977 36.2477 10.4998 34.8677 11.6198C33.5077 12.7198 31.6177 13.2698 29.1977 13.2698H24.7277V20.2898C24.7277 20.4898 24.6577 20.6598 24.5177 20.7998C24.3977 20.9398 24.2277 21.0098 24.0077 21.0098H21.1577ZM29.0477 9.93977C30.2077 9.93977 31.0977 9.66976 31.7177 9.12976C32.3377 8.56976 32.6477 7.74976 32.6477 6.66977C32.6477 5.62976 32.3477 4.81976 31.7477 4.23977C31.1477 3.63976 30.2477 3.33976 29.0477 3.33976H24.6677V9.93977H29.0477ZM40.933 21.0098C40.733 21.0098 40.563 20.9398 40.423 20.7998C40.283 20.6598 40.213 20.4898 40.213 20.2898V0.759765C40.213 0.539765 40.273 0.359764 40.393 0.219765C40.533 0.0797645 40.713 0.00976419 40.933 0.00976419H54.133C54.353 0.00976419 54.533 0.0797645 54.673 0.219765C54.813 0.359764 54.883 0.539765 54.883 0.759765V2.73976C54.883 2.95976 54.813 3.13976 54.673 3.27977C54.533 3.39976 54.353 3.45976 54.133 3.45976H44.263V8.76976H53.473C53.693 8.76976 53.873 8.83976 54.013 8.97976C54.153 9.09977 54.223 9.26977 54.223 9.48977V11.3498C54.223 11.5698 54.153 11.7498 54.013 11.8898C53.873 12.0098 53.693 12.0698 53.473 12.0698H44.263V17.5598H54.373C54.593 17.5598 54.773 17.6298 54.913 17.7698C55.053 17.9098 55.123 18.0898 55.123 18.3098V20.2898C55.123 20.5098 55.053 20.6898 54.913 20.8298C54.773 20.9498 54.593 21.0098 54.373 21.0098H40.933ZM58.0352 25.1798C57.8152 25.1798 57.6352 25.1098 57.4952 24.9698C57.3752 24.8498 57.3152 24.6798 57.3152 24.4598V17.9798C57.3152 17.7598 57.3852 17.5898 57.5252 17.4698C57.6652 17.3298 57.8352 17.2598 58.0352 17.2598H58.6352C59.5752 17.2598 60.2652 16.3998 60.7052 14.6798C61.1452 12.9398 61.3652 10.3798 61.3652 6.99977V0.729764C61.3652 0.509764 61.4352 0.339765 61.5752 0.219765C61.7152 0.0797645 61.8852 0.00976419 62.0852 0.00976419H74.9552C75.1752 0.00976419 75.3552 0.0797645 75.4952 0.219765C75.6352 0.359764 75.7052 0.539765 75.7052 0.759765V17.2598H77.1452C77.3652 17.2598 77.5452 17.3298 77.6852 17.4698C77.8252 17.6098 77.8952 17.7798 77.8952 17.9798V24.4598C77.8952 24.6598 77.8252 24.8298 77.6852 24.9698C77.5452 25.1098 77.3652 25.1798 77.1452 25.1798H74.4452C74.2452 25.1798 74.0752 25.1098 73.9352 24.9698C73.7952 24.8498 73.7252 24.6798 73.7252 24.4598V21.0098H61.4852V24.4598C61.4852 24.6798 61.4152 24.8498 61.2752 24.9698C61.1352 25.1098 60.9552 25.1798 60.7352 25.1798H58.0352ZM71.5352 17.2598V3.75976H65.3852V7.53976C65.3852 9.99977 65.2452 12.0198 64.9652 13.5998C64.7052 15.1798 64.2952 16.3998 63.7352 17.2598H71.5352ZM81.9487 21.0098C81.7287 21.0098 81.5487 20.9398 81.4087 20.7998C81.2887 20.6598 81.2287 20.4798 81.2287 20.2598V0.759765C81.2287 0.539765 81.2987 0.359764 81.4387 0.219765C81.5787 0.0797645 81.7587 0.00976419 81.9787 0.00976419H84.6787C84.8987 0.00976419 85.0687 0.0797645 85.1887 0.219765C85.3287 0.359764 85.3987 0.539765 85.3987 0.759765V14.5298L95.2687 0.489765C95.4887 0.169765 95.7787 0.00976419 96.1387 0.00976419H98.6287C98.8487 0.00976419 99.0187 0.0797645 99.1387 0.219765C99.2787 0.359764 99.3487 0.539765 99.3487 0.759765V20.2898C99.3487 20.4898 99.2787 20.6598 99.1387 20.7998C99.0187 20.9398 98.8487 21.0098 98.6287 21.0098H95.9287C95.7087 21.0098 95.5287 20.9498 95.3887 20.8298C95.2487 20.6898 95.1787 20.5098 95.1787 20.2898V6.78976L85.3387 20.5298C85.2187 20.6898 85.0987 20.8098 84.9787 20.8898C84.8587 20.9698 84.6887 21.0098 84.4687 21.0098H81.9487ZM109.362 21.0098C109.162 21.0098 108.992 20.9398 108.852 20.7998C108.712 20.6598 108.642 20.4898 108.642 20.2898V3.69976H103.092C102.892 3.69976 102.722 3.62976 102.582 3.48976C102.442 3.34976 102.372 3.17977 102.372 2.97977V0.759765C102.372 0.539765 102.432 0.359764 102.552 0.219765C102.692 0.0797645 102.872 0.00976419 103.092 0.00976419H118.392C118.612 0.00976419 118.792 0.0797645 118.932 0.219765C119.072 0.359764 119.142 0.539765 119.142 0.759765V2.97977C119.142 3.17977 119.072 3.34976 118.932 3.48976C118.792 3.62976 118.612 3.69976 118.392 3.69976H112.872V20.2898C112.872 20.4898 112.802 20.6598 112.662 20.7998C112.522 20.9398 112.342 21.0098 112.122 21.0098H109.362Z" fill="#005182"/>
</svg>
