<svg width="298" height="126" viewBox="0 0 298 126" fill="none" xmlns="http://www.w3.org/2000/svg">
<path d="M288.47 8.67598C288.827 8.25407 288.774 7.62314 288.352 7.26675L281.476 1.45905C281.054 1.10266 280.423 1.15577 280.067 1.57768C279.711 1.99958 279.764 2.63052 280.186 2.9869L286.297 8.14931L281.135 14.2607C280.778 14.6826 280.831 15.3136 281.253 15.67C281.675 16.0264 282.306 15.9732 282.663 15.5513L288.47 8.67598ZM9.4192 112.7C11.0479 113.119 12.6599 113.517 14.2554 113.897L14.7179 111.951C13.1344 111.574 11.5342 111.179 9.91706 110.763L9.4192 112.7ZM23.6678 115.948C26.9573 116.597 30.1738 117.16 33.3205 117.64L33.622 115.663C30.505 115.188 27.3172 114.63 24.0554 113.986L23.6678 115.948ZM43.0069 118.881C46.3209 119.222 49.5542 119.466 52.7111 119.618L52.8074 117.621C49.6877 117.47 46.4906 117.229 43.2115 116.891L43.0069 118.881ZM62.4355 119.799C65.7644 119.76 69.0047 119.613 72.1623 119.366L72.0063 117.372C68.8934 117.615 65.6972 117.76 62.4116 117.799L62.4355 119.799ZM81.8517 118.262C85.1403 117.767 88.3359 117.159 91.4464 116.446L91.0001 114.497C87.9386 115.198 84.7925 115.797 81.5537 116.285L81.8517 118.262ZM100.88 113.899C104.034 112.914 107.1 111.82 110.087 110.629L109.346 108.771C106.405 109.944 103.388 111.02 100.284 111.989L100.88 113.899ZM119.016 106.678C121.962 105.245 124.832 103.719 127.639 102.113L126.645 100.377C123.875 101.963 121.044 103.467 118.141 104.88L119.016 106.678ZM135.95 97.0198C138.673 95.242 141.342 93.395 143.968 91.492L142.794 89.8725C140.192 91.7586 137.55 93.5869 134.856 95.3451L135.95 97.0198ZM151.731 85.6255C154.278 83.6267 156.794 81.5848 159.29 79.5129L158.013 77.9739C155.528 80.0366 153.026 82.0667 150.496 84.0521L151.731 85.6255ZM166.705 73.2417C169.153 71.1394 171.594 69.0191 174.038 66.8947L172.726 65.3854C170.282 67.5098 167.845 69.6264 165.402 71.7244L166.705 73.2417ZM181.357 60.5468C183.796 58.4439 186.248 56.3486 188.726 54.2724L187.442 52.7395C184.954 54.8236 182.494 56.9254 180.051 59.0322L181.357 60.5468ZM196.205 48.1451C198.715 46.1419 201.259 44.1694 203.848 42.2389L202.653 40.6355C200.043 42.5809 197.482 44.5671 194.958 46.582L196.205 48.1451ZM211.7 36.6283C214.341 34.8259 217.035 33.0752 219.793 31.3869L218.749 29.6811C215.96 31.388 213.238 33.1569 210.572 34.9764L211.7 36.6283ZM228.147 26.5848C230.947 25.0798 233.817 23.6432 236.764 22.285L235.927 20.4686C232.941 21.8447 230.035 23.2996 227.2 24.8231L228.147 26.5848ZM245.631 18.5384C248.58 17.4039 251.607 16.3483 254.72 15.3802L254.126 13.4705C250.97 14.4518 247.902 15.5218 244.913 16.6719L245.631 18.5384ZM263.992 12.8266C267.047 12.0913 270.183 11.4386 273.406 10.8752L273.062 8.90511C269.797 9.47568 266.62 10.137 263.524 10.8822L263.992 12.8266ZM282.924 9.50759C284.525 9.32588 286.147 9.16549 287.79 9.02716L287.623 7.03421C285.96 7.17415 284.319 7.33644 282.698 7.52035L282.924 9.50759Z" fill="#EF7721"/>
</svg>
