<svg width="18" height="18" viewBox="0 0 18 18" fill="none" xmlns="http://www.w3.org/2000/svg">
<path d="M16.2391 3.50578H15.5396C15.7353 3.16491 15.8478 2.77049 15.8478 2.35002C15.8478 1.41515 15.3169 0.599099 14.4623 0.22022C13.6076 -0.158694 12.6464 -0.00400622 11.9537 0.623779L10.4771 1.962C10.1628 1.4786 9.61829 1.15794 8.99996 1.15794C8.38069 1.15794 7.83545 1.47955 7.52143 1.96425L6.04227 0.623744C5.34959 -0.00397102 4.38831 -0.158623 3.53377 0.220291C2.67912 0.599099 2.14822 1.41522 2.14822 2.35006C2.14822 2.77053 2.26076 3.16491 2.4564 3.50582H1.76087C0.789926 3.50578 0 4.29571 0 5.26665V7.61449C0 7.93864 0.262793 8.20146 0.586969 8.20146H1.17394V16.2232C1.17394 17.1942 1.96386 17.9841 2.93481 17.9841C3.5062 17.9841 14.6244 17.9841 15.0652 17.9841C16.0362 17.9841 16.8261 17.1942 16.8261 16.2232V8.20146H17.4131C17.7372 8.20146 18 7.93867 18 7.61449V5.26665C18 4.29571 17.2101 3.50578 16.2391 3.50578ZM7.23913 16.8101H2.93477C2.61112 16.8101 2.3478 16.5468 2.3478 16.2232V8.20146H7.23909V16.8101H7.23913ZM7.23913 7.02753C6.98846 7.02753 1.42639 7.02753 1.1739 7.02753V5.26665C1.1739 4.94301 1.43722 4.67969 1.76087 4.67969C1.96973 4.67969 6.98713 4.67969 7.23913 4.67969V7.02753ZM4.47789 3.50575V3.50578C3.84061 3.50578 3.32212 2.9873 3.32212 2.35002C3.32212 1.87921 3.57908 1.48423 4.0095 1.29344C4.16672 1.22376 4.32854 1.18951 4.48766 1.18951C4.7642 1.18951 5.03255 1.29301 5.254 1.49365L7.47429 3.50578H4.47789V3.50575ZM9 2.33188C9.277 2.33188 9.50924 2.52499 9.57059 2.78353L8.99803 3.3024L8.42871 2.78642C8.48893 2.52644 8.72195 2.33188 9 2.33188ZM9.58697 16.8101H8.41307V8.20146H9.58697V16.8101ZM9.58697 7.02753H8.41307V4.67969C8.83266 4.67969 9.16327 4.67969 9.58697 4.67969V7.02753ZM12.742 1.49369C13.0909 1.17756 13.5561 1.10275 13.9865 1.29351C14.4169 1.48426 14.6739 1.87928 14.6739 2.35006C14.6739 2.98733 14.1554 3.50582 13.5181 3.50582H10.5217L12.742 1.49369ZM15.6522 16.2232C15.6522 16.5469 15.3888 16.8102 15.0652 16.8102H10.7609V8.20146H15.6522V16.2232ZM16.8261 7.02753C16.5735 7.02753 11.0114 7.02753 10.7609 7.02753V4.67969C11.0079 4.67969 16.0249 4.67969 16.2391 4.67969C16.5628 4.67969 16.8261 4.94301 16.8261 5.26665V7.02753Z" fill="#639ABB"/>
</svg>
