<svg width="115" height="40" viewBox="0 0 115 40" fill="none" xmlns="http://www.w3.org/2000/svg">
<path d="M40.9496 38.5164C28.1702 41.497 22.4407 36.6697 20.4621 27.7001C18.2362 19.6581 19.8497 9.93452 21.2852 6.79053C22.7045 7.25484 23.1002 23.743 40.9496 38.5164Z" fill="#E96325"/>
<path d="M20.5254 34.9127C9.44534 36.601 0.175048 36.8438 0.00620919 32.6333C-0.373678 23.1335 16.7898 1.38764 20.7443 0C18.6075 10.6843 14.8112 16.9683 20.5254 34.9127Z" fill="#21A5EF"/>
<path d="M47.1848 25.3257C47.022 25.3257 46.8754 25.2688 46.7452 25.1548C46.6312 25.0245 46.5742 24.878 46.5742 24.7152V8.83984C46.5742 8.66073 46.6312 8.51419 46.7452 8.40021C46.8754 8.28624 47.022 8.22925 47.1848 8.22925H54.0234C56.1075 8.22925 57.7439 8.70958 58.9325 9.67024C60.1374 10.6309 60.7399 12.0312 60.7399 13.8711C60.7399 15.6947 60.1456 17.0706 58.957 17.9987C57.7684 18.9105 56.1238 19.3664 54.0234 19.3664H51.117V24.7152C51.117 24.8943 51.0519 25.0408 50.9216 25.1548C50.8076 25.2688 50.6611 25.3257 50.482 25.3257H47.1848ZM53.9013 15.9959C54.6177 15.9959 55.1795 15.8168 55.5865 15.4586C55.9936 15.0841 56.1971 14.5387 56.1971 13.8222C56.1971 13.1547 56.0017 12.6255 55.6109 12.2347C55.2364 11.8277 54.6666 11.6241 53.9013 11.6241H51.0437V15.9959H53.9013Z" fill="#005182"/>
<path d="M66.3344 25.57C65.4714 25.57 64.6817 25.4072 63.9653 25.0815C63.2652 24.7396 62.7116 24.2837 62.3045 23.7138C61.9137 23.1276 61.7184 22.4845 61.7184 21.7843C61.7184 20.6608 62.1743 19.7572 63.0861 19.0733C64.0142 18.3895 65.2842 17.9173 66.8961 17.6567L69.9491 17.1927V16.8508C69.9491 16.232 69.8188 15.7761 69.5583 15.483C69.2978 15.19 68.8582 15.0434 68.2394 15.0434C67.865 15.0434 67.5556 15.1086 67.3114 15.2388C67.0671 15.3691 66.8147 15.5482 66.5542 15.7761C66.3263 15.9715 66.1553 16.1018 66.0413 16.1669C65.9925 16.2972 65.9029 16.3623 65.7727 16.3623H63.1105C62.9477 16.3623 62.8093 16.3134 62.6953 16.2158C62.5976 16.1018 62.5569 15.9715 62.5732 15.825C62.5895 15.3854 62.8011 14.8969 63.2082 14.3596C63.6315 13.8222 64.2665 13.3582 65.1132 12.9674C65.9762 12.5766 67.0345 12.3813 68.2883 12.3813C70.291 12.3813 71.7727 12.829 72.7334 13.7246C73.694 14.6038 74.1744 15.7924 74.1744 17.2904V24.7152C74.1744 24.878 74.1174 25.0245 74.0034 25.1548C73.8894 25.2688 73.7429 25.3257 73.5638 25.3257H70.7306C70.5678 25.3257 70.4213 25.2688 70.291 25.1548C70.177 25.0245 70.1201 24.878 70.1201 24.7152V23.8603C69.7618 24.3651 69.2571 24.7803 68.6058 25.1059C67.9708 25.4153 67.2137 25.57 66.3344 25.57ZM67.4823 22.7857C68.2313 22.7857 68.8338 22.5415 69.2897 22.053C69.7618 21.5645 69.9979 20.8481 69.9979 19.9037V19.5618L67.9219 19.9281C66.4565 20.1887 65.7238 20.7015 65.7238 21.4668C65.7238 21.8739 65.8948 22.1995 66.2367 22.4438C66.5786 22.6717 66.9938 22.7857 67.4823 22.7857Z" fill="#005182"/>
<path d="M77.541 25.3257C77.3619 25.3257 77.2154 25.2688 77.1014 25.1548C76.9874 25.0408 76.9304 24.8943 76.9304 24.7152V13.2361C76.9304 13.057 76.9874 12.9104 77.1014 12.7965C77.2154 12.6825 77.3619 12.6255 77.541 12.6255H80.3497C80.5288 12.6255 80.6754 12.6906 80.7893 12.8209C80.9196 12.9349 80.9847 13.0733 80.9847 13.2361V14.213C81.8803 13.1547 83.0852 12.6255 84.5994 12.6255H85.674C85.8532 12.6255 85.9997 12.6825 86.1137 12.7965C86.2276 12.9104 86.2846 13.057 86.2846 13.2361V15.7517C86.2846 15.9145 86.2276 16.0611 86.1137 16.1913C85.9997 16.3053 85.8532 16.3623 85.674 16.3623H83.305C82.6374 16.3623 82.1164 16.5495 81.7419 16.924C81.3836 17.2822 81.2045 17.7951 81.2045 18.4627V24.7152C81.2045 24.8943 81.1394 25.0408 81.0091 25.1548C80.8952 25.2688 80.7486 25.3257 80.5695 25.3257H77.541Z" fill="#005182"/>
<path d="M92.6861 25.57C91.2532 25.57 90.0972 25.0896 89.2179 24.129C88.3387 23.152 87.8991 21.7925 87.8991 20.0503V13.2361C87.8991 13.057 87.9561 12.9104 88.07 12.7965C88.184 12.6825 88.3306 12.6255 88.5097 12.6255H91.5626C91.7417 12.6255 91.8883 12.6825 92.0022 12.7965C92.1325 12.9104 92.1976 13.057 92.1976 13.2361V19.9037C92.1976 21.4994 92.9059 22.2972 94.3225 22.2972C95.0063 22.2972 95.5437 22.0856 95.9344 21.6622C96.3252 21.2389 96.5206 20.6527 96.5206 19.9037V13.2361C96.5206 13.057 96.5776 12.9104 96.6916 12.7965C96.8218 12.6825 96.9684 12.6255 97.1312 12.6255H100.184C100.363 12.6255 100.51 12.6825 100.624 12.7965C100.738 12.9104 100.795 13.057 100.795 13.2361V24.7152C100.795 24.878 100.738 25.0245 100.624 25.1548C100.51 25.2688 100.363 25.3257 100.184 25.3257H97.351C97.1882 25.3257 97.0416 25.2688 96.9114 25.1548C96.7974 25.0245 96.7404 24.878 96.7404 24.7152V23.7871C95.8937 24.9757 94.5423 25.57 92.6861 25.57Z" fill="#005182"/>
<path d="M108.894 25.57C107.575 25.57 106.468 25.3827 105.573 25.0082C104.693 24.6337 104.042 24.186 103.619 23.6649C103.195 23.1439 102.984 22.6799 102.984 22.2728C102.984 22.11 103.041 21.9797 103.155 21.882C103.285 21.768 103.423 21.7111 103.57 21.7111H106.354C106.452 21.7111 106.541 21.7518 106.623 21.8332C106.818 21.9634 106.965 22.0693 107.062 22.1507C107.421 22.4112 107.73 22.6066 107.991 22.7368C108.267 22.8508 108.601 22.9078 108.992 22.9078C109.464 22.9078 109.847 22.8183 110.14 22.6392C110.449 22.4438 110.604 22.1751 110.604 21.8332C110.604 21.5564 110.522 21.3366 110.36 21.1737C110.213 21.0109 109.92 20.8562 109.48 20.7097C109.041 20.5469 108.373 20.3759 107.478 20.1968C106.126 19.92 105.084 19.4722 104.351 18.8535C103.635 18.2185 103.277 17.3718 103.277 16.3134C103.277 15.6459 103.488 15.0109 103.912 14.4084C104.335 13.806 104.962 13.3175 105.792 12.943C106.639 12.5685 107.64 12.3813 108.796 12.3813C109.953 12.3813 110.962 12.5604 111.825 12.9186C112.688 13.2768 113.339 13.7164 113.779 14.2374C114.235 14.7422 114.463 15.2062 114.463 15.6296C114.463 15.7761 114.406 15.9064 114.292 16.0204C114.194 16.1343 114.072 16.1913 113.925 16.1913H111.385C111.255 16.1913 111.133 16.1506 111.019 16.0692C110.807 15.9552 110.62 15.8331 110.457 15.7029C110.18 15.4912 109.92 15.3284 109.676 15.2144C109.431 15.1004 109.13 15.0434 108.772 15.0434C108.349 15.0434 108.007 15.1411 107.746 15.3365C107.502 15.5319 107.38 15.7843 107.38 16.0936C107.38 16.3379 107.445 16.5414 107.575 16.7042C107.722 16.8671 108.015 17.0299 108.455 17.1927C108.91 17.3392 109.578 17.4939 110.457 17.6567C112.037 17.9335 113.185 18.422 113.901 19.1222C114.634 19.8223 115 20.6446 115 21.5889C115 22.7938 114.463 23.7626 113.388 24.4953C112.313 25.2118 110.815 25.57 108.894 25.57Z" fill="#005182"/>
<path d="M49.4527 30.2743C49.4865 30.2743 49.516 30.2861 49.5414 30.3098C49.5667 30.3295 49.5794 30.3551 49.5794 30.3867V33.2188C49.5794 33.2583 49.5667 33.2898 49.5414 33.3135C49.516 33.3371 49.4843 33.3489 49.4463 33.3489H49.1357C49.0935 33.3489 49.0597 33.3371 49.0343 33.3135C49.009 33.2898 48.9963 33.2583 48.9963 33.2188V31.2736L48.185 32.7044C48.1554 32.7557 48.1258 32.7951 48.0963 32.8227C48.0709 32.8463 48.0308 32.8582 47.9758 32.8582H47.811C47.7603 32.8582 47.7202 32.8463 47.6906 32.8227C47.6653 32.799 47.6357 32.7596 47.6019 32.7044L46.7969 31.309V33.2188C46.7969 33.2583 46.7842 33.2898 46.7589 33.3135C46.7335 33.3371 46.6997 33.3489 46.6575 33.3489H46.3469C46.3046 33.3489 46.2708 33.3371 46.2455 33.3135C46.2201 33.2898 46.2075 33.2583 46.2075 33.2188V30.3867C46.2075 30.3591 46.2201 30.3334 46.2455 30.3098C46.2708 30.2861 46.3004 30.2743 46.3342 30.2743H46.6575C46.7209 30.2743 46.7737 30.3058 46.8159 30.3689L47.8934 32.2492L48.9773 30.3689C49.0111 30.3058 49.0639 30.2743 49.1357 30.2743H49.4527Z" fill="#206792"/>
<path d="M52.6702 33.4081C52.235 33.4081 51.8864 33.2839 51.6244 33.0356C51.3666 32.7833 51.2251 32.4403 51.1997 32.0067L51.1934 31.8057L51.1997 31.6106C51.2293 31.1849 51.373 30.8459 51.6307 30.5936C51.8927 30.3413 52.2371 30.2152 52.6639 30.2152C53.1329 30.2152 53.4963 30.3551 53.7541 30.635C54.0118 30.9109 54.1407 31.2854 54.1407 31.7584V31.8589C54.1407 31.8983 54.1259 31.9318 54.0963 31.9594C54.071 31.9831 54.0372 31.9949 53.9949 31.9949H51.8019V32.0481C51.8145 32.3043 51.8969 32.5231 52.0491 32.7044C52.2054 32.8818 52.4103 32.9705 52.6639 32.9705C52.8582 32.9705 53.0167 32.935 53.1392 32.8641C53.266 32.7892 53.359 32.7123 53.4181 32.6335C53.4562 32.5862 53.4836 32.5586 53.5005 32.5507C53.5217 32.5389 53.5576 32.533 53.6083 32.533H53.9189C53.9569 32.533 53.9886 32.5428 54.0139 32.5625C54.0393 32.5822 54.052 32.6098 54.052 32.6453C54.052 32.732 53.9928 32.8365 53.8745 32.9587C53.7604 33.0809 53.5977 33.1873 53.3864 33.278C53.1794 33.3647 52.9406 33.4081 52.6702 33.4081ZM53.5386 31.5869V31.5692C53.5386 31.2972 53.4583 31.0765 53.2977 30.907C53.1414 30.7335 52.9301 30.6468 52.6639 30.6468C52.3977 30.6468 52.1864 30.7335 52.03 30.907C51.8779 31.0765 51.8019 31.2972 51.8019 31.5692V31.5869H53.5386Z" fill="#206792"/>
<path d="M55.8747 34.4723C55.8324 34.4723 55.7965 34.4585 55.7669 34.431C55.7415 34.4073 55.7289 34.3758 55.7289 34.3363V30.4103C55.7289 30.3709 55.7415 30.3394 55.7669 30.3157C55.7965 30.2881 55.8324 30.2743 55.8747 30.2743H56.1662C56.2085 30.2743 56.2423 30.2881 56.2676 30.3157C56.2972 30.3394 56.312 30.3709 56.312 30.4103V30.6705C56.5486 30.3669 56.8951 30.2152 57.3515 30.2152C57.7951 30.2152 58.1269 30.3453 58.3466 30.6054C58.5705 30.8656 58.691 31.2006 58.7079 31.6106C58.7121 31.6539 58.7142 31.721 58.7142 31.8116C58.7142 31.9023 58.7121 31.9693 58.7079 32.0127C58.691 32.4187 58.5705 32.7537 58.3466 33.0178C58.1226 33.278 57.7909 33.4081 57.3515 33.4081C56.912 33.4081 56.5697 33.2602 56.3247 32.9646V34.3363C56.3247 34.3758 56.312 34.4073 56.2866 34.431C56.2613 34.4585 56.2275 34.4723 56.1852 34.4723H55.8747ZM57.2184 32.9291C57.5184 32.9291 57.736 32.8424 57.8712 32.669C58.0106 32.4955 58.0867 32.2669 58.0994 31.9831C58.1036 31.9437 58.1057 31.8865 58.1057 31.8116C58.1057 31.0666 57.8099 30.6941 57.2184 30.6941C56.9268 30.6941 56.7071 30.7848 56.5592 30.9661C56.4155 31.1435 56.3373 31.3563 56.3247 31.6047L56.3183 31.8294L56.3247 32.06C56.3331 32.2925 56.4134 32.4955 56.5655 32.669C56.7176 32.8424 56.9353 32.9291 57.2184 32.9291Z" fill="#206792"/>
<path d="M61.6406 33.4081C61.2054 33.4081 60.8568 33.2839 60.5948 33.0356C60.337 32.7833 60.1955 32.4403 60.1701 32.0067L60.1638 31.8057L60.1701 31.6106C60.1997 31.1849 60.3434 30.8459 60.6011 30.5936C60.8631 30.3413 61.2075 30.2152 61.6343 30.2152C62.1033 30.2152 62.4667 30.3551 62.7244 30.635C62.9822 30.9109 63.1111 31.2854 63.1111 31.7584V31.8589C63.1111 31.8983 63.0963 31.9318 63.0667 31.9594C63.0414 31.9831 63.0076 31.9949 62.9653 31.9949H60.7723V32.0481C60.7849 32.3043 60.8673 32.5231 61.0194 32.7044C61.1758 32.8818 61.3807 32.9705 61.6343 32.9705C61.8286 32.9705 61.9871 32.935 62.1096 32.8641C62.2364 32.7892 62.3294 32.7123 62.3885 32.6335C62.4265 32.5862 62.454 32.5586 62.4709 32.5507C62.492 32.5389 62.528 32.533 62.5787 32.533H62.8892C62.9273 32.533 62.959 32.5428 62.9843 32.5625C63.0097 32.5822 63.0223 32.6098 63.0223 32.6453C63.0223 32.732 62.9632 32.8365 62.8449 32.9587C62.7308 33.0809 62.5681 33.1873 62.3568 33.278C62.1498 33.3647 61.911 33.4081 61.6406 33.4081ZM62.5089 31.5869V31.5692C62.5089 31.2972 62.4287 31.0765 62.2681 30.907C62.1117 30.7335 61.9005 30.6468 61.6343 30.6468C61.3681 30.6468 61.1568 30.7335 61.0004 30.907C60.8483 31.0765 60.7723 31.2972 60.7723 31.5692V31.5869H62.5089Z" fill="#206792"/>
<path d="M69.1107 33.1775C69.1276 33.2051 69.136 33.2307 69.136 33.2543C69.136 33.3174 69.0938 33.3489 69.0093 33.3489H68.629C68.5614 33.3489 68.5043 33.3194 68.4578 33.2602L67.5388 32.0186H67.0508V33.2129C67.0508 33.2524 67.036 33.2859 67.0064 33.3135C66.981 33.3371 66.9472 33.3489 66.905 33.3489H66.6134C66.5712 33.3489 66.5352 33.3371 66.5057 33.3135C66.4803 33.2859 66.4676 33.2524 66.4676 33.2129V32.0186H65.9732L65.0542 33.2602C65.0077 33.3194 64.9507 33.3489 64.8831 33.3489H64.4964C64.4584 33.3489 64.4267 33.341 64.4014 33.3253C64.3802 33.3056 64.3697 33.2819 64.3697 33.2543C64.3697 33.2346 64.3802 33.209 64.4014 33.1775L65.4852 31.7407L64.5281 30.4399C64.5112 30.4202 64.5028 30.3965 64.5028 30.3689C64.5028 30.3413 64.5133 30.3196 64.5345 30.3039C64.5598 30.2842 64.5915 30.2743 64.6295 30.2743H64.9591C65.0225 30.2743 65.0796 30.3039 65.1303 30.363L65.9796 31.5455H66.4676V30.4103C66.4676 30.3709 66.4803 30.3394 66.5057 30.3157C66.5352 30.2881 66.5712 30.2743 66.6134 30.2743H66.905C66.9472 30.2743 66.981 30.2881 67.0064 30.3157C67.036 30.3394 67.0508 30.3709 67.0508 30.4103V31.5455H67.5198L68.3818 30.363C68.424 30.3039 68.479 30.2743 68.5466 30.2743H68.8825C68.9205 30.2743 68.9501 30.2842 68.9712 30.3039C68.9966 30.3196 69.0093 30.3413 69.0093 30.3689C69.0093 30.3886 68.9987 30.4123 68.9776 30.4399L68.0268 31.7407L69.1107 33.1775Z" fill="#206792"/>
<path d="M71.4991 33.4081C71.2921 33.4081 71.0998 33.3686 70.9223 33.2898C70.7449 33.211 70.6033 33.1045 70.4977 32.9705C70.3963 32.8326 70.3456 32.6808 70.3456 32.5152C70.3456 32.2551 70.4597 32.0422 70.6878 31.8767C70.9202 31.7072 71.2329 31.5968 71.6259 31.5455L72.5703 31.4214V31.2499C72.5703 30.8478 72.3231 30.6468 71.8287 30.6468C71.6428 30.6468 71.4907 30.6843 71.3724 30.7592C71.254 30.8301 71.1653 30.9149 71.1062 31.0134C71.0935 31.0489 71.0766 31.0745 71.0554 31.0903C71.0385 31.106 71.0132 31.1139 70.9794 31.1139H70.7068C70.6688 31.1139 70.635 31.1021 70.6054 31.0784C70.5801 31.0509 70.5674 31.0193 70.5674 30.9838C70.5716 30.8892 70.6181 30.7828 70.7068 30.6646C70.7998 30.5424 70.9414 30.4379 71.1315 30.3512C71.3217 30.2605 71.5562 30.2152 71.8351 30.2152C72.3083 30.2152 72.6485 30.3196 72.8555 30.5286C73.0626 30.7335 73.1661 30.9898 73.1661 31.2972V33.2129C73.1661 33.2524 73.1513 33.2859 73.1217 33.3135C73.0964 33.3371 73.0626 33.3489 73.0203 33.3489H72.7288C72.6865 33.3489 72.6506 33.3371 72.621 33.3135C72.5956 33.2859 72.583 33.2524 72.583 33.2129V32.9587C72.49 33.0848 72.3548 33.1913 72.1773 33.278C71.9999 33.3647 71.7738 33.4081 71.4991 33.4081ZM71.6322 32.9646C71.9069 32.9646 72.1308 32.8818 72.3041 32.7163C72.4816 32.5468 72.5703 32.3043 72.5703 31.989V31.8234L71.8351 31.924C71.535 31.9634 71.309 32.0304 71.1569 32.125C71.0047 32.2157 70.9287 32.3319 70.9287 32.4738C70.9287 32.6315 70.9984 32.7537 71.1378 32.8404C71.2773 32.9232 71.4421 32.9646 71.6322 32.9646Z" fill="#206792"/>
<path d="M77.1204 33.3489C77.0781 33.3489 77.0422 33.3351 77.0126 33.3075C76.983 33.2799 76.9683 33.2464 76.9683 33.207V32.9883C76.9683 32.9488 76.9809 32.9173 77.0063 32.8936C77.0316 32.87 77.0633 32.8582 77.1014 32.8582C77.3042 32.8503 77.4542 32.7163 77.5514 32.4561C77.6528 32.192 77.7035 31.7623 77.7035 31.1671V30.4103C77.7035 30.3709 77.7162 30.3394 77.7415 30.3157C77.7711 30.2881 77.807 30.2743 77.8493 30.2743H79.8648C79.9071 30.2743 79.9409 30.2881 79.9663 30.3157C79.9958 30.3394 80.0106 30.3709 80.0106 30.4103V33.2129C80.0106 33.2524 79.9958 33.2859 79.9663 33.3135C79.9409 33.3371 79.9071 33.3489 79.8648 33.3489H79.5606C79.5184 33.3489 79.4846 33.3371 79.4592 33.3135C79.4338 33.2859 79.4212 33.2524 79.4212 33.2129V30.7473H78.2803V31.2322C78.2803 31.9851 78.1873 32.5271 78.0014 32.8582C77.8155 33.1853 77.5218 33.3489 77.1204 33.3489Z" fill="#206792"/>
<path d="M83.1296 33.4081C82.6647 33.4081 82.3035 33.2859 82.0457 33.0415C81.7922 32.7971 81.657 32.4719 81.6401 32.0659L81.6337 31.8116L81.6401 31.5574C81.657 31.1553 81.7943 30.8321 82.052 30.5877C82.3098 30.3394 82.669 30.2152 83.1296 30.2152C83.5901 30.2152 83.9493 30.3394 84.2071 30.5877C84.4648 30.8321 84.6021 31.1553 84.619 31.5574C84.6233 31.6007 84.6254 31.6855 84.6254 31.8116C84.6254 31.9378 84.6233 32.0225 84.619 32.0659C84.6021 32.4719 84.4648 32.7971 84.2071 33.0415C83.9535 33.2859 83.5944 33.4081 83.1296 33.4081ZM83.1296 32.9528C83.3958 32.9528 83.6049 32.8739 83.757 32.7163C83.9134 32.5586 83.9979 32.3319 84.0106 32.0363C84.0148 31.9969 84.0169 31.922 84.0169 31.8116C84.0169 31.7013 84.0148 31.6264 84.0106 31.5869C83.9979 31.2913 83.9134 31.0646 83.757 30.907C83.6049 30.7493 83.3958 30.6705 83.1296 30.6705C82.8633 30.6705 82.6521 30.7493 82.4957 30.907C82.3394 31.0646 82.257 31.2913 82.2485 31.5869L82.2422 31.8116L82.2485 32.0363C82.257 32.3319 82.3394 32.5586 82.4957 32.7163C82.6521 32.8739 82.8633 32.9528 83.1296 32.9528Z" fill="#206792"/>
<path d="M89.4882 30.2743C89.522 30.2743 89.5516 30.2861 89.577 30.3098C89.6023 30.3295 89.615 30.3551 89.615 30.3867V33.2188C89.615 33.2583 89.6023 33.2898 89.577 33.3135C89.5516 33.3371 89.5199 33.3489 89.4819 33.3489H89.1713C89.1291 33.3489 89.0952 33.3371 89.0699 33.3135C89.0445 33.2898 89.0319 33.2583 89.0319 33.2188V31.2736L88.2206 32.7044C88.191 32.7557 88.1614 32.7951 88.1318 32.8227C88.1065 32.8463 88.0663 32.8582 88.0114 32.8582H87.8466C87.7959 32.8582 87.7558 32.8463 87.7262 32.8227C87.7008 32.799 87.6713 32.7596 87.6374 32.7044L86.8325 31.309V33.2188C86.8325 33.2583 86.8198 33.2898 86.7945 33.3135C86.7691 33.3371 86.7353 33.3489 86.693 33.3489H86.3825C86.3402 33.3489 86.3064 33.3371 86.2811 33.3135C86.2557 33.2898 86.243 33.2583 86.243 33.2188V30.3867C86.243 30.3591 86.2557 30.3334 86.2811 30.3098C86.3064 30.2861 86.336 30.2743 86.3698 30.2743H86.693C86.7564 30.2743 86.8092 30.3058 86.8515 30.3689L87.929 32.2492L89.0129 30.3689C89.0467 30.3058 89.0995 30.2743 89.1713 30.2743H89.4882Z" fill="#206792"/>
<path d="M94.2713 31.7407C94.2756 31.7801 94.2777 31.8432 94.2777 31.9299C94.2777 32.0048 94.2756 32.058 94.2713 32.0895C94.2544 32.4876 94.1171 32.8069 93.8593 33.0474C93.6058 33.2878 93.2467 33.4081 92.7818 33.4081C92.3044 33.4081 91.941 33.2819 91.6917 33.0296C91.4424 32.7774 91.3093 32.4305 91.2924 31.989L91.286 31.6342L91.2924 31.2795C91.2966 30.7158 91.3769 30.294 91.5332 30.0142C91.6938 29.7303 91.9198 29.5273 92.2114 29.4051C92.5072 29.279 92.9847 29.1351 93.6438 28.9735L93.796 28.938L93.8277 28.9321C93.8615 28.9321 93.891 28.944 93.9164 28.9676C93.946 28.9873 93.9629 29.011 93.9671 29.0386L94.0178 29.281L94.0241 29.3165C94.0241 29.344 94.0136 29.3677 93.9925 29.3874C93.9756 29.4071 93.9502 29.4209 93.9164 29.4288L93.5995 29.4997C93.1135 29.6101 92.7649 29.7047 92.5537 29.7836C92.3424 29.8624 92.1776 29.9866 92.0593 30.1561C91.9452 30.3216 91.8818 30.57 91.8691 30.9011C91.9705 30.7592 92.1142 30.6448 92.3001 30.5581C92.4861 30.4675 92.6825 30.4221 92.8896 30.4221C93.3164 30.4221 93.6481 30.5443 93.8847 30.7887C94.1256 31.0292 94.2544 31.3465 94.2713 31.7407ZM93.6629 32.0659C93.6671 32.0383 93.6692 31.9929 93.6692 31.9299C93.6692 31.8589 93.6671 31.8057 93.6629 31.7702C93.6544 31.4825 93.5741 31.2598 93.422 31.1021C93.2741 30.9405 93.0797 30.8597 92.8389 30.8597C92.5685 30.8597 92.3466 30.9405 92.1734 31.1021C92.0043 31.2598 91.9135 31.4825 91.9008 31.7702L91.8945 31.9299L91.9008 32.0659C91.9135 32.3576 91.998 32.5822 92.1544 32.7399C92.3107 32.8936 92.5199 32.9705 92.7818 32.9705C93.048 32.9705 93.2593 32.8936 93.4157 32.7399C93.572 32.5822 93.6544 32.3576 93.6629 32.0659Z" fill="#206792"/>
<path d="M96.8133 33.4081C96.6063 33.4081 96.414 33.3686 96.2365 33.2898C96.0591 33.211 95.9175 33.1045 95.8119 32.9705C95.7105 32.8326 95.6598 32.6808 95.6598 32.5152C95.6598 32.2551 95.7739 32.0422 96.002 31.8767C96.2344 31.7072 96.5471 31.5968 96.9401 31.5455L97.8845 31.4214V31.2499C97.8845 30.8478 97.6373 30.6468 97.1429 30.6468C96.957 30.6468 96.8049 30.6843 96.6866 30.7592C96.5682 30.8301 96.4795 30.9149 96.4204 31.0134C96.4077 31.0489 96.3908 31.0745 96.3696 31.0903C96.3527 31.106 96.3274 31.1139 96.2936 31.1139H96.021C95.983 31.1139 95.9492 31.1021 95.9196 31.0784C95.8943 31.0509 95.8816 31.0193 95.8816 30.9838C95.8858 30.8892 95.9323 30.7828 96.021 30.6646C96.114 30.5424 96.2556 30.4379 96.4457 30.3512C96.6359 30.2605 96.8704 30.2152 97.1493 30.2152C97.6225 30.2152 97.9627 30.3196 98.1697 30.5286C98.3768 30.7335 98.4803 30.9898 98.4803 31.2972V33.2129C98.4803 33.2524 98.4655 33.2859 98.4359 33.3135C98.4106 33.3371 98.3768 33.3489 98.3345 33.3489H98.043C98.0007 33.3489 97.9648 33.3371 97.9352 33.3135C97.9098 33.2859 97.8972 33.2524 97.8972 33.2129V32.9587C97.8042 33.0848 97.669 33.1913 97.4915 33.278C97.3141 33.3647 97.088 33.4081 96.8133 33.4081ZM96.9464 32.9646C97.2211 32.9646 97.445 32.8818 97.6183 32.7163C97.7958 32.5468 97.8845 32.3043 97.8845 31.989V31.8234L97.1493 31.924C96.8492 31.9634 96.6232 32.0304 96.4711 32.125C96.3189 32.2157 96.2429 32.3319 96.2429 32.4738C96.2429 32.6315 96.3126 32.7537 96.452 32.8404C96.5915 32.9232 96.7563 32.9646 96.9464 32.9646Z" fill="#206792"/>
<path d="M100.368 34.4723C100.325 34.4723 100.289 34.4585 100.26 34.431C100.234 34.4073 100.222 34.3758 100.222 34.3363V30.4103C100.222 30.3709 100.234 30.3394 100.26 30.3157C100.289 30.2881 100.325 30.2743 100.368 30.2743H100.659C100.701 30.2743 100.735 30.2881 100.761 30.3157C100.79 30.3394 100.805 30.3709 100.805 30.4103V30.6705C101.042 30.3669 101.388 30.2152 101.844 30.2152C102.288 30.2152 102.62 30.3453 102.839 30.6054C103.063 30.8656 103.184 31.2006 103.201 31.6106C103.205 31.6539 103.207 31.721 103.207 31.8116C103.207 31.9023 103.205 31.9693 103.201 32.0127C103.184 32.4187 103.063 32.7537 102.839 33.0178C102.616 33.278 102.284 33.4081 101.844 33.4081C101.405 33.4081 101.063 33.2602 100.818 32.9646V34.3363C100.818 34.3758 100.805 34.4073 100.78 34.431C100.754 34.4585 100.72 34.4723 100.678 34.4723H100.368ZM101.711 32.9291C102.011 32.9291 102.229 32.8424 102.364 32.669C102.504 32.4955 102.58 32.2669 102.592 31.9831C102.597 31.9437 102.599 31.8865 102.599 31.8116C102.599 31.0666 102.303 30.6941 101.711 30.6941C101.42 30.6941 101.2 30.7848 101.052 30.9661C100.908 31.1435 100.83 31.3563 100.818 31.6047L100.811 31.8294L100.818 32.06C100.826 32.2925 100.906 32.4955 101.058 32.669C101.211 32.8424 101.428 32.9291 101.711 32.9291Z" fill="#206792"/>
<path d="M104.625 33.9993C104.583 33.9993 104.547 33.9855 104.517 33.9579C104.492 33.9343 104.479 33.9028 104.479 33.8633V33.0119C104.479 32.9725 104.492 32.9409 104.517 32.9173C104.547 32.8897 104.583 32.8759 104.625 32.8759H104.657C104.834 32.872 104.967 32.734 105.056 32.462C105.149 32.19 105.195 31.7584 105.195 31.1671V30.4103C105.195 30.3709 105.208 30.3394 105.233 30.3157C105.263 30.2881 105.299 30.2743 105.341 30.2743H107.363C107.405 30.2743 107.439 30.2881 107.465 30.3157C107.494 30.3394 107.509 30.3709 107.509 30.4103V32.8641H107.807C107.849 32.8641 107.883 32.8779 107.908 32.9055C107.938 32.9291 107.953 32.9607 107.953 33.0001V33.8633C107.953 33.9028 107.938 33.9343 107.908 33.9579C107.883 33.9855 107.849 33.9993 107.807 33.9993H107.509C107.467 33.9993 107.431 33.9855 107.401 33.9579C107.376 33.9343 107.363 33.9028 107.363 33.8633V33.3489H105.069V33.8633C105.069 33.9028 105.054 33.9343 105.024 33.9579C104.999 33.9855 104.965 33.9993 104.923 33.9993H104.625ZM106.919 32.8641V30.7473H105.772V31.2322C105.772 32.0205 105.652 32.5684 105.411 32.8759L106.919 32.8641Z" fill="#206792"/>
<path d="M109.535 29.7008C109.492 29.7008 109.457 29.689 109.427 29.6653C109.402 29.6377 109.389 29.6042 109.389 29.5648V29.2455C109.389 29.2061 109.402 29.1726 109.427 29.145C109.457 29.1174 109.492 29.1036 109.535 29.1036H109.934C109.976 29.1036 110.012 29.1174 110.042 29.145C110.071 29.1726 110.086 29.2061 110.086 29.2455V29.5648C110.086 29.6042 110.071 29.6377 110.042 29.6653C110.012 29.689 109.976 29.7008 109.934 29.7008H109.535ZM109.585 33.3489C109.543 33.3489 109.507 33.3371 109.478 33.3135C109.452 33.2859 109.44 33.2524 109.44 33.2129V30.4103C109.44 30.3709 109.452 30.3394 109.478 30.3157C109.507 30.2881 109.543 30.2743 109.585 30.2743H109.89C109.932 30.2743 109.966 30.2881 109.991 30.3157C110.021 30.3394 110.035 30.3709 110.035 30.4103V33.2129C110.035 33.2524 110.021 33.2859 109.991 33.3135C109.966 33.3371 109.932 33.3489 109.89 33.3489H109.585Z" fill="#206792"/>
<path d="M111.944 33.3489C111.902 33.3489 111.866 33.3371 111.837 33.3135C111.811 33.2859 111.799 33.2524 111.799 33.2129V30.4103C111.799 30.3709 111.811 30.3394 111.837 30.3157C111.866 30.2881 111.902 30.2743 111.944 30.2743H113.263C113.652 30.2743 113.947 30.3492 114.15 30.499C114.357 30.6448 114.461 30.8459 114.461 31.1021C114.461 31.2716 114.427 31.4036 114.359 31.4982C114.292 31.5889 114.188 31.6677 114.049 31.7348C114.201 31.7939 114.319 31.8924 114.404 32.0304C114.492 32.1684 114.537 32.3162 114.537 32.4738C114.537 32.7577 114.429 32.9745 114.214 33.1242C114.002 33.274 113.702 33.3489 113.313 33.3489H111.944ZM113.225 31.581C113.432 31.581 113.594 31.5396 113.713 31.4569C113.831 31.3741 113.89 31.2578 113.89 31.108C113.89 30.9622 113.833 30.8597 113.719 30.8005C113.605 30.7375 113.44 30.7059 113.225 30.7059H112.382V31.581H113.225ZM113.263 32.9173C113.474 32.9173 113.639 32.8799 113.757 32.805C113.88 32.7301 113.941 32.6197 113.941 32.4738C113.941 32.3162 113.886 32.2019 113.776 32.1309C113.666 32.056 113.495 32.0186 113.263 32.0186H112.382V32.9173H113.263Z" fill="#206792"/>
</svg>
