<svg width="136" height="47" viewBox="0 0 136 47" fill="none" xmlns="http://www.w3.org/2000/svg">
<path d="M48.4273 45.5497C33.3143 49.0746 26.5384 43.3658 24.1985 32.7583C21.5662 23.2478 23.4743 11.7486 25.172 8.03046C26.8504 8.57955 27.3184 28.0786 48.4273 45.5497Z" fill="#E96325"/>
<path d="M24.2735 41.288C11.1701 43.2847 0.207013 43.5717 0.00734304 38.5925C-0.441914 27.3579 19.8558 1.64104 24.5324 0C22.0054 12.6354 17.5159 20.0668 24.2735 41.288Z" fill="#21A5EF"/>
<path d="M55.8012 29.9505C55.6086 29.9505 55.4353 29.8831 55.2813 29.7483C55.1465 29.5943 55.0791 29.421 55.0791 29.2284V10.4541C55.0791 10.2423 55.1465 10.069 55.2813 9.93424C55.4353 9.79945 55.6086 9.73206 55.8012 9.73206H63.8886C66.3533 9.73206 68.2885 10.3001 69.6942 11.4362C71.1191 12.5723 71.8315 14.2283 71.8315 16.4041C71.8315 18.5608 71.1287 20.1879 69.723 21.2855C68.3174 22.3638 66.3726 22.9029 63.8886 22.9029H60.4514V29.2284C60.4514 29.4402 60.3744 29.6135 60.2204 29.7483C60.0856 29.8831 59.9123 29.9505 59.7005 29.9505H55.8012ZM63.7442 18.917C64.5914 18.917 65.2557 18.7052 65.7371 18.2816C66.2185 17.8387 66.4592 17.1936 66.4592 16.3464C66.4592 15.5569 66.2281 14.9311 65.766 14.469C65.3231 13.9876 64.6492 13.7469 63.7442 13.7469H60.3648V18.917H63.7442Z" fill="#005182"/>
<path d="M78.4477 30.2394C77.4271 30.2394 76.4932 30.0468 75.646 29.6617C74.818 29.2573 74.1633 28.7182 73.6819 28.0442C73.2198 27.351 72.9887 26.5904 72.9887 25.7624C72.9887 24.4338 73.5278 23.3651 74.6062 22.5563C75.7037 21.7476 77.2057 21.1892 79.112 20.8811L82.7224 20.3323V19.9279C82.7224 19.1962 82.5684 18.6571 82.2603 18.3105C81.9522 17.9639 81.4323 17.7906 80.7006 17.7906C80.2577 17.7906 79.8918 17.8676 79.603 18.0216C79.3142 18.1757 79.0157 18.3875 78.7076 18.6571C78.438 18.8881 78.2359 19.0422 78.1011 19.1192C78.0433 19.2732 77.9374 19.3503 77.7834 19.3503H74.635C74.4425 19.3503 74.2788 19.2925 74.144 19.177C74.0285 19.0422 73.9804 18.8881 73.9996 18.7148C74.0189 18.1949 74.2692 17.6173 74.7506 16.9818C75.2512 16.3464 76.0022 15.7976 77.0035 15.3355C78.024 14.8733 79.2757 14.6423 80.7584 14.6423C83.1268 14.6423 84.8791 15.1718 86.0152 16.2308C87.1512 17.2707 87.7193 18.6763 87.7193 20.4478V29.2284C87.7193 29.421 87.6519 29.5943 87.5171 29.7483C87.3823 29.8831 87.209 29.9505 86.9972 29.9505H83.6467C83.4541 29.9505 83.2808 29.8831 83.1268 29.7483C82.992 29.5943 82.9246 29.421 82.9246 29.2284V28.2175C82.501 28.8144 81.9041 29.3055 81.1338 29.6906C80.3829 30.0564 79.4875 30.2394 78.4477 30.2394ZM79.8052 26.9466C80.691 26.9466 81.4034 26.6578 81.9426 26.0801C82.501 25.5025 82.7802 24.6552 82.7802 23.5384V23.134L80.3251 23.5673C78.5921 23.8753 77.7256 24.4819 77.7256 25.3869C77.7256 25.8683 77.9278 26.2534 78.3321 26.5423C78.7365 26.8118 79.2275 26.9466 79.8052 26.9466Z" fill="#005182"/>
<path d="M91.7007 29.9505C91.4889 29.9505 91.3156 29.8831 91.1808 29.7483C91.046 29.6135 90.9786 29.4402 90.9786 29.2284V15.6532C90.9786 15.4414 91.046 15.2681 91.1808 15.1333C91.3156 14.9985 91.4889 14.9311 91.7007 14.9311H95.0223C95.2341 14.9311 95.4074 15.0081 95.5422 15.1622C95.6962 15.2969 95.7733 15.4606 95.7733 15.6532V16.8085C96.8323 15.5569 98.2572 14.9311 100.048 14.9311H101.319C101.531 14.9311 101.704 14.9985 101.839 15.1333C101.974 15.2681 102.041 15.4414 102.041 15.6532V18.6282C102.041 18.8207 101.974 18.994 101.839 19.1481C101.704 19.2829 101.531 19.3503 101.319 19.3503H98.5172C97.7277 19.3503 97.1115 19.5717 96.6687 20.0146C96.245 20.4382 96.0332 21.0448 96.0332 21.8342V29.2284C96.0332 29.4402 95.9562 29.6135 95.8021 29.7483C95.6674 29.8831 95.4941 29.9505 95.2822 29.9505H91.7007Z" fill="#005182"/>
<path d="M109.611 30.2394C107.917 30.2394 106.55 29.6713 105.51 28.5352C104.47 27.3799 103.95 25.772 103.95 23.7117V15.6532C103.95 15.4414 104.018 15.2681 104.152 15.1333C104.287 14.9985 104.461 14.9311 104.672 14.9311H108.283C108.495 14.9311 108.668 14.9985 108.803 15.1333C108.957 15.2681 109.034 15.4414 109.034 15.6532V23.5384C109.034 25.4254 109.871 26.369 111.547 26.369C112.355 26.369 112.991 26.1186 113.453 25.618C113.915 25.1173 114.146 24.4241 114.146 23.5384V15.6532C114.146 15.4414 114.214 15.2681 114.348 15.1333C114.502 14.9985 114.676 14.9311 114.868 14.9311H118.479C118.69 14.9311 118.864 14.9985 118.999 15.1333C119.133 15.2681 119.201 15.4414 119.201 15.6532V29.2284C119.201 29.421 119.133 29.5943 118.999 29.7483C118.864 29.8831 118.69 29.9505 118.479 29.9505H115.128C114.936 29.9505 114.762 29.8831 114.608 29.7483C114.473 29.5943 114.406 29.421 114.406 29.2284V28.1309C113.405 29.5365 111.807 30.2394 109.611 30.2394Z" fill="#005182"/>
<path d="M128.779 30.2394C127.22 30.2394 125.91 30.0179 124.851 29.575C123.811 29.1322 123.041 28.6026 122.54 27.9864C122.04 27.3703 121.789 26.8215 121.789 26.3401C121.789 26.1475 121.857 25.9935 121.992 25.8779C122.146 25.7432 122.309 25.6758 122.483 25.6758H125.775C125.891 25.6758 125.997 25.7239 126.093 25.8202C126.324 25.9742 126.497 26.0994 126.613 26.1957C127.037 26.5037 127.402 26.7348 127.711 26.8889C128.038 27.0237 128.433 27.091 128.895 27.091C129.453 27.091 129.906 26.9851 130.252 26.7733C130.618 26.5423 130.801 26.2245 130.801 25.8202C130.801 25.4928 130.705 25.2329 130.512 25.0403C130.339 24.8478 129.992 24.6648 129.472 24.4915C128.953 24.299 128.163 24.0968 127.104 23.885C125.506 23.5576 124.273 23.0281 123.407 22.2964C122.56 21.5454 122.136 20.5441 122.136 19.2925C122.136 18.503 122.386 17.752 122.887 17.0396C123.388 16.3271 124.129 15.7495 125.111 15.3066C126.112 14.8637 127.297 14.6423 128.664 14.6423C130.031 14.6423 131.225 14.8541 132.245 15.2777C133.266 15.7013 134.036 16.2212 134.556 16.8374C135.095 17.4343 135.365 17.9831 135.365 18.4838C135.365 18.6571 135.297 18.8111 135.162 18.9459C135.047 19.0807 134.903 19.1481 134.729 19.1481H131.725C131.571 19.1481 131.427 19.0999 131.292 19.0037C131.042 18.8689 130.82 18.7245 130.628 18.5704C130.3 18.3201 129.992 18.1275 129.703 17.9927C129.415 17.858 129.058 17.7906 128.635 17.7906C128.134 17.7906 127.73 17.9061 127.422 18.1372C127.133 18.3682 126.988 18.6667 126.988 19.0325C126.988 19.3214 127.065 19.5621 127.22 19.7546C127.393 19.9472 127.739 20.1397 128.259 20.3323C128.798 20.5056 129.588 20.6885 130.628 20.8811C132.496 21.2084 133.853 21.7861 134.7 22.6141C135.567 23.4421 136 24.4145 136 25.5313C136 26.9563 135.365 28.102 134.094 28.9685C132.823 29.8157 131.051 30.2394 128.779 30.2394Z" fill="#005182"/>
<path d="M58.4833 35.8028C58.5233 35.8028 58.5583 35.8168 58.5882 35.8448C58.6182 35.8681 58.6332 35.8984 58.6332 35.9357V39.285C58.6332 39.3316 58.6182 39.3689 58.5882 39.3969C58.5583 39.4249 58.5208 39.4389 58.4758 39.4389H58.1085C58.0585 39.4389 58.0186 39.4249 57.9886 39.3969C57.9586 39.3689 57.9436 39.3316 57.9436 39.285V36.9845L56.9842 38.6767C56.9492 38.7373 56.9142 38.7839 56.8792 38.8165C56.8492 38.8445 56.8018 38.8585 56.7368 38.8585H56.5419C56.482 38.8585 56.4345 38.8445 56.3995 38.8165C56.3695 38.7886 56.3345 38.7419 56.2946 38.6767L55.3426 37.0265V39.285C55.3426 39.3316 55.3276 39.3689 55.2976 39.3969C55.2677 39.4249 55.2277 39.4389 55.1777 39.4389H54.8104C54.7604 39.4389 54.7205 39.4249 54.6905 39.3969C54.6605 39.3689 54.6455 39.3316 54.6455 39.285V35.9357C54.6455 35.903 54.6605 35.8727 54.6905 35.8448C54.7205 35.8168 54.7554 35.8028 54.7954 35.8028H55.1777C55.2527 35.8028 55.3151 35.8401 55.3651 35.9147L56.6394 38.1383L57.9211 35.9147C57.9611 35.8401 58.0236 35.8028 58.1085 35.8028H58.4833Z" fill="#206792"/>
<path d="M62.2884 39.5088C61.7737 39.5088 61.3615 39.3619 61.0516 39.0683C60.7468 38.7699 60.5794 38.3644 60.5494 37.8516L60.5419 37.6138L60.5494 37.3831C60.5844 36.8796 60.7543 36.4787 61.0591 36.1804C61.3689 35.882 61.7762 35.7329 62.2809 35.7329C62.8356 35.7329 63.2654 35.8984 63.5702 36.2293C63.875 36.5556 64.0274 36.9985 64.0274 37.5579V37.6768C64.0274 37.7234 64.0099 37.763 63.9749 37.7956C63.945 37.8236 63.905 37.8376 63.855 37.8376H61.2615V37.9005C61.2765 38.2035 61.3739 38.4622 61.5538 38.6767C61.7387 38.8865 61.9811 38.9913 62.2809 38.9913C62.5108 38.9913 62.6982 38.9494 62.8431 38.8655C62.993 38.7769 63.1029 38.686 63.1729 38.5928C63.2179 38.5368 63.2504 38.5042 63.2704 38.4949C63.2953 38.4809 63.3378 38.4739 63.3978 38.4739H63.7651C63.81 38.4739 63.8475 38.4856 63.8775 38.5089C63.9075 38.5322 63.9225 38.5648 63.9225 38.6068C63.9225 38.7093 63.8525 38.8328 63.7126 38.9774C63.5777 39.1219 63.3853 39.2477 63.1354 39.3549C62.8906 39.4575 62.6082 39.5088 62.2884 39.5088ZM63.3153 37.3551V37.3341C63.3153 37.0125 63.2204 36.7514 63.0305 36.551C62.8456 36.3459 62.5957 36.2433 62.2809 36.2433C61.9661 36.2433 61.7162 36.3459 61.5314 36.551C61.3515 36.7514 61.2615 37.0125 61.2615 37.3341V37.3551H63.3153Z" fill="#206792"/>
<path d="M66.078 40.7674C66.028 40.7674 65.9856 40.7511 65.9506 40.7185C65.9206 40.6905 65.9056 40.6532 65.9056 40.6066V35.9636C65.9056 35.917 65.9206 35.8797 65.9506 35.8517C65.9856 35.8191 66.028 35.8028 66.078 35.8028H66.4228C66.4728 35.8028 66.5128 35.8191 66.5427 35.8517C66.5777 35.8797 66.5952 35.917 66.5952 35.9636V36.2713C66.8751 35.9123 67.2848 35.7329 67.8245 35.7329C68.3492 35.7329 68.7415 35.8867 69.0013 36.1944C69.2662 36.502 69.4086 36.8983 69.4286 37.3831C69.4336 37.4344 69.4361 37.5136 69.4361 37.6208C69.4361 37.728 69.4336 37.8073 69.4286 37.8586C69.4086 38.3387 69.2662 38.735 69.0013 39.0473C68.7365 39.3549 68.3442 39.5088 67.8245 39.5088C67.3048 39.5088 66.9 39.334 66.6102 38.9844V40.6066C66.6102 40.6532 66.5952 40.6905 66.5652 40.7185C66.5353 40.7511 66.4953 40.7674 66.4453 40.7674H66.078ZM67.6671 38.9424C68.0219 38.9424 68.2792 38.8398 68.4392 38.6347C68.6041 38.4296 68.694 38.1592 68.709 37.8236C68.714 37.777 68.7165 37.7094 68.7165 37.6208C68.7165 36.7398 68.3667 36.2993 67.6671 36.2993C67.3223 36.2993 67.0624 36.4065 66.8875 36.6209C66.7176 36.8307 66.6252 37.0824 66.6102 37.3761L66.6027 37.6418L66.6102 37.9145C66.6202 38.1895 66.7151 38.4296 66.895 38.6347C67.0749 38.8398 67.3323 38.9424 67.6671 38.9424Z" fill="#206792"/>
<path d="M72.8969 39.5088C72.3822 39.5088 71.9699 39.3619 71.6601 39.0683C71.3553 38.7699 71.1879 38.3644 71.1579 37.8516L71.1504 37.6138L71.1579 37.3831C71.1928 36.8796 71.3628 36.4787 71.6676 36.1804C71.9774 35.882 72.3847 35.7329 72.8894 35.7329C73.4441 35.7329 73.8738 35.8984 74.1786 36.2293C74.4835 36.5556 74.6359 36.9985 74.6359 37.5579V37.6768C74.6359 37.7234 74.6184 37.763 74.5834 37.7956C74.5534 37.8236 74.5134 37.8376 74.4635 37.8376H71.87V37.9005C71.885 38.2035 71.9824 38.4622 72.1623 38.6767C72.3472 38.8865 72.5895 38.9913 72.8894 38.9913C73.1192 38.9913 73.3066 38.9494 73.4515 38.8655C73.6015 38.7769 73.7114 38.686 73.7814 38.5928C73.8263 38.5368 73.8588 38.5042 73.8788 38.4949C73.9038 38.4809 73.9463 38.4739 74.0062 38.4739H74.3735C74.4185 38.4739 74.456 38.4856 74.486 38.5089C74.5159 38.5322 74.5309 38.5648 74.5309 38.6068C74.5309 38.7093 74.461 38.8328 74.3211 38.9774C74.1861 39.1219 73.9937 39.2477 73.7439 39.3549C73.499 39.4575 73.2167 39.5088 72.8969 39.5088ZM73.9238 37.3551V37.3341C73.9238 37.0125 73.8288 36.7514 73.6389 36.551C73.454 36.3459 73.2042 36.2433 72.8894 36.2433C72.5746 36.2433 72.3247 36.3459 72.1398 36.551C71.9599 36.7514 71.87 37.0125 71.87 37.3341V37.3551H73.9238Z" fill="#206792"/>
<path d="M81.7311 39.2361C81.7511 39.2687 81.761 39.299 81.761 39.327C81.761 39.4016 81.7111 39.4389 81.6111 39.4389H81.1614C81.0814 39.4389 81.014 39.4039 80.959 39.334L79.8721 37.8656H79.295V39.278C79.295 39.3246 79.2775 39.3643 79.2425 39.3969C79.2125 39.4249 79.1725 39.4389 79.1226 39.4389H78.7778C78.7278 39.4389 78.6853 39.4249 78.6503 39.3969C78.6204 39.3643 78.6054 39.3246 78.6054 39.278V37.8656H78.0207L76.9338 39.334C76.8789 39.4039 76.8114 39.4389 76.7314 39.4389H76.2742C76.2292 39.4389 76.1917 39.4295 76.1618 39.4109C76.1368 39.3876 76.1243 39.3596 76.1243 39.327C76.1243 39.3037 76.1368 39.2734 76.1618 39.2361L77.4435 37.5369L76.3117 35.9986C76.2917 35.9753 76.2817 35.9473 76.2817 35.9147C76.2817 35.882 76.2942 35.8564 76.3192 35.8378C76.3492 35.8145 76.3866 35.8028 76.4316 35.8028H76.8214C76.8963 35.8028 76.9638 35.8378 77.0238 35.9077L78.0282 37.3062H78.6054V35.9636C78.6054 35.917 78.6204 35.8797 78.6503 35.8517C78.6853 35.8191 78.7278 35.8028 78.7778 35.8028H79.1226C79.1725 35.8028 79.2125 35.8191 79.2425 35.8517C79.2775 35.8797 79.295 35.917 79.295 35.9636V37.3062H79.8496L80.8691 35.9077C80.919 35.8378 80.984 35.8028 81.0639 35.8028H81.4612C81.5062 35.8028 81.5412 35.8145 81.5662 35.8378C81.5961 35.8564 81.6111 35.882 81.6111 35.9147C81.6111 35.938 81.5986 35.966 81.5737 35.9986L80.4493 37.5369L81.7311 39.2361Z" fill="#206792"/>
<path d="M84.5557 39.5088C84.3108 39.5088 84.0834 39.4622 83.8735 39.3689C83.6637 39.2757 83.4963 39.1498 83.3713 38.9913C83.2514 38.8282 83.1914 38.6487 83.1914 38.4529C83.1914 38.1453 83.3264 37.8935 83.5962 37.6977C83.871 37.4973 84.2408 37.3668 84.7056 37.3062L85.8224 37.1593V36.9565C85.8224 36.4811 85.5301 36.2433 84.9454 36.2433C84.7256 36.2433 84.5457 36.2876 84.4057 36.3762C84.2658 36.4601 84.1609 36.5603 84.0909 36.6768C84.0759 36.7188 84.0559 36.7491 84.031 36.7678C84.011 36.7864 83.981 36.7957 83.941 36.7957H83.6187C83.5737 36.7957 83.5337 36.7817 83.4988 36.7538C83.4688 36.7211 83.4538 36.6838 83.4538 36.6419C83.4588 36.53 83.5138 36.4041 83.6187 36.2643C83.7286 36.1198 83.896 35.9963 84.1209 35.8937C84.3458 35.7865 84.6231 35.7329 84.9529 35.7329C85.5126 35.7329 85.9149 35.8564 86.1597 36.1035C86.4046 36.3459 86.527 36.6489 86.527 37.0125V39.278C86.527 39.3246 86.5095 39.3643 86.4745 39.3969C86.4446 39.4249 86.4046 39.4389 86.3546 39.4389H86.0098C85.9598 39.4389 85.9174 39.4249 85.8824 39.3969C85.8524 39.3643 85.8374 39.3246 85.8374 39.278V38.9774C85.7275 39.1265 85.5676 39.2524 85.3577 39.3549C85.1478 39.4575 84.8805 39.5088 84.5557 39.5088ZM84.7131 38.9844C85.0379 38.9844 85.3027 38.8865 85.5076 38.6907C85.7175 38.4902 85.8224 38.2035 85.8224 37.8306V37.6348L84.9529 37.7537C84.5981 37.8003 84.3308 37.8795 84.1509 37.9914C83.971 38.0986 83.881 38.2362 83.881 38.404C83.881 38.5904 83.9635 38.735 84.1284 38.8375C84.2933 38.9354 84.4882 38.9844 84.7131 38.9844Z" fill="#206792"/>
<path d="M91.2034 39.4389C91.1534 39.4389 91.1109 39.4225 91.076 39.3899C91.041 39.3573 91.0235 39.3177 91.0235 39.271V39.0123C91.0235 38.9657 91.0385 38.9284 91.0685 38.9004C91.0985 38.8725 91.1359 38.8585 91.1809 38.8585C91.4208 38.8492 91.5982 38.6907 91.7131 38.383C91.833 38.0707 91.893 37.5626 91.893 36.8587V35.9636C91.893 35.917 91.908 35.8797 91.938 35.8517C91.9729 35.8191 92.0154 35.8028 92.0654 35.8028H94.449C94.499 35.8028 94.539 35.8191 94.569 35.8517C94.6039 35.8797 94.6214 35.917 94.6214 35.9636V39.278C94.6214 39.3246 94.6039 39.3643 94.569 39.3969C94.539 39.4249 94.499 39.4389 94.449 39.4389H94.0892C94.0393 39.4389 93.9993 39.4249 93.9693 39.3969C93.9393 39.3643 93.9243 39.3246 93.9243 39.278V36.3622H92.5751V36.9356C92.5751 37.8259 92.4652 38.4669 92.2453 38.8585C92.0254 39.2454 91.6781 39.4389 91.2034 39.4389Z" fill="#206792"/>
<path d="M98.3099 39.5088C97.7602 39.5088 97.333 39.3643 97.0281 39.0753C96.7283 38.7862 96.5684 38.4016 96.5484 37.9215L96.5409 37.6208L96.5484 37.3202C96.5684 36.8447 96.7308 36.4624 97.0356 36.1734C97.3404 35.8797 97.7652 35.7329 98.3099 35.7329C98.8546 35.7329 99.2793 35.8797 99.5842 36.1734C99.889 36.4624 100.051 36.8447 100.071 37.3202C100.076 37.3714 100.079 37.4717 100.079 37.6208C100.079 37.77 100.076 37.8702 100.071 37.9215C100.051 38.4016 99.889 38.7862 99.5842 39.0753C99.2843 39.3643 98.8596 39.5088 98.3099 39.5088ZM98.3099 38.9704C98.6247 38.9704 98.8721 38.8771 99.052 38.6907C99.2369 38.5042 99.3368 38.2362 99.3518 37.8865C99.3568 37.8399 99.3593 37.7514 99.3593 37.6208C99.3593 37.4903 99.3568 37.4017 99.3518 37.3551C99.3368 37.0055 99.2369 36.7375 99.052 36.551C98.8721 36.3645 98.6247 36.2713 98.3099 36.2713C97.9951 36.2713 97.7452 36.3645 97.5603 36.551C97.3754 36.7375 97.278 37.0055 97.268 37.3551L97.2605 37.6208L97.268 37.8865C97.278 38.2362 97.3754 38.5042 97.5603 38.6907C97.7452 38.8771 97.9951 38.9704 98.3099 38.9704Z" fill="#206792"/>
<path d="M105.83 35.8028C105.87 35.8028 105.905 35.8168 105.935 35.8448C105.965 35.8681 105.98 35.8984 105.98 35.9357V39.285C105.98 39.3316 105.965 39.3689 105.935 39.3969C105.905 39.4249 105.867 39.4389 105.822 39.4389H105.455C105.405 39.4389 105.365 39.4249 105.335 39.3969C105.305 39.3689 105.29 39.3316 105.29 39.285V36.9845L104.331 38.6767C104.296 38.7373 104.261 38.7839 104.226 38.8165C104.196 38.8445 104.148 38.8585 104.083 38.8585H103.888C103.828 38.8585 103.781 38.8445 103.746 38.8165C103.716 38.7886 103.681 38.7419 103.641 38.6767L102.689 37.0265V39.285C102.689 39.3316 102.674 39.3689 102.644 39.3969C102.614 39.4249 102.574 39.4389 102.524 39.4389H102.157C102.107 39.4389 102.067 39.4249 102.037 39.3969C102.007 39.3689 101.992 39.3316 101.992 39.285V35.9357C101.992 35.903 102.007 35.8727 102.037 35.8448C102.067 35.8168 102.102 35.8028 102.142 35.8028H102.524C102.599 35.8028 102.662 35.8401 102.712 35.9147L103.986 38.1383L105.268 35.9147C105.308 35.8401 105.37 35.8028 105.455 35.8028H105.83Z" fill="#206792"/>
<path d="M111.486 37.5369C111.491 37.5835 111.494 37.6581 111.494 37.7607C111.494 37.8492 111.491 37.9122 111.486 37.9495C111.466 38.4203 111.304 38.7979 110.999 39.0822C110.699 39.3666 110.274 39.5088 109.725 39.5088C109.16 39.5088 108.73 39.3596 108.436 39.0613C108.141 38.7629 107.983 38.3527 107.963 37.8306L107.956 37.4111L107.963 36.9915C107.968 36.3249 108.063 35.8261 108.248 35.4951C108.438 35.1595 108.705 34.9194 109.05 34.7749C109.4 34.6257 109.965 34.4556 110.744 34.2645L110.924 34.2225L110.962 34.2155C111.002 34.2155 111.037 34.2295 111.067 34.2575C111.101 34.2808 111.121 34.3087 111.126 34.3414L111.186 34.6281L111.194 34.67C111.194 34.7027 111.181 34.7306 111.156 34.7539C111.136 34.7772 111.106 34.7936 111.067 34.8029L110.692 34.8868C110.117 35.0173 109.705 35.1292 109.455 35.2224C109.205 35.3157 109.01 35.4625 108.87 35.6629C108.735 35.8587 108.66 36.1524 108.645 36.544C108.765 36.3762 108.935 36.241 109.155 36.1384C109.375 36.0312 109.607 35.9776 109.852 35.9776C110.357 35.9776 110.749 36.1221 111.029 36.4111C111.314 36.6955 111.466 37.0708 111.486 37.5369ZM110.767 37.9215C110.772 37.8889 110.774 37.8353 110.774 37.7607C110.774 37.6768 110.772 37.6138 110.767 37.5719C110.757 37.2316 110.662 36.9682 110.482 36.7817C110.307 36.5906 110.077 36.495 109.792 36.495C109.472 36.495 109.21 36.5906 109.005 36.7817C108.805 36.9682 108.698 37.2316 108.683 37.5719L108.675 37.7607L108.683 37.9215C108.698 38.2665 108.798 38.5322 108.983 38.7186C109.168 38.9004 109.415 38.9913 109.725 38.9913C110.04 38.9913 110.289 38.9004 110.474 38.7186C110.659 38.5322 110.757 38.2665 110.767 37.9215Z" fill="#206792"/>
<path d="M114.492 39.5088C114.248 39.5088 114.02 39.4622 113.81 39.3689C113.6 39.2757 113.433 39.1498 113.308 38.9913C113.188 38.8282 113.128 38.6487 113.128 38.4529C113.128 38.1453 113.263 37.8935 113.533 37.6977C113.808 37.4973 114.178 37.3668 114.642 37.3062L115.759 37.1593V36.9565C115.759 36.4811 115.467 36.2433 114.882 36.2433C114.662 36.2433 114.482 36.2876 114.343 36.3762C114.203 36.4601 114.098 36.5603 114.028 36.6768C114.013 36.7188 113.993 36.7491 113.968 36.7678C113.948 36.7864 113.918 36.7957 113.878 36.7957H113.555C113.511 36.7957 113.471 36.7817 113.436 36.7538C113.406 36.7211 113.391 36.6838 113.391 36.6419C113.396 36.53 113.451 36.4041 113.555 36.2643C113.665 36.1198 113.833 35.9963 114.058 35.8937C114.283 35.7865 114.56 35.7329 114.89 35.7329C115.449 35.7329 115.852 35.8564 116.097 36.1035C116.341 36.3459 116.464 36.6489 116.464 37.0125V39.278C116.464 39.3246 116.446 39.3643 116.411 39.3969C116.381 39.4249 116.341 39.4389 116.291 39.4389H115.947C115.897 39.4389 115.854 39.4249 115.819 39.3969C115.789 39.3643 115.774 39.3246 115.774 39.278V38.9774C115.664 39.1265 115.504 39.2524 115.294 39.3549C115.085 39.4575 114.817 39.5088 114.492 39.5088ZM114.65 38.9844C114.975 38.9844 115.24 38.8865 115.444 38.6907C115.654 38.4902 115.759 38.2035 115.759 37.8306V37.6348L114.89 37.7537C114.535 37.8003 114.268 37.8795 114.088 37.9914C113.908 38.0986 113.818 38.2362 113.818 38.404C113.818 38.5904 113.9 38.735 114.065 38.8375C114.23 38.9354 114.425 38.9844 114.65 38.9844Z" fill="#206792"/>
<path d="M118.696 40.7674C118.646 40.7674 118.603 40.7511 118.568 40.7185C118.538 40.6905 118.523 40.6532 118.523 40.6066V35.9636C118.523 35.917 118.538 35.8797 118.568 35.8517C118.603 35.8191 118.646 35.8028 118.696 35.8028H119.041C119.09 35.8028 119.13 35.8191 119.16 35.8517C119.195 35.8797 119.213 35.917 119.213 35.9636V36.2713C119.493 35.9123 119.903 35.7329 120.442 35.7329C120.967 35.7329 121.359 35.8867 121.619 36.1944C121.884 36.502 122.026 36.8983 122.046 37.3831C122.051 37.4344 122.054 37.5136 122.054 37.6208C122.054 37.728 122.051 37.8073 122.046 37.8586C122.026 38.3387 121.884 38.735 121.619 39.0473C121.354 39.3549 120.962 39.5088 120.442 39.5088C119.923 39.5088 119.518 39.334 119.228 38.9844V40.6066C119.228 40.6532 119.213 40.6905 119.183 40.7185C119.153 40.7511 119.113 40.7674 119.063 40.7674H118.696ZM120.285 38.9424C120.64 38.9424 120.897 38.8398 121.057 38.6347C121.222 38.4296 121.312 38.1592 121.327 37.8236C121.332 37.777 121.334 37.7094 121.334 37.6208C121.334 36.7398 120.984 36.2993 120.285 36.2993C119.94 36.2993 119.68 36.4065 119.505 36.6209C119.335 36.8307 119.243 37.0824 119.228 37.3761L119.22 37.6418L119.228 37.9145C119.238 38.1895 119.333 38.4296 119.513 38.6347C119.693 38.8398 119.95 38.9424 120.285 38.9424Z" fill="#206792"/>
<path d="M123.731 40.208C123.681 40.208 123.638 40.1917 123.603 40.1591C123.573 40.1311 123.558 40.0938 123.558 40.0472V39.0403C123.558 38.9937 123.573 38.9564 123.603 38.9284C123.638 38.8958 123.681 38.8795 123.731 38.8795H123.768C123.978 38.8748 124.135 38.7116 124.24 38.39C124.35 38.0683 124.405 37.5579 124.405 36.8587V35.9636C124.405 35.917 124.42 35.8797 124.45 35.8517C124.485 35.8191 124.528 35.8028 124.578 35.8028H126.969C127.019 35.8028 127.059 35.8191 127.089 35.8517C127.124 35.8797 127.141 35.917 127.141 35.9636V38.8655H127.493C127.543 38.8655 127.583 38.8818 127.613 38.9144C127.648 38.9424 127.666 38.9797 127.666 39.0263V40.0472C127.666 40.0938 127.648 40.1311 127.613 40.1591C127.583 40.1917 127.543 40.208 127.493 40.208H127.141C127.091 40.208 127.049 40.1917 127.014 40.1591C126.984 40.1311 126.969 40.0938 126.969 40.0472V39.4389H124.255V40.0472C124.255 40.0938 124.238 40.1311 124.203 40.1591C124.173 40.1917 124.133 40.208 124.083 40.208H123.731ZM126.444 38.8655V36.3622H125.087V36.9356C125.087 37.8679 124.945 38.5159 124.66 38.8795L126.444 38.8655Z" fill="#206792"/>
<path d="M129.537 35.1245C129.487 35.1245 129.444 35.1105 129.409 35.0826C129.379 35.0499 129.364 35.0103 129.364 34.9637V34.5861C129.364 34.5395 129.379 34.4999 129.409 34.4672C129.444 34.4346 129.487 34.4183 129.537 34.4183H130.009C130.059 34.4183 130.101 34.4346 130.136 34.4672C130.171 34.4999 130.189 34.5395 130.189 34.5861V34.9637C130.189 35.0103 130.171 35.0499 130.136 35.0826C130.101 35.1105 130.059 35.1245 130.009 35.1245H129.537ZM129.597 39.4389C129.547 39.4389 129.504 39.4249 129.469 39.3969C129.439 39.3643 129.424 39.3246 129.424 39.278V35.9636C129.424 35.917 129.439 35.8797 129.469 35.8517C129.504 35.8191 129.547 35.8028 129.597 35.8028H129.957C130.007 35.8028 130.047 35.8191 130.077 35.8517C130.111 35.8797 130.129 35.917 130.129 35.9636V39.278C130.129 39.3246 130.111 39.3643 130.077 39.3969C130.047 39.4249 130.007 39.4389 129.957 39.4389H129.597Z" fill="#206792"/>
<path d="M132.387 39.4389C132.337 39.4389 132.294 39.4249 132.259 39.3969C132.229 39.3643 132.214 39.3246 132.214 39.278V35.9636C132.214 35.917 132.229 35.8797 132.259 35.8517C132.294 35.8191 132.337 35.8028 132.387 35.8028H133.946C134.405 35.8028 134.755 35.8914 134.995 36.0685C135.24 36.241 135.362 36.4787 135.362 36.7817C135.362 36.9822 135.322 37.1383 135.242 37.2502C135.162 37.3574 135.04 37.4507 134.875 37.5299C135.055 37.5998 135.195 37.7164 135.295 37.8795C135.4 38.0427 135.452 38.2175 135.452 38.404C135.452 38.7396 135.325 38.996 135.07 39.1731C134.82 39.3503 134.465 39.4389 134.006 39.4389H132.387ZM133.901 37.3481C134.146 37.3481 134.338 37.2992 134.478 37.2013C134.618 37.1034 134.688 36.9659 134.688 36.7887C134.688 36.6162 134.62 36.495 134.485 36.4251C134.35 36.3505 134.156 36.3132 133.901 36.3132H132.904V37.3481H133.901ZM133.946 38.9284C134.196 38.9284 134.39 38.8841 134.53 38.7956C134.675 38.707 134.748 38.5765 134.748 38.404C134.748 38.2175 134.683 38.0823 134.553 37.9984C134.423 37.9098 134.221 37.8656 133.946 37.8656H132.904V38.9284H133.946Z" fill="#206792"/>
</svg>
