<svg width="136" height="47" viewBox="0 0 136 47" fill="none" xmlns="http://www.w3.org/2000/svg">
<path d="M48.4273 45.5495C33.3143 49.0745 26.5384 43.3656 24.1985 32.7582C21.5662 23.2476 23.4743 11.7484 25.172 8.03027C26.8504 8.57937 27.3184 28.0784 48.4273 45.5495Z" fill="#E96325"/>
<path d="M24.2735 41.288C11.1701 43.2847 0.207013 43.5717 0.00734304 38.5925C-0.441914 27.3579 19.8558 1.64104 24.5324 0C22.0054 12.6354 17.5159 20.0668 24.2735 41.288Z" fill="#21A5EF"/>
<path d="M55.8012 29.9509C55.6086 29.9509 55.4353 29.8835 55.2813 29.7487C55.1465 29.5947 55.0791 29.4214 55.0791 29.2288V10.4545C55.0791 10.2427 55.1465 10.0694 55.2813 9.93461C55.4353 9.79982 55.6086 9.73242 55.8012 9.73242H63.8886C66.3533 9.73242 68.2885 10.3005 69.6942 11.4365C71.1191 12.5726 71.8315 14.2286 71.8315 16.4045C71.8315 18.5611 71.1287 20.1883 69.723 21.2858C68.3174 22.3641 66.3726 22.9033 63.8886 22.9033H60.4514V29.2288C60.4514 29.4406 60.3744 29.6139 60.2204 29.7487C60.0856 29.8835 59.9123 29.9509 59.7005 29.9509H55.8012ZM63.7442 18.9174C64.5914 18.9174 65.2557 18.7056 65.7371 18.2819C66.2185 17.8391 66.4592 17.194 66.4592 16.3467C66.4592 15.5573 66.2281 14.9315 65.766 14.4693C65.3231 13.9879 64.6492 13.7472 63.7442 13.7472H60.3648V18.9174H63.7442Z" fill="#005182"/>
<path d="M78.4477 30.2397C77.4271 30.2397 76.4932 30.0472 75.646 29.662C74.818 29.2577 74.1633 28.7185 73.6819 28.0446C73.2198 27.3514 72.9887 26.5908 72.9887 25.7628C72.9887 24.4341 73.5278 23.3654 74.6062 22.5567C75.7037 21.748 77.2057 21.1896 79.112 20.8815L82.7224 20.3327V19.9283C82.7224 19.1966 82.5684 18.6574 82.2603 18.3108C81.9522 17.9642 81.4323 17.7909 80.7006 17.7909C80.2577 17.7909 79.8918 17.8679 79.603 18.022C79.3142 18.176 79.0157 18.3878 78.7076 18.6574C78.438 18.8885 78.2359 19.0425 78.1011 19.1196C78.0433 19.2736 77.9374 19.3506 77.7834 19.3506H74.635C74.4425 19.3506 74.2788 19.2929 74.144 19.1773C74.0285 19.0425 73.9804 18.8885 73.9996 18.7152C74.0189 18.1953 74.2692 17.6176 74.7506 16.9822C75.2512 16.3467 76.0022 15.798 77.0035 15.3358C78.024 14.8737 79.2757 14.6426 80.7584 14.6426C83.1268 14.6426 84.8791 15.1722 86.0152 16.2312C87.1512 17.271 87.7193 18.6767 87.7193 20.4482V29.2288C87.7193 29.4214 87.6519 29.5947 87.5171 29.7487C87.3823 29.8835 87.209 29.9509 86.9972 29.9509H83.6467C83.4541 29.9509 83.2808 29.8835 83.1268 29.7487C82.992 29.5947 82.9246 29.4214 82.9246 29.2288V28.2179C82.501 28.8148 81.9041 29.3058 81.1338 29.6909C80.3829 30.0568 79.4875 30.2397 78.4477 30.2397ZM79.8052 26.947C80.691 26.947 81.4034 26.6582 81.9426 26.0805C82.501 25.5028 82.7802 24.6556 82.7802 23.5387V23.1344L80.3251 23.5676C78.5921 23.8757 77.7256 24.4823 77.7256 25.3873C77.7256 25.8687 77.9278 26.2538 78.3321 26.5426C78.7365 26.8122 79.2275 26.947 79.8052 26.947Z" fill="#005182"/>
<path d="M91.7007 29.9509C91.4889 29.9509 91.3156 29.8835 91.1808 29.7487C91.046 29.6139 90.9786 29.4406 90.9786 29.2288V15.6535C90.9786 15.4417 91.046 15.2684 91.1808 15.1336C91.3156 14.9988 91.4889 14.9315 91.7007 14.9315H95.0223C95.2341 14.9315 95.4074 15.0085 95.5422 15.1625C95.6962 15.2973 95.7733 15.461 95.7733 15.6535V16.8089C96.8323 15.5573 98.2572 14.9315 100.048 14.9315H101.319C101.531 14.9315 101.704 14.9988 101.839 15.1336C101.974 15.2684 102.041 15.4417 102.041 15.6535V18.6285C102.041 18.8211 101.974 18.9944 101.839 19.1484C101.704 19.2832 101.531 19.3506 101.319 19.3506H98.5172C97.7277 19.3506 97.1115 19.5721 96.6687 20.015C96.245 20.4386 96.0332 21.0451 96.0332 21.8346V29.2288C96.0332 29.4406 95.9562 29.6139 95.8021 29.7487C95.6674 29.8835 95.4941 29.9509 95.2822 29.9509H91.7007Z" fill="#005182"/>
<path d="M109.611 30.2397C107.917 30.2397 106.55 29.6717 105.51 28.5356C104.47 27.3802 103.95 25.7724 103.95 23.712V15.6535C103.95 15.4417 104.018 15.2684 104.152 15.1336C104.287 14.9988 104.461 14.9315 104.672 14.9315H108.283C108.495 14.9315 108.668 14.9988 108.803 15.1336C108.957 15.2684 109.034 15.4417 109.034 15.6535V23.5387C109.034 25.4258 109.871 26.3693 111.547 26.3693C112.355 26.3693 112.991 26.119 113.453 25.6184C113.915 25.1177 114.146 24.4245 114.146 23.5387V15.6535C114.146 15.4417 114.214 15.2684 114.348 15.1336C114.502 14.9988 114.676 14.9315 114.868 14.9315H118.479C118.69 14.9315 118.864 14.9988 118.999 15.1336C119.133 15.2684 119.201 15.4417 119.201 15.6535V29.2288C119.201 29.4214 119.133 29.5947 118.999 29.7487C118.864 29.8835 118.69 29.9509 118.479 29.9509H115.128C114.936 29.9509 114.762 29.8835 114.608 29.7487C114.473 29.5947 114.406 29.4214 114.406 29.2288V28.1312C113.405 29.5369 111.807 30.2397 109.611 30.2397Z" fill="#005182"/>
<path d="M128.779 30.2397C127.22 30.2397 125.91 30.0183 124.851 29.5754C123.811 29.1325 123.041 28.603 122.54 27.9868C122.04 27.3706 121.789 26.8218 121.789 26.3404C121.789 26.1479 121.857 25.9938 121.992 25.8783C122.146 25.7435 122.309 25.6761 122.483 25.6761H125.775C125.891 25.6761 125.997 25.7243 126.093 25.8205C126.324 25.9746 126.497 26.0997 126.613 26.196C127.037 26.5041 127.402 26.7352 127.711 26.8892C128.038 27.024 128.433 27.0914 128.895 27.0914C129.453 27.0914 129.906 26.9855 130.252 26.7737C130.618 26.5426 130.801 26.2249 130.801 25.8205C130.801 25.4932 130.705 25.2332 130.512 25.0407C130.339 24.8481 129.992 24.6652 129.472 24.4919C128.953 24.2993 128.163 24.0972 127.104 23.8853C125.506 23.558 124.273 23.0285 123.407 22.2968C122.56 21.5458 122.136 20.5445 122.136 19.2929C122.136 18.5034 122.386 17.7524 122.887 17.04C123.388 16.3275 124.129 15.7498 125.111 15.3069C126.112 14.8641 127.297 14.6426 128.664 14.6426C130.031 14.6426 131.225 14.8544 132.245 15.2781C133.266 15.7017 134.036 16.2216 134.556 16.8378C135.095 17.4347 135.365 17.9835 135.365 18.4841C135.365 18.6574 135.297 18.8115 135.162 18.9463C135.047 19.0811 134.903 19.1484 134.729 19.1484H131.725C131.571 19.1484 131.427 19.1003 131.292 19.004C131.042 18.8692 130.82 18.7248 130.628 18.5708C130.3 18.3205 129.992 18.1279 129.703 17.9931C129.415 17.8583 129.058 17.7909 128.635 17.7909C128.134 17.7909 127.73 17.9065 127.422 18.1375C127.133 18.3686 126.988 18.6671 126.988 19.0329C126.988 19.3217 127.065 19.5624 127.22 19.755C127.393 19.9476 127.739 20.1401 128.259 20.3327C128.798 20.506 129.588 20.6889 130.628 20.8815C132.496 21.2088 133.853 21.7865 134.7 22.6145C135.567 23.4425 136 24.4149 136 25.5317C136 26.9566 135.365 28.1023 134.094 28.9688C132.823 29.8161 131.051 30.2397 128.779 30.2397Z" fill="#005182"/>
<path d="M58.4833 35.8031C58.5233 35.8031 58.5583 35.8171 58.5882 35.8451C58.6182 35.8684 58.6332 35.8987 58.6332 35.936V39.2853C58.6332 39.3319 58.6182 39.3692 58.5882 39.3972C58.5583 39.4252 58.5208 39.4392 58.4758 39.4392H58.1085C58.0585 39.4392 58.0186 39.4252 57.9886 39.3972C57.9586 39.3692 57.9436 39.3319 57.9436 39.2853V36.9848L56.9842 38.677C56.9492 38.7376 56.9142 38.7842 56.8792 38.8168C56.8492 38.8448 56.8018 38.8588 56.7368 38.8588H56.5419C56.482 38.8588 56.4345 38.8448 56.3995 38.8168C56.3695 38.7889 56.3345 38.7423 56.2946 38.677L55.3426 37.0268V39.2853C55.3426 39.3319 55.3276 39.3692 55.2976 39.3972C55.2677 39.4252 55.2277 39.4392 55.1777 39.4392H54.8104C54.7604 39.4392 54.7205 39.4252 54.6905 39.3972C54.6605 39.3692 54.6455 39.3319 54.6455 39.2853V35.936C54.6455 35.9033 54.6605 35.873 54.6905 35.8451C54.7205 35.8171 54.7554 35.8031 54.7954 35.8031H55.1777C55.2527 35.8031 55.3151 35.8404 55.3651 35.915L56.6394 38.1386L57.9211 35.915C57.9611 35.8404 58.0236 35.8031 58.1085 35.8031H58.4833Z" fill="#206792"/>
<path d="M62.2884 39.5091C61.7737 39.5091 61.3615 39.3622 61.0516 39.0686C60.7468 38.7702 60.5794 38.3647 60.5494 37.8519L60.5419 37.6141L60.5494 37.3834C60.5844 36.8799 60.7543 36.479 61.0591 36.1807C61.3689 35.8823 61.7762 35.7332 62.2809 35.7332C62.8356 35.7332 63.2654 35.8987 63.5702 36.2296C63.875 36.556 64.0274 36.9988 64.0274 37.5582V37.6771C64.0274 37.7237 64.0099 37.7633 63.9749 37.7959C63.945 37.8239 63.905 37.8379 63.855 37.8379H61.2615V37.9008C61.2765 38.2038 61.3739 38.4626 61.5538 38.677C61.7387 38.8868 61.9811 38.9916 62.2809 38.9916C62.5108 38.9916 62.6982 38.9497 62.8431 38.8658C62.993 38.7772 63.1029 38.6863 63.1729 38.5931C63.2179 38.5371 63.2504 38.5045 63.2704 38.4952C63.2953 38.4812 63.3378 38.4742 63.3978 38.4742H63.7651C63.81 38.4742 63.8475 38.4859 63.8775 38.5092C63.9075 38.5325 63.9225 38.5651 63.9225 38.6071C63.9225 38.7096 63.8525 38.8332 63.7126 38.9777C63.5777 39.1222 63.3853 39.248 63.1354 39.3553C62.8906 39.4578 62.6082 39.5091 62.2884 39.5091ZM63.3153 37.3554V37.3344C63.3153 37.0128 63.2204 36.7517 63.0305 36.5513C62.8456 36.3462 62.5957 36.2436 62.2809 36.2436C61.9661 36.2436 61.7162 36.3462 61.5314 36.5513C61.3515 36.7517 61.2615 37.0128 61.2615 37.3344V37.3554H63.3153Z" fill="#206792"/>
<path d="M66.078 40.7677C66.028 40.7677 65.9856 40.7514 65.9506 40.7188C65.9206 40.6908 65.9056 40.6535 65.9056 40.6069V35.9639C65.9056 35.9173 65.9206 35.88 65.9506 35.852C65.9856 35.8194 66.028 35.8031 66.078 35.8031H66.4228C66.4728 35.8031 66.5128 35.8194 66.5427 35.852C66.5777 35.88 66.5952 35.9173 66.5952 35.9639V36.2716C66.8751 35.9126 67.2848 35.7332 67.8245 35.7332C68.3492 35.7332 68.7415 35.887 69.0013 36.1947C69.2662 36.5023 69.4086 36.8986 69.4286 37.3834C69.4336 37.4347 69.4361 37.5139 69.4361 37.6211C69.4361 37.7283 69.4336 37.8076 69.4286 37.8589C69.4086 38.339 69.2662 38.7353 69.0013 39.0476C68.7365 39.3553 68.3442 39.5091 67.8245 39.5091C67.3048 39.5091 66.9 39.3343 66.6102 38.9847V40.6069C66.6102 40.6535 66.5952 40.6908 66.5652 40.7188C66.5353 40.7514 66.4953 40.7677 66.4453 40.7677H66.078ZM67.6671 38.9427C68.0219 38.9427 68.2792 38.8401 68.4392 38.635C68.6041 38.4299 68.694 38.1595 68.709 37.8239C68.714 37.7773 68.7165 37.7097 68.7165 37.6211C68.7165 36.7401 68.3667 36.2996 67.6671 36.2996C67.3223 36.2996 67.0624 36.4068 66.8875 36.6212C66.7176 36.831 66.6252 37.0827 66.6102 37.3764L66.6027 37.6421L66.6102 37.9148C66.6202 38.1898 66.7151 38.4299 66.895 38.635C67.0749 38.8401 67.3323 38.9427 67.6671 38.9427Z" fill="#206792"/>
<path d="M72.8969 39.5091C72.3822 39.5091 71.9699 39.3622 71.6601 39.0686C71.3553 38.7702 71.1879 38.3647 71.1579 37.8519L71.1504 37.6141L71.1579 37.3834C71.1928 36.8799 71.3628 36.479 71.6676 36.1807C71.9774 35.8823 72.3847 35.7332 72.8894 35.7332C73.4441 35.7332 73.8738 35.8987 74.1786 36.2296C74.4835 36.556 74.6359 36.9988 74.6359 37.5582V37.6771C74.6359 37.7237 74.6184 37.7633 74.5834 37.7959C74.5534 37.8239 74.5134 37.8379 74.4635 37.8379H71.87V37.9008C71.885 38.2038 71.9824 38.4626 72.1623 38.677C72.3472 38.8868 72.5895 38.9916 72.8894 38.9916C73.1192 38.9916 73.3066 38.9497 73.4515 38.8658C73.6015 38.7772 73.7114 38.6863 73.7814 38.5931C73.8263 38.5371 73.8588 38.5045 73.8788 38.4952C73.9038 38.4812 73.9463 38.4742 74.0062 38.4742H74.3735C74.4185 38.4742 74.456 38.4859 74.486 38.5092C74.5159 38.5325 74.5309 38.5651 74.5309 38.6071C74.5309 38.7096 74.461 38.8332 74.3211 38.9777C74.1861 39.1222 73.9937 39.248 73.7439 39.3553C73.499 39.4578 73.2167 39.5091 72.8969 39.5091ZM73.9238 37.3554V37.3344C73.9238 37.0128 73.8288 36.7517 73.6389 36.5513C73.454 36.3462 73.2042 36.2436 72.8894 36.2436C72.5746 36.2436 72.3247 36.3462 72.1398 36.5513C71.9599 36.7517 71.87 37.0128 71.87 37.3344V37.3554H73.9238Z" fill="#206792"/>
<path d="M81.7311 39.2364C81.7511 39.269 81.761 39.2993 81.761 39.3273C81.761 39.4019 81.7111 39.4392 81.6111 39.4392H81.1614C81.0814 39.4392 81.014 39.4042 80.959 39.3343L79.8721 37.8659H79.295V39.2783C79.295 39.325 79.2775 39.3646 79.2425 39.3972C79.2125 39.4252 79.1725 39.4392 79.1226 39.4392H78.7778C78.7278 39.4392 78.6853 39.4252 78.6503 39.3972C78.6204 39.3646 78.6054 39.325 78.6054 39.2783V37.8659H78.0207L76.9338 39.3343C76.8789 39.4042 76.8114 39.4392 76.7314 39.4392H76.2742C76.2292 39.4392 76.1917 39.4298 76.1618 39.4112C76.1368 39.3879 76.1243 39.3599 76.1243 39.3273C76.1243 39.304 76.1368 39.2737 76.1618 39.2364L77.4435 37.5372L76.3117 35.9989C76.2917 35.9756 76.2817 35.9476 76.2817 35.915C76.2817 35.8823 76.2942 35.8567 76.3192 35.8381C76.3492 35.8148 76.3866 35.8031 76.4316 35.8031H76.8214C76.8963 35.8031 76.9638 35.8381 77.0238 35.908L78.0282 37.3065H78.6054V35.9639C78.6054 35.9173 78.6204 35.88 78.6503 35.852C78.6853 35.8194 78.7278 35.8031 78.7778 35.8031H79.1226C79.1725 35.8031 79.2125 35.8194 79.2425 35.852C79.2775 35.88 79.295 35.9173 79.295 35.9639V37.3065H79.8496L80.8691 35.908C80.919 35.8381 80.984 35.8031 81.0639 35.8031H81.4612C81.5062 35.8031 81.5412 35.8148 81.5662 35.8381C81.5961 35.8567 81.6111 35.8823 81.6111 35.915C81.6111 35.9383 81.5986 35.9663 81.5737 35.9989L80.4493 37.5372L81.7311 39.2364Z" fill="#206792"/>
<path d="M84.5557 39.5091C84.3108 39.5091 84.0834 39.4625 83.8735 39.3692C83.6637 39.276 83.4963 39.1501 83.3713 38.9916C83.2514 38.8285 83.1914 38.649 83.1914 38.4532C83.1914 38.1456 83.3264 37.8938 83.5962 37.698C83.871 37.4976 84.2408 37.3671 84.7056 37.3065L85.8224 37.1596V36.9569C85.8224 36.4814 85.5301 36.2436 84.9454 36.2436C84.7256 36.2436 84.5457 36.2879 84.4057 36.3765C84.2658 36.4604 84.1609 36.5606 84.0909 36.6772C84.0759 36.7191 84.0559 36.7494 84.031 36.7681C84.011 36.7867 83.981 36.796 83.941 36.796H83.6187C83.5737 36.796 83.5337 36.782 83.4988 36.7541C83.4688 36.7214 83.4538 36.6841 83.4538 36.6422C83.4588 36.5303 83.5138 36.4044 83.6187 36.2646C83.7286 36.1201 83.896 35.9966 84.1209 35.894C84.3458 35.7868 84.6231 35.7332 84.9529 35.7332C85.5126 35.7332 85.9149 35.8567 86.1597 36.1038C86.4046 36.3462 86.527 36.6492 86.527 37.0128V39.2783C86.527 39.325 86.5095 39.3646 86.4745 39.3972C86.4446 39.4252 86.4046 39.4392 86.3546 39.4392H86.0098C85.9598 39.4392 85.9174 39.4252 85.8824 39.3972C85.8524 39.3646 85.8374 39.325 85.8374 39.2783V38.9777C85.7275 39.1268 85.5676 39.2527 85.3577 39.3553C85.1478 39.4578 84.8805 39.5091 84.5557 39.5091ZM84.7131 38.9847C85.0379 38.9847 85.3027 38.8868 85.5076 38.691C85.7175 38.4905 85.8224 38.2038 85.8224 37.8309V37.6351L84.9529 37.754C84.5981 37.8006 84.3308 37.8799 84.1509 37.9917C83.971 38.0989 83.881 38.2365 83.881 38.4043C83.881 38.5907 83.9635 38.7353 84.1284 38.8378C84.2933 38.9357 84.4882 38.9847 84.7131 38.9847Z" fill="#206792"/>
<path d="M91.2034 39.4392C91.1534 39.4392 91.1109 39.4228 91.076 39.3902C91.041 39.3576 91.0235 39.318 91.0235 39.2713V39.0126C91.0235 38.966 91.0385 38.9287 91.0685 38.9007C91.0985 38.8728 91.1359 38.8588 91.1809 38.8588C91.4208 38.8495 91.5982 38.691 91.7131 38.3833C91.833 38.071 91.893 37.5629 91.893 36.859V35.9639C91.893 35.9173 91.908 35.88 91.938 35.852C91.9729 35.8194 92.0154 35.8031 92.0654 35.8031H94.449C94.499 35.8031 94.539 35.8194 94.569 35.852C94.6039 35.88 94.6214 35.9173 94.6214 35.9639V39.2783C94.6214 39.325 94.6039 39.3646 94.569 39.3972C94.539 39.4252 94.499 39.4392 94.449 39.4392H94.0892C94.0393 39.4392 93.9993 39.4252 93.9693 39.3972C93.9393 39.3646 93.9243 39.325 93.9243 39.2783V36.3625H92.5751V36.9359C92.5751 37.8262 92.4652 38.4672 92.2453 38.8588C92.0254 39.2457 91.6781 39.4392 91.2034 39.4392Z" fill="#206792"/>
<path d="M98.3099 39.5091C97.7602 39.5091 97.333 39.3646 97.0281 39.0756C96.7283 38.7865 96.5684 38.402 96.5484 37.9218L96.5409 37.6211L96.5484 37.3205C96.5684 36.845 96.7308 36.4627 97.0356 36.1737C97.3404 35.88 97.7652 35.7332 98.3099 35.7332C98.8546 35.7332 99.2793 35.88 99.5842 36.1737C99.889 36.4627 100.051 36.845 100.071 37.3205C100.076 37.3717 100.079 37.472 100.079 37.6211C100.079 37.7703 100.076 37.8705 100.071 37.9218C100.051 38.402 99.889 38.7865 99.5842 39.0756C99.2843 39.3646 98.8596 39.5091 98.3099 39.5091ZM98.3099 38.9707C98.6247 38.9707 98.8721 38.8774 99.052 38.691C99.2369 38.5045 99.3368 38.2365 99.3518 37.8868C99.3568 37.8402 99.3593 37.7517 99.3593 37.6211C99.3593 37.4906 99.3568 37.402 99.3518 37.3554C99.3368 37.0058 99.2369 36.7378 99.052 36.5513C98.8721 36.3648 98.6247 36.2716 98.3099 36.2716C97.9951 36.2716 97.7452 36.3648 97.5603 36.5513C97.3754 36.7378 97.278 37.0058 97.268 37.3554L97.2605 37.6211L97.268 37.8868C97.278 38.2365 97.3754 38.5045 97.5603 38.691C97.7452 38.8774 97.9951 38.9707 98.3099 38.9707Z" fill="#206792"/>
<path d="M105.83 35.8031C105.87 35.8031 105.905 35.8171 105.935 35.8451C105.965 35.8684 105.98 35.8987 105.98 35.936V39.2853C105.98 39.3319 105.965 39.3692 105.935 39.3972C105.905 39.4252 105.867 39.4392 105.822 39.4392H105.455C105.405 39.4392 105.365 39.4252 105.335 39.3972C105.305 39.3692 105.29 39.3319 105.29 39.2853V36.9848L104.331 38.677C104.296 38.7376 104.261 38.7842 104.226 38.8168C104.196 38.8448 104.148 38.8588 104.083 38.8588H103.888C103.828 38.8588 103.781 38.8448 103.746 38.8168C103.716 38.7889 103.681 38.7423 103.641 38.677L102.689 37.0268V39.2853C102.689 39.3319 102.674 39.3692 102.644 39.3972C102.614 39.4252 102.574 39.4392 102.524 39.4392H102.157C102.107 39.4392 102.067 39.4252 102.037 39.3972C102.007 39.3692 101.992 39.3319 101.992 39.2853V35.936C101.992 35.9033 102.007 35.873 102.037 35.8451C102.067 35.8171 102.102 35.8031 102.142 35.8031H102.524C102.599 35.8031 102.662 35.8404 102.712 35.915L103.986 38.1386L105.268 35.915C105.308 35.8404 105.37 35.8031 105.455 35.8031H105.83Z" fill="#206792"/>
<path d="M111.486 37.5372C111.491 37.5838 111.494 37.6584 111.494 37.761C111.494 37.8496 111.491 37.9125 111.486 37.9498C111.466 38.4206 111.304 38.7982 110.999 39.0825C110.699 39.3669 110.274 39.5091 109.725 39.5091C109.16 39.5091 108.73 39.3599 108.436 39.0616C108.141 38.7632 107.983 38.353 107.963 37.8309L107.956 37.4114L107.963 36.9918C107.968 36.3252 108.063 35.8264 108.248 35.4954C108.438 35.1598 108.705 34.9197 109.05 34.7752C109.4 34.626 109.965 34.4559 110.744 34.2648L110.924 34.2228L110.962 34.2158C111.002 34.2158 111.037 34.2298 111.067 34.2578C111.101 34.2811 111.121 34.3091 111.126 34.3417L111.186 34.6284L111.194 34.6703C111.194 34.703 111.181 34.7309 111.156 34.7542C111.136 34.7775 111.106 34.7939 111.067 34.8032L110.692 34.8871C110.117 35.0176 109.705 35.1295 109.455 35.2227C109.205 35.316 109.01 35.4628 108.87 35.6633C108.735 35.859 108.66 36.1527 108.645 36.5443C108.765 36.3765 108.935 36.2413 109.155 36.1387C109.375 36.0315 109.607 35.9779 109.852 35.9779C110.357 35.9779 110.749 36.1224 111.029 36.4114C111.314 36.6958 111.466 37.0711 111.486 37.5372ZM110.767 37.9218C110.772 37.8892 110.774 37.8356 110.774 37.761C110.774 37.6771 110.772 37.6141 110.767 37.5722C110.757 37.2319 110.662 36.9685 110.482 36.782C110.307 36.5909 110.077 36.4954 109.792 36.4954C109.472 36.4954 109.21 36.5909 109.005 36.782C108.805 36.9685 108.698 37.2319 108.683 37.5722L108.675 37.761L108.683 37.9218C108.698 38.2668 108.798 38.5325 108.983 38.7189C109.168 38.9007 109.415 38.9916 109.725 38.9916C110.04 38.9916 110.289 38.9007 110.474 38.7189C110.659 38.5325 110.757 38.2668 110.767 37.9218Z" fill="#206792"/>
<path d="M114.492 39.5091C114.248 39.5091 114.02 39.4625 113.81 39.3692C113.6 39.276 113.433 39.1501 113.308 38.9916C113.188 38.8285 113.128 38.649 113.128 38.4532C113.128 38.1456 113.263 37.8938 113.533 37.698C113.808 37.4976 114.178 37.3671 114.642 37.3065L115.759 37.1596V36.9569C115.759 36.4814 115.467 36.2436 114.882 36.2436C114.662 36.2436 114.482 36.2879 114.343 36.3765C114.203 36.4604 114.098 36.5606 114.028 36.6772C114.013 36.7191 113.993 36.7494 113.968 36.7681C113.948 36.7867 113.918 36.796 113.878 36.796H113.555C113.511 36.796 113.471 36.782 113.436 36.7541C113.406 36.7214 113.391 36.6841 113.391 36.6422C113.396 36.5303 113.451 36.4044 113.555 36.2646C113.665 36.1201 113.833 35.9966 114.058 35.894C114.283 35.7868 114.56 35.7332 114.89 35.7332C115.449 35.7332 115.852 35.8567 116.097 36.1038C116.341 36.3462 116.464 36.6492 116.464 37.0128V39.2783C116.464 39.325 116.446 39.3646 116.411 39.3972C116.381 39.4252 116.341 39.4392 116.291 39.4392H115.947C115.897 39.4392 115.854 39.4252 115.819 39.3972C115.789 39.3646 115.774 39.325 115.774 39.2783V38.9777C115.664 39.1268 115.504 39.2527 115.294 39.3553C115.085 39.4578 114.817 39.5091 114.492 39.5091ZM114.65 38.9847C114.975 38.9847 115.24 38.8868 115.444 38.691C115.654 38.4905 115.759 38.2038 115.759 37.8309V37.6351L114.89 37.754C114.535 37.8006 114.268 37.8799 114.088 37.9917C113.908 38.0989 113.818 38.2365 113.818 38.4043C113.818 38.5907 113.9 38.7353 114.065 38.8378C114.23 38.9357 114.425 38.9847 114.65 38.9847Z" fill="#206792"/>
<path d="M118.696 40.7677C118.646 40.7677 118.603 40.7514 118.568 40.7188C118.538 40.6908 118.523 40.6535 118.523 40.6069V35.9639C118.523 35.9173 118.538 35.88 118.568 35.852C118.603 35.8194 118.646 35.8031 118.696 35.8031H119.041C119.09 35.8031 119.13 35.8194 119.16 35.852C119.195 35.88 119.213 35.9173 119.213 35.9639V36.2716C119.493 35.9126 119.903 35.7332 120.442 35.7332C120.967 35.7332 121.359 35.887 121.619 36.1947C121.884 36.5023 122.026 36.8986 122.046 37.3834C122.051 37.4347 122.054 37.5139 122.054 37.6211C122.054 37.7283 122.051 37.8076 122.046 37.8589C122.026 38.339 121.884 38.7353 121.619 39.0476C121.354 39.3553 120.962 39.5091 120.442 39.5091C119.923 39.5091 119.518 39.3343 119.228 38.9847V40.6069C119.228 40.6535 119.213 40.6908 119.183 40.7188C119.153 40.7514 119.113 40.7677 119.063 40.7677H118.696ZM120.285 38.9427C120.64 38.9427 120.897 38.8401 121.057 38.635C121.222 38.4299 121.312 38.1595 121.327 37.8239C121.332 37.7773 121.334 37.7097 121.334 37.6211C121.334 36.7401 120.984 36.2996 120.285 36.2996C119.94 36.2996 119.68 36.4068 119.505 36.6212C119.335 36.831 119.243 37.0827 119.228 37.3764L119.22 37.6421L119.228 37.9148C119.238 38.1898 119.333 38.4299 119.513 38.635C119.693 38.8401 119.95 38.9427 120.285 38.9427Z" fill="#206792"/>
<path d="M123.731 40.2083C123.681 40.2083 123.638 40.192 123.603 40.1594C123.573 40.1314 123.558 40.0941 123.558 40.0475V39.0406C123.558 38.994 123.573 38.9567 123.603 38.9287C123.638 38.8961 123.681 38.8798 123.731 38.8798H123.768C123.978 38.8751 124.135 38.712 124.24 38.3903C124.35 38.0686 124.405 37.5582 124.405 36.859V35.9639C124.405 35.9173 124.42 35.88 124.45 35.852C124.485 35.8194 124.528 35.8031 124.578 35.8031H126.969C127.019 35.8031 127.059 35.8194 127.089 35.852C127.124 35.88 127.141 35.9173 127.141 35.9639V38.8658H127.493C127.543 38.8658 127.583 38.8821 127.613 38.9147C127.648 38.9427 127.666 38.98 127.666 39.0266V40.0475C127.666 40.0941 127.648 40.1314 127.613 40.1594C127.583 40.192 127.543 40.2083 127.493 40.2083H127.141C127.091 40.2083 127.049 40.192 127.014 40.1594C126.984 40.1314 126.969 40.0941 126.969 40.0475V39.4392H124.255V40.0475C124.255 40.0941 124.238 40.1314 124.203 40.1594C124.173 40.192 124.133 40.2083 124.083 40.2083H123.731ZM126.444 38.8658V36.3625H125.087V36.9359C125.087 37.8682 124.945 38.5162 124.66 38.8798L126.444 38.8658Z" fill="#206792"/>
<path d="M129.537 35.1248C129.487 35.1248 129.444 35.1109 129.409 35.0829C129.379 35.0502 129.364 35.0106 129.364 34.964V34.5864C129.364 34.5398 129.379 34.5002 129.409 34.4675C129.444 34.4349 129.487 34.4186 129.537 34.4186H130.009C130.059 34.4186 130.101 34.4349 130.136 34.4675C130.171 34.5002 130.189 34.5398 130.189 34.5864V34.964C130.189 35.0106 130.171 35.0502 130.136 35.0829C130.101 35.1109 130.059 35.1248 130.009 35.1248H129.537ZM129.597 39.4392C129.547 39.4392 129.504 39.4252 129.469 39.3972C129.439 39.3646 129.424 39.325 129.424 39.2783V35.9639C129.424 35.9173 129.439 35.88 129.469 35.852C129.504 35.8194 129.547 35.8031 129.597 35.8031H129.957C130.007 35.8031 130.047 35.8194 130.077 35.852C130.111 35.88 130.129 35.9173 130.129 35.9639V39.2783C130.129 39.325 130.111 39.3646 130.077 39.3972C130.047 39.4252 130.007 39.4392 129.957 39.4392H129.597Z" fill="#206792"/>
<path d="M132.387 39.4392C132.337 39.4392 132.294 39.4252 132.259 39.3972C132.229 39.3646 132.214 39.325 132.214 39.2783V35.9639C132.214 35.9173 132.229 35.88 132.259 35.852C132.294 35.8194 132.337 35.8031 132.387 35.8031H133.946C134.405 35.8031 134.755 35.8917 134.995 36.0688C135.24 36.2413 135.362 36.479 135.362 36.782C135.362 36.9825 135.322 37.1387 135.242 37.2505C135.162 37.3578 135.04 37.451 134.875 37.5302C135.055 37.6002 135.195 37.7167 135.295 37.8799C135.4 38.043 135.452 38.2178 135.452 38.4043C135.452 38.7399 135.325 38.9963 135.07 39.1735C134.82 39.3506 134.465 39.4392 134.006 39.4392H132.387ZM133.901 37.3484C134.146 37.3484 134.338 37.2995 134.478 37.2016C134.618 37.1037 134.688 36.9662 134.688 36.789C134.688 36.6166 134.62 36.4954 134.485 36.4254C134.35 36.3508 134.156 36.3135 133.901 36.3135H132.904V37.3484H133.901ZM133.946 38.9287C134.196 38.9287 134.39 38.8844 134.53 38.7959C134.675 38.7073 134.748 38.5768 134.748 38.4043C134.748 38.2178 134.683 38.0826 134.553 37.9987C134.423 37.9102 134.221 37.8659 133.946 37.8659H132.904V38.9287H133.946Z" fill="#206792"/>
</svg>
