<svg width="56" height="32" viewBox="0 0 56 32" fill="none" xmlns="http://www.w3.org/2000/svg">
<path d="M37.3333 0V32H29.3347V0H37.3333ZM13.3373 2.65967C20.7013 2.65967 26.6747 8.63225 26.6747 15.9953C26.6747 23.3584 20.7013 29.331 13.3373 29.331C5.97333 29.331 0 23.3584 0 15.9953C0 8.63225 5.97333 2.65967 13.3373 2.65967ZM45.6587 7.99767L48.0013 10.34L50.344 7.99767H56V13.653L53.6573 15.9953L56 18.3377V23.993H50.344L48.0013 21.6506L45.6587 23.993H40.0027V18.3377L42.3453 15.9953L40.0027 13.653V7.99767H45.6587ZM13.3373 10.6667C10.3973 10.6667 8.008 13.0557 8.008 15.9953C8.008 18.935 10.3973 21.324 13.3373 21.324C16.2773 21.324 18.6667 18.935 18.6667 15.9953C18.6667 13.0557 16.2773 10.6667 13.3373 10.6667Z" fill="#005182"/>
</svg>
