<svg width="214" height="105" viewBox="0 0 214 105" fill="none" xmlns="http://www.w3.org/2000/svg">
<g filter="url(#filter0_d)">
<path d="M4 74C4 82.2843 10.7157 89 19 89H183C191.284 89 198 82.2843 198 74V23.3677C198 18.259 193.859 14.1176 188.75 14.1176H179.455C175.664 14.1176 172.29 11.7153 171.049 8.13323L170.91 7.73178C169.536 3.76622 163.883 3.90033 162.699 7.92657C161.619 11.5971 158.251 14.1176 154.425 14.1176H138.25H19C10.7157 14.1176 4 20.8334 4 29.1176V74Z" fill="white"/>
<path d="M4.5 74C4.5 82.0081 10.9919 88.5 19 88.5H183C191.008 88.5 197.5 82.0081 197.5 74V23.3677C197.5 18.5352 193.582 14.6176 188.75 14.6176H179.455C175.451 14.6176 171.887 12.0803 170.577 8.29688L170.438 7.89543C169.223 4.38969 164.225 4.50826 163.178 8.06763C162.036 11.9509 158.472 14.6176 154.425 14.6176H138.25H19C10.9919 14.6176 4.5 21.1095 4.5 29.1176V74Z" stroke="#A8D6E4"/>
</g>
<defs>
<filter id="filter0_d" x="0" y="0.831055" width="214" height="104.169" filterUnits="userSpaceOnUse" color-interpolation-filters="sRGB">
<feFlood flood-opacity="0" result="BackgroundImageFix"/>
<feColorMatrix in="SourceAlpha" type="matrix" values="0 0 0 0 0 0 0 0 0 0 0 0 0 0 0 0 0 0 127 0"/>
<feOffset dx="6" dy="6"/>
<feGaussianBlur stdDeviation="5"/>
<feColorMatrix type="matrix" values="0 0 0 0 0 0 0 0 0 0 0 0 0 0 0 0 0 0 0.09 0"/>
<feBlend mode="normal" in2="BackgroundImageFix" result="effect1_dropShadow"/>
<feBlend mode="normal" in="SourceGraphic" in2="effect1_dropShadow" result="shape"/>
</filter>
</defs>
</svg>
