<svg width="7" height="7" viewBox="0 0 7 7" fill="none" xmlns="http://www.w3.org/2000/svg">
<path d="M6.62202 5.51512L4.54069 3.43379L6.62202 1.35246C6.90924 1.06524 6.90977 0.599527 6.62202 0.311776C6.33427 0.0240246 5.86855 0.0245488 5.58133 0.311775L3.5 2.3931L1.41867 0.311775C1.13092 0.0240239 0.66521 0.0245485 0.377983 0.311775C0.0907573 0.599001 0.0902331 1.06471 0.377984 1.35246L2.45931 3.43379L0.377984 5.51512C0.0907575 5.80235 0.090233 6.26806 0.377984 6.55581C0.665735 6.84356 1.13145 6.84303 1.41867 6.55581L3.5 4.47448L5.58133 6.55581C5.86908 6.84356 6.33479 6.84304 6.62202 6.55581C6.90924 6.26858 6.90977 5.80287 6.62202 5.51512Z" fill="white"/>
</svg>
