<svg width="33" height="33" viewBox="0 0 33 33" fill="none" xmlns="http://www.w3.org/2000/svg">
<rect x="0.123047" y="0.123066" width="32.4923" height="32.4923" rx="16.2462" fill="#0088CC"/>
<path d="M20.1114 23.2339C19.9955 23.2339 19.8805 23.1996 19.7818 23.1327L16.0528 20.6032L14.0528 22.0424C13.8959 22.1552 13.6937 22.1836 13.5116 22.1184C13.3297 22.0532 13.1915 21.9025 13.1422 21.7157L12.138 17.9099L8.54973 16.5378C8.32383 16.4514 8.17402 16.2353 8.17238 15.9935C8.17073 15.7516 8.31757 15.5335 8.54237 15.444L22.1862 10.015C22.2481 9.98871 22.3136 9.97352 22.3797 9.96945C22.4033 9.96804 22.4271 9.96804 22.4506 9.96937C22.5874 9.97751 22.7218 10.0332 22.8267 10.1361C22.8376 10.1467 22.8479 10.1576 22.8577 10.169C22.9446 10.2682 22.9923 10.3892 23.0013 10.5125C23.0035 10.5435 23.0034 10.5749 23.0006 10.6063C22.9988 10.6287 22.9956 10.651 22.991 10.6731L20.688 22.7568C20.651 22.9509 20.5189 23.1134 20.3363 23.1891C20.2639 23.2191 20.1874 23.2339 20.1114 23.2339ZM16.3802 19.4066L19.7018 21.6597L21.4938 12.2573L15.0217 18.4851L16.3645 19.396C16.3699 19.3994 16.3751 19.403 16.3802 19.4066ZM13.6151 18.9056L14.0598 20.5908L15.018 19.9013L13.7633 19.0502C13.705 19.0107 13.6551 18.9616 13.6151 18.9056ZM10.3747 15.9785L12.8385 16.9205C13.015 16.988 13.1482 17.1364 13.1965 17.3191L13.5089 18.5033C13.5232 18.3667 13.5852 18.2382 13.6857 18.1413L19.8528 12.2072L10.3747 15.9785Z" fill="white"/>
</svg>
