<svg width="205" height="79" viewBox="0 0 205 79" fill="none" xmlns="http://www.w3.org/2000/svg">
<path d="M3.16601 51.193C2.68141 51.193 2.24527 51.0224 1.85759 50.6811C1.51837 50.291 1.34875 49.8522 1.34875 49.3647V1.82832C1.34875 1.29201 1.51837 0.853217 1.85759 0.511931C2.24527 0.170643 2.68141 0 3.16601 0H23.5193C29.7222 0 34.5924 1.43828 38.13 4.31484C41.7161 7.1914 43.5091 11.3844 43.5091 16.8937C43.5091 22.3543 41.7403 26.4741 38.2027 29.2531C34.6651 31.9834 29.7706 33.3486 23.5193 33.3486H14.8691V49.3647C14.8691 49.901 14.6753 50.3398 14.2876 50.6811C13.9484 51.0224 13.5123 51.193 12.9792 51.193H3.16601ZM23.1558 23.2563C25.2881 23.2563 26.9599 22.7199 28.1714 21.6473C29.3829 20.526 29.9887 18.8927 29.9887 16.7474C29.9887 14.7485 29.4072 13.1639 28.2441 11.9938C27.1296 10.7749 25.4334 10.1655 23.1558 10.1655H14.6511V23.2563H23.1558Z" fill="#005182"/>
<path d="M60.1597 51.9243C57.5913 51.9243 55.241 51.4368 53.1087 50.4617C51.0249 49.4378 49.3773 48.0727 48.1658 46.3662C47.0028 44.611 46.4212 42.6852 46.4212 40.5887C46.4212 37.2246 47.7781 34.5187 50.4919 32.471C53.2541 30.4233 57.034 29.0094 61.8316 28.2293L70.9178 26.8398V25.8159C70.9178 23.9632 70.5302 22.5981 69.7548 21.7205C68.9794 20.8429 67.671 20.4041 65.8295 20.4041C64.7149 20.4041 63.7942 20.5991 63.0673 20.9891C62.3404 21.3792 61.5893 21.9155 60.8139 22.5981C60.1355 23.1831 59.6266 23.5732 59.2874 23.7682C59.142 24.1582 58.8755 24.3532 58.4878 24.3532H50.5646C50.08 24.3532 49.6681 24.207 49.3288 23.9144C49.0381 23.5732 48.9169 23.1831 48.9654 22.7443C49.0139 21.4279 49.6438 19.9653 50.8553 18.3563C52.1153 16.7474 54.0052 15.3579 56.5252 14.1878C59.0936 13.0176 62.2435 12.4326 65.9749 12.4326C71.9355 12.4326 76.3454 13.7734 79.2045 16.4549C82.0637 19.0877 83.4932 22.6468 83.4932 27.1323V49.3647C83.4932 49.8522 83.3236 50.291 82.9844 50.6811C82.6452 51.0224 82.2091 51.193 81.676 51.193H73.2439C72.7593 51.193 72.3232 51.0224 71.9355 50.6811C71.5963 50.291 71.4267 49.8522 71.4267 49.3647V46.805C70.3605 48.3164 68.8583 49.5597 66.9199 50.5348C65.0299 51.4612 62.7765 51.9243 60.1597 51.9243ZM63.5761 43.5872C65.8053 43.5872 67.5983 42.8559 68.9552 41.3932C70.3605 39.9305 71.0632 37.7853 71.0632 34.9575V33.9336L64.8845 35.0306C60.5231 35.8107 58.3424 37.3465 58.3424 39.638C58.3424 40.8569 58.8513 41.832 59.8689 42.5633C60.8866 43.2459 62.1223 43.5872 63.5761 43.5872Z" fill="#005182"/>
<path d="M93.5131 51.193C92.9801 51.193 92.5439 51.0224 92.2047 50.6811C91.8655 50.3398 91.6959 49.901 91.6959 49.3647V14.9922C91.6959 14.4559 91.8655 14.0171 92.2047 13.6758C92.5439 13.3346 92.9801 13.1639 93.5131 13.1639H101.872C102.406 13.1639 102.842 13.3589 103.181 13.749C103.569 14.0903 103.762 14.5047 103.762 14.9922V17.9176C106.428 14.7485 110.014 13.1639 114.521 13.1639H117.719C118.252 13.1639 118.688 13.3346 119.027 13.6758C119.367 14.0171 119.536 14.4559 119.536 14.9922V22.5249C119.536 23.0125 119.367 23.4513 119.027 23.8413C118.688 24.1826 118.252 24.3532 117.719 24.3532H110.668C108.681 24.3532 107.13 24.9139 106.016 26.0353C104.95 27.1079 104.417 28.6437 104.417 30.6427V49.3647C104.417 49.901 104.223 50.3398 103.835 50.6811C103.496 51.0224 103.06 51.193 102.527 51.193H93.5131Z" fill="#005182"/>
<path d="M138.588 51.9243C134.324 51.9243 130.883 50.486 128.266 47.6095C125.65 44.6842 124.341 40.6131 124.341 35.3963V14.9922C124.341 14.4559 124.511 14.0171 124.85 13.6758C125.189 13.3346 125.625 13.1639 126.158 13.1639H135.245C135.778 13.1639 136.214 13.3346 136.553 13.6758C136.941 14.0171 137.135 14.4559 137.135 14.9922V34.9575C137.135 39.7355 139.243 42.1245 143.459 42.1245C145.494 42.1245 147.093 41.4907 148.256 40.2231C149.419 38.9554 150.001 37.2002 150.001 34.9575V14.9922C150.001 14.4559 150.17 14.0171 150.51 13.6758C150.897 13.3346 151.333 13.1639 151.818 13.1639H160.904C161.437 13.1639 161.874 13.3346 162.213 13.6758C162.552 14.0171 162.722 14.4559 162.722 14.9922V49.3647C162.722 49.8522 162.552 50.291 162.213 50.6811C161.874 51.0224 161.437 51.193 160.904 51.193H152.472C151.988 51.193 151.552 51.0224 151.164 50.6811C150.825 50.291 150.655 49.8522 150.655 49.3647V46.5856C148.135 50.1448 144.113 51.9243 138.588 51.9243Z" fill="#005182"/>
<path d="M186.827 51.9243C182.902 51.9243 179.607 51.3637 176.942 50.2423C174.325 49.1209 172.386 47.7801 171.126 46.22C169.866 44.6598 169.236 43.2703 169.236 42.0514C169.236 41.5638 169.406 41.1738 169.745 40.8813C170.133 40.54 170.545 40.3693 170.981 40.3693H179.268C179.558 40.3693 179.825 40.4912 180.067 40.735C180.649 41.125 181.085 41.442 181.376 41.6857C182.442 42.4658 183.363 43.0509 184.138 43.4409C184.962 43.7822 185.955 43.9529 187.118 43.9529C188.524 43.9529 189.662 43.6847 190.535 43.1484C191.455 42.5633 191.916 41.7589 191.916 40.735C191.916 39.9062 191.674 39.248 191.189 38.7604C190.753 38.2729 189.88 37.8097 188.572 37.3709C187.264 36.8833 185.277 36.3714 182.611 35.8351C178.589 35.0063 175.488 33.6655 173.307 31.8128C171.175 29.9113 170.109 27.3761 170.109 24.207C170.109 22.208 170.739 20.3066 171.999 18.5026C173.259 16.6987 175.124 15.236 177.596 14.1146C180.116 12.9933 183.096 12.4326 186.537 12.4326C189.977 12.4326 192.982 12.9689 195.55 14.0415C198.119 15.1141 200.057 16.4305 201.366 17.9907C202.722 19.5021 203.401 20.8916 203.401 22.1593C203.401 22.5981 203.231 22.9881 202.892 23.3294C202.601 23.6707 202.238 23.8413 201.802 23.8413H194.242C193.854 23.8413 193.491 23.7194 193.152 23.4756C192.522 23.1344 191.964 22.7687 191.48 22.3787C190.656 21.7448 189.88 21.2573 189.154 20.916C188.427 20.5747 187.53 20.4041 186.464 20.4041C185.204 20.4041 184.186 20.6966 183.411 21.2817C182.684 21.8667 182.321 22.6224 182.321 23.5488C182.321 24.2801 182.515 24.8896 182.902 25.3771C183.338 25.8647 184.211 26.3522 185.519 26.8398C186.876 27.2786 188.863 27.7417 191.48 28.2293C196.18 29.0581 199.597 30.5208 201.729 32.6173C203.91 34.7137 205 37.1759 205 40.0037C205 43.6116 203.401 46.5125 200.202 48.7065C197.004 50.8517 192.546 51.9243 186.827 51.9243Z" fill="#005182"/>
<path d="M9.6721 65.9604C9.77285 65.9604 9.86101 65.9949 9.93657 66.064C10.0121 66.1216 10.0499 66.1964 10.0499 66.2886V74.562C10.0499 74.6772 10.0121 74.7693 9.93657 74.8384C9.86101 74.9075 9.76655 74.942 9.65321 74.942H8.72756C8.60162 74.942 8.50087 74.9075 8.42531 74.8384C8.34974 74.7693 8.31196 74.6772 8.31196 74.562V68.8794L5.89394 73.0593C5.80578 73.209 5.71762 73.3242 5.62946 73.4048C5.5539 73.4739 5.43426 73.5084 5.27054 73.5084H4.77938C4.62825 73.5084 4.50861 73.4739 4.42045 73.4048C4.34489 73.3357 4.25673 73.2205 4.15598 73.0593L1.75685 68.983V74.562C1.75685 74.6772 1.71906 74.7693 1.6435 74.8384C1.56794 74.9075 1.46719 74.942 1.34125 74.942H0.415598C0.289659 74.942 0.188908 74.9075 0.113345 74.8384C0.0377816 74.7693 0 74.6772 0 74.562V66.2886C0 66.2079 0.0377816 66.1331 0.113345 66.064C0.188908 65.9949 0.277065 65.9604 0.377816 65.9604H1.34125C1.53016 65.9604 1.68758 66.0525 1.81352 66.2367L5.02496 71.7293L8.25529 66.2367C8.35604 66.0525 8.51346 65.9604 8.72756 65.9604H9.6721Z" fill="#206792"/>
<path d="M19.2618 75.1147C17.9647 75.1147 16.9257 74.752 16.1449 74.0266C15.3766 73.2896 14.9547 72.2878 14.8792 71.0212L14.8603 70.4339L14.8792 69.8639C14.9673 68.6203 15.3955 67.63 16.1637 66.8931C16.9446 66.1561 17.971 65.7877 19.243 65.7877C20.6409 65.7877 21.7239 66.1964 22.4922 67.014C23.2604 67.82 23.6445 68.914 23.6445 70.2957V70.5894C23.6445 70.7045 23.6004 70.8024 23.5123 70.883C23.4367 70.9521 23.336 70.9866 23.21 70.9866H16.6738V71.1421C16.7116 71.8906 16.9572 72.5296 17.4105 73.0593C17.8765 73.5775 18.4873 73.8366 19.243 73.8366C19.8223 73.8366 20.2945 73.7329 20.6598 73.5257C21.0376 73.3069 21.3146 73.0824 21.491 72.8521C21.6043 72.7139 21.6862 72.6333 21.7365 72.6102C21.7995 72.5757 21.9066 72.5584 22.0577 72.5584H22.9833C23.0967 72.5584 23.1911 72.5872 23.2667 72.6448C23.3423 72.7024 23.38 72.783 23.38 72.8866C23.38 73.1399 23.2037 73.4451 22.8511 73.802C22.5111 74.159 22.0262 74.4699 21.3965 74.7347C20.7794 74.9881 20.0679 75.1147 19.2618 75.1147ZM21.8499 69.7948V69.743C21.8499 68.9485 21.6106 68.3037 21.132 67.8085C20.6661 67.3019 20.0364 67.0485 19.243 67.0485C18.4495 67.0485 17.8198 67.3019 17.3539 67.8085C16.9005 68.3037 16.6738 68.9485 16.6738 69.743V69.7948H21.8499Z" fill="#206792"/>
<path d="M28.8125 78.2238C28.6865 78.2238 28.5795 78.1835 28.4913 78.1029C28.4158 78.0338 28.378 77.9416 28.378 77.8265V66.3576C28.378 66.2425 28.4158 66.1504 28.4913 66.0813C28.5795 66.0007 28.6865 65.9604 28.8125 65.9604H29.6815C29.8074 65.9604 29.9081 66.0007 29.9837 66.0813C30.0719 66.1504 30.1159 66.2425 30.1159 66.3576V67.1176C30.8212 66.231 31.8539 65.7877 33.214 65.7877C34.5364 65.7877 35.525 66.1676 36.1799 66.9276C36.8474 67.6876 37.2063 68.6664 37.2567 69.8639C37.2693 69.9906 37.2756 70.1863 37.2756 70.4512C37.2756 70.716 37.2693 70.9118 37.2567 71.0385C37.2063 72.2245 36.8474 73.2033 36.1799 73.9748C35.5124 74.7347 34.5238 75.1147 33.214 75.1147C31.9043 75.1147 30.8842 74.6829 30.1537 73.8193V77.8265C30.1537 77.9416 30.1159 78.0338 30.0404 78.1029C29.9648 78.1835 29.8641 78.2238 29.7381 78.2238H28.8125ZM32.8173 73.7157C33.7115 73.7157 34.3601 73.4623 34.7631 72.9557C35.1787 72.449 35.4054 71.7812 35.4432 70.9521C35.4558 70.8369 35.462 70.67 35.462 70.4512C35.462 68.2749 34.5805 67.1867 32.8173 67.1867C31.9484 67.1867 31.2935 67.4516 30.8527 67.9812C30.4245 68.4994 30.1915 69.1212 30.1537 69.8467L30.1348 70.503L30.1537 71.1766C30.1789 71.856 30.4182 72.449 30.8716 72.9557C31.325 73.4623 31.9735 73.7157 32.8173 73.7157Z" fill="#206792"/>
<path d="M45.9975 75.1147C44.7004 75.1147 43.6614 74.752 42.8805 74.0266C42.1123 73.2896 41.6904 72.2878 41.6148 71.0212L41.596 70.4339L41.6148 69.8639C41.703 68.6203 42.1312 67.63 42.8994 66.8931C43.6802 66.1561 44.7066 65.7877 45.9786 65.7877C47.3765 65.7877 48.4596 66.1964 49.2278 67.014C49.9961 67.82 50.3802 68.914 50.3802 70.2957V70.5894C50.3802 70.7045 50.3361 70.8024 50.248 70.883C50.1724 70.9521 50.0716 70.9866 49.9457 70.9866H43.4095V71.1421C43.4473 71.8906 43.6928 72.5296 44.1462 73.0593C44.6122 73.5775 45.223 73.8366 45.9786 73.8366C46.5579 73.8366 47.0302 73.7329 47.3954 73.5257C47.7733 73.3069 48.0503 73.0824 48.2266 72.8521C48.34 72.7139 48.4218 72.6333 48.4722 72.6102C48.5352 72.5757 48.6422 72.5584 48.7934 72.5584H49.719C49.8324 72.5584 49.9268 72.5872 50.0024 72.6448C50.0779 72.7024 50.1157 72.783 50.1157 72.8866C50.1157 73.1399 49.9394 73.4451 49.5868 73.802C49.2467 74.159 48.7619 74.4699 48.1322 74.7347C47.5151 74.9881 46.8035 75.1147 45.9975 75.1147ZM48.5856 69.7948V69.743C48.5856 68.9485 48.3463 68.3037 47.8677 67.8085C47.4017 67.3019 46.772 67.0485 45.9786 67.0485C45.1852 67.0485 44.5555 67.3019 44.0895 67.8085C43.6362 68.3037 43.4095 68.9485 43.4095 69.743V69.7948H48.5856Z" fill="#206792"/>
<path d="M68.2617 74.4411C68.312 74.5217 68.3372 74.5966 68.3372 74.6656C68.3372 74.8499 68.2113 74.942 67.9594 74.942H66.826C66.6245 74.942 66.4544 74.8556 66.3159 74.6829L63.5768 71.0557H62.1222V74.5447C62.1222 74.6599 62.0781 74.7578 61.9899 74.8384C61.9144 74.9075 61.8136 74.942 61.6877 74.942H60.8187C60.6927 74.942 60.5857 74.9075 60.4975 74.8384C60.422 74.7578 60.3842 74.6599 60.3842 74.5447V71.0557H58.9107L56.1715 74.6829C56.033 74.8556 55.863 74.942 55.6615 74.942H54.5092C54.3958 74.942 54.3014 74.919 54.2258 74.8729C54.1628 74.8153 54.1313 74.7463 54.1313 74.6656C54.1313 74.6081 54.1628 74.5332 54.2258 74.4411L57.4561 70.2439L54.6036 66.444C54.5532 66.3864 54.528 66.3173 54.528 66.2367C54.528 66.1561 54.5595 66.0928 54.6225 66.0467C54.6981 65.9892 54.7925 65.9604 54.9059 65.9604H55.8882C56.0771 65.9604 56.2471 66.0467 56.3982 66.2195L58.9296 69.6739H60.3842V66.3576C60.3842 66.2425 60.422 66.1504 60.4975 66.0813C60.5857 66.0007 60.6927 65.9604 60.8187 65.9604H61.6877C61.8136 65.9604 61.9144 66.0007 61.9899 66.0813C62.0781 66.1504 62.1222 66.2425 62.1222 66.3576V69.6739H63.5201L66.0892 66.2195C66.2152 66.0467 66.3789 65.9604 66.5804 65.9604H67.5816C67.6949 65.9604 67.7831 65.9892 67.8461 66.0467C67.9216 66.0928 67.9594 66.1561 67.9594 66.2367C67.9594 66.2943 67.9279 66.3634 67.865 66.444L65.0313 70.2439L68.2617 74.4411Z" fill="#206792"/>
<path d="M75.3803 75.1147C74.7632 75.1147 74.1901 74.9996 73.6612 74.7693C73.1323 74.539 72.7104 74.2281 72.3955 73.8366C72.0933 73.4336 71.9421 72.9902 71.9421 72.5066C71.9421 71.7466 72.2822 71.1248 72.9622 70.6412C73.6549 70.146 74.5869 69.8236 75.7581 69.6739L78.5728 69.3112V68.8103C78.5728 67.6358 77.8361 67.0485 76.3626 67.0485C75.8085 67.0485 75.3551 67.1579 75.0024 67.3767C74.6498 67.584 74.3853 67.8316 74.209 68.1194C74.1712 68.2231 74.1209 68.2979 74.0579 68.344C74.0075 68.39 73.932 68.4131 73.8312 68.4131H73.0189C72.9056 68.4131 72.8048 68.3785 72.7167 68.3094C72.6411 68.2288 72.6033 68.1367 72.6033 68.0331C72.6159 67.7567 72.7544 67.4458 73.0189 67.1004C73.296 66.7434 73.7179 66.4382 74.2846 66.1849C74.8513 65.9201 75.5503 65.7877 76.3815 65.7877C77.792 65.7877 78.8058 66.0928 79.4229 66.7031C80.04 67.3019 80.3485 68.0503 80.3485 68.9485V74.5447C80.3485 74.6599 80.3045 74.7578 80.2163 74.8384C80.1408 74.9075 80.04 74.942 79.9141 74.942H79.0451C78.9192 74.942 78.8121 74.9075 78.7239 74.8384C78.6484 74.7578 78.6106 74.6599 78.6106 74.5447V73.802C78.3335 74.1705 77.9305 74.4814 77.4016 74.7347C76.8726 74.9881 76.1989 75.1147 75.3803 75.1147ZM75.777 73.8193C76.5956 73.8193 77.2631 73.5775 77.7794 73.0939C78.3083 72.5987 78.5728 71.8906 78.5728 70.9694V70.4857L76.3815 70.7794C75.4873 70.8945 74.8135 71.0903 74.3602 71.3666C73.9068 71.6315 73.6801 71.9712 73.6801 72.3857C73.6801 72.8463 73.8879 73.2033 74.3035 73.4566C74.7191 73.6984 75.2103 73.8193 75.777 73.8193Z" fill="#206792"/>
<path d="M92.1341 74.942C92.0081 74.942 91.9011 74.9017 91.8129 74.8211C91.7248 74.7405 91.6807 74.6426 91.6807 74.5275V73.8884C91.6807 73.7732 91.7185 73.6811 91.794 73.612C91.8696 73.5429 91.964 73.5084 92.0774 73.5084C92.6819 73.4854 93.129 73.0939 93.4186 72.3339C93.7209 71.5624 93.872 70.3073 93.872 68.5685V66.3576C93.872 66.2425 93.9098 66.1504 93.9854 66.0813C94.0735 66.0007 94.1806 65.9604 94.3065 65.9604H100.314C100.44 65.9604 100.54 66.0007 100.616 66.0813C100.704 66.1504 100.748 66.2425 100.748 66.3576V74.5447C100.748 74.6599 100.704 74.7578 100.616 74.8384C100.54 74.9075 100.44 74.942 100.314 74.942H99.407C99.2811 74.942 99.1803 74.9075 99.1048 74.8384C99.0292 74.7578 98.9914 74.6599 98.9914 74.5447V67.3422H95.5911V68.7585C95.5911 70.9578 95.314 72.5411 94.7599 73.5084C94.2057 74.4641 93.3305 74.942 92.1341 74.942Z" fill="#206792"/>
<path d="M110.044 75.1147C108.659 75.1147 107.582 74.7578 106.814 74.0438C106.058 73.3299 105.655 72.3799 105.605 71.1939L105.586 70.4512L105.605 69.7085C105.655 68.534 106.064 67.5897 106.833 66.8758C107.601 66.1504 108.671 65.7877 110.044 65.7877C111.417 65.7877 112.487 66.1504 113.255 66.8758C114.024 67.5897 114.433 68.534 114.483 69.7085C114.496 69.8351 114.502 70.0827 114.502 70.4512C114.502 70.8197 114.496 71.0672 114.483 71.1939C114.433 72.3799 114.024 73.3299 113.255 74.0438C112.5 74.7578 111.429 75.1147 110.044 75.1147ZM110.044 73.7848C110.837 73.7848 111.461 73.5545 111.914 73.0939C112.38 72.6333 112.632 71.9712 112.67 71.1075C112.682 70.9924 112.689 70.7736 112.689 70.4512C112.689 70.1288 112.682 69.91 112.67 69.7948C112.632 68.9312 112.38 68.2691 111.914 67.8085C111.461 67.3479 110.837 67.1176 110.044 67.1176C109.251 67.1176 108.621 67.3479 108.155 67.8085C107.689 68.2691 107.443 68.9312 107.418 69.7948L107.399 70.4512L107.418 71.1075C107.443 71.9712 107.689 72.6333 108.155 73.0939C108.621 73.5545 109.251 73.7848 110.044 73.7848Z" fill="#206792"/>
<path d="M128.996 65.9604C129.096 65.9604 129.185 65.9949 129.26 66.064C129.336 66.1216 129.373 66.1964 129.373 66.2886V74.562C129.373 74.6772 129.336 74.7693 129.26 74.8384C129.185 74.9075 129.09 74.942 128.977 74.942H128.051C127.925 74.942 127.824 74.9075 127.749 74.8384C127.673 74.7693 127.636 74.6772 127.636 74.562V68.8794L125.217 73.0593C125.129 73.209 125.041 73.3242 124.953 73.4048C124.877 73.4739 124.758 73.5084 124.594 73.5084H124.103C123.952 73.5084 123.832 73.4739 123.744 73.4048C123.668 73.3357 123.58 73.2205 123.48 73.0593L121.08 68.983V74.562C121.08 74.6772 121.043 74.7693 120.967 74.8384C120.891 74.9075 120.791 74.942 120.665 74.942H119.739C119.613 74.942 119.512 74.9075 119.437 74.8384C119.361 74.7693 119.324 74.6772 119.324 74.562V66.2886C119.324 66.2079 119.361 66.1331 119.437 66.064C119.512 65.9949 119.601 65.9604 119.701 65.9604H120.665C120.854 65.9604 121.011 66.0525 121.137 66.2367L124.349 71.7293L127.579 66.2367C127.68 66.0525 127.837 65.9604 128.051 65.9604H128.996Z" fill="#206792"/>
<path d="M143.251 70.2439C143.264 70.3591 143.27 70.5433 143.27 70.7966C143.27 71.0154 143.264 71.1709 143.251 71.263C143.201 72.426 142.792 73.3587 142.024 74.0611C141.268 74.7635 140.197 75.1147 138.812 75.1147C137.389 75.1147 136.306 74.7463 135.563 74.0093C134.82 73.2723 134.423 72.259 134.373 70.9694L134.354 69.933L134.373 68.8967C134.385 67.25 134.625 66.018 135.091 65.2004C135.569 64.3713 136.243 63.7783 137.112 63.4213C137.993 63.0529 139.417 62.6326 141.381 62.1605L141.835 62.0568L141.929 62.0396C142.03 62.0396 142.118 62.0741 142.194 62.1432C142.282 62.2008 142.332 62.2698 142.345 62.3505L142.496 63.0586L142.515 63.1623C142.515 63.2429 142.483 63.3119 142.42 63.3695C142.37 63.4271 142.294 63.4674 142.194 63.4904L141.249 63.6977C139.801 64.0201 138.762 64.2965 138.132 64.5268C137.502 64.7571 137.011 65.1198 136.659 65.6149C136.319 66.0986 136.13 66.824 136.092 67.7912C136.394 67.3767 136.822 67.0428 137.376 66.7895C137.931 66.5246 138.516 66.3922 139.133 66.3922C140.405 66.3922 141.394 66.7491 142.099 67.4631C142.817 68.1655 143.201 69.0924 143.251 70.2439ZM141.438 71.1939C141.451 71.1133 141.457 70.9809 141.457 70.7966C141.457 70.5894 141.451 70.4339 141.438 70.3303C141.413 69.4897 141.173 68.8391 140.72 68.3785C140.279 67.9064 139.7 67.6703 138.982 67.6703C138.176 67.6703 137.515 67.9064 136.999 68.3785C136.495 68.8391 136.224 69.4897 136.186 70.3303L136.167 70.7966L136.186 71.1939C136.224 72.046 136.476 72.7024 136.942 73.163C137.408 73.612 138.031 73.8366 138.812 73.8366C139.605 73.8366 140.235 73.612 140.701 73.163C141.167 72.7024 141.413 72.046 141.438 71.1939Z" fill="#206792"/>
<path d="M150.828 75.1147C150.211 75.1147 149.638 74.9996 149.109 74.7693C148.58 74.539 148.158 74.2281 147.843 73.8366C147.541 73.4336 147.39 72.9902 147.39 72.5066C147.39 71.7466 147.73 71.1248 148.41 70.6412C149.102 70.146 150.034 69.8236 151.206 69.6739L154.02 69.3112V68.8103C154.02 67.6358 153.283 67.0485 151.81 67.0485C151.256 67.0485 150.802 67.1579 150.45 67.3767C150.097 67.584 149.833 67.8316 149.656 68.1194C149.619 68.2231 149.568 68.2979 149.505 68.344C149.455 68.39 149.379 68.4131 149.279 68.4131H148.466C148.353 68.4131 148.252 68.3785 148.164 68.3094C148.089 68.2288 148.051 68.1367 148.051 68.0331C148.063 67.7567 148.202 67.4458 148.466 67.1004C148.743 66.7434 149.165 66.4382 149.732 66.1849C150.299 65.9201 150.998 65.7877 151.829 65.7877C153.239 65.7877 154.253 66.0928 154.87 66.7031C155.487 67.3019 155.796 68.0503 155.796 68.9485V74.5447C155.796 74.6599 155.752 74.7578 155.664 74.8384C155.588 74.9075 155.487 74.942 155.361 74.942H154.492C154.367 74.942 154.26 74.9075 154.171 74.8384C154.096 74.7578 154.058 74.6599 154.058 74.5447V73.802C153.781 74.1705 153.378 74.4814 152.849 74.7347C152.32 74.9881 151.646 75.1147 150.828 75.1147ZM151.224 73.8193C152.043 73.8193 152.71 73.5775 153.227 73.0939C153.756 72.5987 154.02 71.8906 154.02 70.9694V70.4857L151.829 70.7794C150.935 70.8945 150.261 71.0903 149.808 71.3666C149.354 71.6315 149.128 71.9712 149.128 72.3857C149.128 72.8463 149.335 73.2033 149.751 73.4566C150.167 73.6984 150.658 73.8193 151.224 73.8193Z" fill="#206792"/>
<path d="M161.421 78.2238C161.295 78.2238 161.188 78.1835 161.1 78.1029C161.024 78.0338 160.986 77.9416 160.986 77.8265V66.3576C160.986 66.2425 161.024 66.1504 161.1 66.0813C161.188 66.0007 161.295 65.9604 161.421 65.9604H162.29C162.416 65.9604 162.517 66.0007 162.592 66.0813C162.68 66.1504 162.724 66.2425 162.724 66.3576V67.1176C163.43 66.231 164.462 65.7877 165.822 65.7877C167.145 65.7877 168.133 66.1676 168.788 66.9276C169.456 67.6876 169.815 68.6664 169.865 69.8639C169.878 69.9906 169.884 70.1863 169.884 70.4512C169.884 70.716 169.878 70.9118 169.865 71.0385C169.815 72.2245 169.456 73.2033 168.788 73.9748C168.121 74.7347 167.132 75.1147 165.822 75.1147C164.513 75.1147 163.493 74.6829 162.762 73.8193V77.8265C162.762 77.9416 162.724 78.0338 162.649 78.1029C162.573 78.1835 162.472 78.2238 162.347 78.2238H161.421ZM165.426 73.7157C166.32 73.7157 166.968 73.4623 167.371 72.9557C167.787 72.449 168.014 71.7812 168.052 70.9521C168.064 70.8369 168.07 70.67 168.07 70.4512C168.07 68.2749 167.189 67.1867 165.426 67.1867C164.557 67.1867 163.902 67.4516 163.461 67.9812C163.033 68.4994 162.8 69.1212 162.762 69.8467L162.743 70.503L162.762 71.1766C162.787 71.856 163.027 72.449 163.48 72.9557C163.933 73.4623 164.582 73.7157 165.426 73.7157Z" fill="#206792"/>
<path d="M174.11 76.842C173.984 76.842 173.877 76.8017 173.789 76.7211C173.713 76.652 173.675 76.5599 173.675 76.4447V73.9575C173.675 73.8423 173.713 73.7502 173.789 73.6811C173.877 73.6005 173.984 73.5602 174.11 73.5602H174.204C174.733 73.5487 175.13 73.1457 175.394 72.3512C175.672 71.5566 175.81 70.2957 175.81 68.5685V66.3576C175.81 66.2425 175.848 66.1504 175.923 66.0813C176.012 66.0007 176.119 65.9604 176.245 65.9604H182.271C182.397 65.9604 182.497 66.0007 182.573 66.0813C182.661 66.1504 182.705 66.2425 182.705 66.3576V73.5257H183.593C183.719 73.5257 183.82 73.566 183.895 73.6466C183.983 73.7157 184.028 73.8078 184.028 73.9229V76.4447C184.028 76.5599 183.983 76.652 183.895 76.7211C183.82 76.8017 183.719 76.842 183.593 76.842H182.705C182.579 76.842 182.472 76.8017 182.384 76.7211C182.308 76.652 182.271 76.5599 182.271 76.4447V74.942H175.432V76.4447C175.432 76.5599 175.388 76.652 175.3 76.7211C175.224 76.8017 175.124 76.842 174.998 76.842H174.11ZM180.948 73.5257V67.3422H177.529V68.7585C177.529 71.0615 177.17 72.6621 176.452 73.5602L180.948 73.5257Z" fill="#206792"/>
<path d="M188.743 64.285C188.617 64.285 188.51 64.2504 188.422 64.1813C188.346 64.1007 188.308 64.0028 188.308 63.8877V62.955C188.308 62.8398 188.346 62.742 188.422 62.6614C188.51 62.5808 188.617 62.5404 188.743 62.5404H189.933C190.059 62.5404 190.166 62.5808 190.254 62.6614C190.342 62.742 190.386 62.8398 190.386 62.955V63.8877C190.386 64.0028 190.342 64.1007 190.254 64.1813C190.166 64.2504 190.059 64.285 189.933 64.285H188.743ZM188.894 74.942C188.768 74.942 188.661 74.9075 188.573 74.8384C188.497 74.7578 188.46 74.6599 188.46 74.5447V66.3576C188.46 66.2425 188.497 66.1504 188.573 66.0813C188.661 66.0007 188.768 65.9604 188.894 65.9604H189.801C189.927 65.9604 190.027 66.0007 190.103 66.0813C190.191 66.1504 190.235 66.2425 190.235 66.3576V74.5447C190.235 74.6599 190.191 74.7578 190.103 74.8384C190.027 74.9075 189.927 74.942 189.801 74.942H188.894Z" fill="#206792"/>
<path d="M195.925 74.942C195.799 74.942 195.692 74.9075 195.604 74.8384C195.528 74.7578 195.49 74.6599 195.49 74.5447V66.3576C195.49 66.2425 195.528 66.1504 195.604 66.0813C195.692 66.0007 195.799 65.9604 195.925 65.9604H199.854C201.013 65.9604 201.894 66.1792 202.499 66.6167C203.116 67.0428 203.425 67.63 203.425 68.3785C203.425 68.8737 203.324 69.2594 203.122 69.5358C202.921 69.8006 202.612 70.0309 202.197 70.2267C202.65 70.3994 203.003 70.6872 203.255 71.0903C203.519 71.4933 203.651 71.9251 203.651 72.3857C203.651 73.2148 203.33 73.8481 202.688 74.2857C202.058 74.7232 201.164 74.942 200.005 74.942H195.925ZM199.741 69.7776C200.358 69.7776 200.843 69.6567 201.195 69.4149C201.548 69.173 201.724 68.8333 201.724 68.3958C201.724 67.9697 201.554 67.6703 201.214 67.4976C200.874 67.3134 200.383 67.2213 199.741 67.2213H197.228V69.7776H199.741ZM199.854 73.6811C200.484 73.6811 200.975 73.5717 201.328 73.353C201.693 73.1342 201.876 72.8117 201.876 72.3857C201.876 71.9251 201.712 71.5912 201.384 71.3839C201.057 71.1651 200.547 71.0557 199.854 71.0557H197.228V73.6811H199.854Z" fill="#206792"/>
</svg>
