<svg width="406" height="80" viewBox="0 0 406 80" fill="none" xmlns="http://www.w3.org/2000/svg">
<path d="M13.8322 32.4375C10.0111 32.4375 7.05053 31.4458 4.95039 29.4623C2.87942 27.4497 1.7856 24.4307 1.66893 20.4055C1.63976 19.5304 1.62517 18.2908 1.62517 16.6865C1.62517 15.0822 1.63976 13.8571 1.66893 13.0112C1.7856 9.07348 2.92318 6.0837 5.08165 4.0419C7.24013 1.97093 10.157 0.935443 13.8322 0.935443C17.4783 0.935443 20.3806 1.97093 22.5391 4.0419C24.6975 6.0837 25.8351 9.07348 25.9518 13.0112C26.0101 14.703 26.0393 15.9281 26.0393 16.6865C26.0393 17.4157 26.0101 18.6554 25.9518 20.4055C25.8351 24.4307 24.7267 27.4497 22.6266 29.4623C20.5556 31.4458 17.6241 32.4375 13.8322 32.4375ZM13.8322 28.7185C16.1366 28.7185 17.9742 28.0185 19.3451 26.6184C20.716 25.2183 21.4598 23.0744 21.5765 20.1867C21.6348 18.4366 21.664 17.2699 21.664 16.6865C21.664 16.0448 21.6348 14.878 21.5765 13.1863C21.4598 10.2986 20.7014 8.15467 19.3013 6.75458C17.9304 5.35449 16.1074 4.65444 13.8322 4.65444C11.5279 4.65444 9.67571 5.35449 8.27561 6.75458C6.90469 8.15467 6.16089 10.2986 6.04422 13.1863C6.01505 14.0321 6.00046 15.1989 6.00046 16.6865C6.00046 18.1449 6.01505 19.3117 6.04422 20.1867C6.16089 23.0744 6.90469 25.2183 8.27561 26.6184C9.67571 28.0185 11.5279 28.7185 13.8322 28.7185ZM40.1171 32C39.8254 32 39.5775 31.9125 39.3733 31.7375C39.1983 31.5333 39.1108 31.2854 39.1108 30.9937V5.26698H30.7103C30.4186 5.26698 30.1706 5.17947 29.9665 5.00446C29.7914 4.80028 29.7039 4.55235 29.7039 4.26066V2.42304C29.7039 2.13135 29.7914 1.88342 29.9665 1.67924C30.1706 1.47506 30.4186 1.37297 30.7103 1.37297H51.7991C52.12 1.37297 52.3679 1.47506 52.5429 1.67924C52.7471 1.85425 52.8492 2.10219 52.8492 2.42304V4.26066C52.8492 4.55235 52.7471 4.80028 52.5429 5.00446C52.3388 5.17947 52.0908 5.26698 51.7991 5.26698H43.4423V30.9937C43.4423 31.2854 43.3403 31.5333 43.1361 31.7375C42.9319 31.9125 42.684 32 42.3923 32H40.1171ZM58.7603 32C58.4686 32 58.2207 31.9125 58.0165 31.7375C57.8415 31.5333 57.754 31.2854 57.754 30.9937V2.42304C57.754 2.10219 57.8415 1.85425 58.0165 1.67924C58.2207 1.47506 58.4686 1.37297 58.7603 1.37297H69.8735C73.1696 1.37297 75.7656 2.17511 77.6616 3.77938C79.5575 5.38365 80.5055 7.70256 80.5055 10.7361C80.5055 13.7696 79.5575 16.0885 77.6616 17.6928C75.7948 19.2679 73.1988 20.0555 69.8735 20.0555H62.1293V30.9937C62.1293 31.2854 62.0272 31.5333 61.823 31.7375C61.6188 31.9125 61.3709 32 61.0792 32H58.7603ZM69.6548 16.3802C71.7841 16.3802 73.3884 15.8989 74.4676 14.9364C75.576 13.9738 76.1302 12.5737 76.1302 10.7361C76.1302 8.89847 75.5906 7.49838 74.5113 6.53581C73.4321 5.54408 71.8132 5.04821 69.6548 5.04821H62.0855V16.3802H69.6548ZM86.8322 32C86.5405 32 86.2926 31.9125 86.0884 31.7375C85.9134 31.5333 85.8259 31.2708 85.8259 30.9499V2.42304C85.8259 2.10219 85.9134 1.85425 86.0884 1.67924C86.2926 1.47506 86.5405 1.37297 86.8322 1.37297H89.1074C89.3991 1.37297 89.6324 1.47506 89.8074 1.67924C90.0116 1.88342 90.1137 2.13135 90.1137 2.42304V25.0433L106.434 1.98551C106.667 1.57715 107.031 1.37297 107.527 1.37297H109.671C109.963 1.37297 110.196 1.47506 110.371 1.67924C110.575 1.85425 110.678 2.10219 110.678 2.42304V30.9937C110.678 31.2854 110.575 31.5333 110.371 31.7375C110.196 31.9125 109.963 32 109.671 32H107.44C107.148 32 106.9 31.9125 106.696 31.7375C106.492 31.5333 106.39 31.2854 106.39 30.9937V8.54845L90.1137 31.3875C89.8803 31.7958 89.5157 32 89.0199 32H86.8322ZM119.305 32C119.013 32 118.765 31.9125 118.561 31.7375C118.386 31.5333 118.299 31.2854 118.299 30.9937V2.42304C118.299 2.10219 118.386 1.85425 118.561 1.67924C118.765 1.47506 119.013 1.37297 119.305 1.37297H121.493C121.959 1.37297 122.339 1.60632 122.63 2.07302L131.862 19.7492L141.182 2.07302C141.24 1.89801 141.357 1.73758 141.532 1.59174C141.736 1.44589 141.984 1.37297 142.275 1.37297H144.419C144.74 1.37297 144.988 1.47506 145.163 1.67924C145.367 1.85425 145.469 2.10219 145.469 2.42304V30.9937C145.469 31.2854 145.367 31.5333 145.163 31.7375C144.959 31.9125 144.711 32 144.419 32H142.275C141.984 32 141.736 31.9125 141.532 31.7375C141.357 31.5333 141.269 31.2854 141.269 30.9937V9.46726L133.962 23.7307C133.671 24.3432 133.204 24.6495 132.562 24.6495H131.206C130.564 24.6495 130.097 24.3432 129.806 23.7307L122.455 9.46726V30.9937C122.455 31.2854 122.353 31.5333 122.149 31.7375C121.974 31.9125 121.741 32 121.449 32H119.305ZM150.98 32C150.746 32 150.542 31.9125 150.367 31.7375C150.192 31.5625 150.105 31.3583 150.105 31.1249C150.105 30.8916 150.119 30.7312 150.148 30.6437L160.999 2.33554C161.233 1.69383 161.699 1.37297 162.399 1.37297H165.374C166.075 1.37297 166.541 1.69383 166.775 2.33554L177.582 30.6437L177.669 31.1249C177.669 31.3583 177.582 31.5625 177.407 31.7375C177.232 31.9125 177.027 32 176.794 32H174.563C174.242 32 173.994 31.9271 173.819 31.7812C173.644 31.6062 173.527 31.4312 173.469 31.2562L171.062 25.0433H156.711L154.305 31.2562C154.247 31.4312 154.115 31.6062 153.911 31.7812C153.736 31.9271 153.503 32 153.211 32H150.98ZM169.794 21.2805L163.887 5.74826L157.98 21.2805H169.794ZM190.048 32C189.756 32 189.508 31.9125 189.304 31.7375C189.129 31.5333 189.041 31.2854 189.041 30.9937V5.26698H180.641C180.349 5.26698 180.101 5.17947 179.897 5.00446C179.722 4.80028 179.635 4.55235 179.635 4.26066V2.42304C179.635 2.13135 179.722 1.88342 179.897 1.67924C180.101 1.47506 180.349 1.37297 180.641 1.37297H201.73C202.051 1.37297 202.299 1.47506 202.474 1.67924C202.678 1.85425 202.78 2.10219 202.78 2.42304V4.26066C202.78 4.55235 202.678 4.80028 202.474 5.00446C202.269 5.17947 202.021 5.26698 201.73 5.26698H193.373V30.9937C193.373 31.2854 193.271 31.5333 193.067 31.7375C192.862 31.9125 192.615 32 192.323 32H190.048ZM208.691 32C208.399 32 208.151 31.9125 207.947 31.7375C207.772 31.5333 207.685 31.2708 207.685 30.9499V2.42304C207.685 2.10219 207.772 1.85425 207.947 1.67924C208.151 1.47506 208.399 1.37297 208.691 1.37297H210.966C211.258 1.37297 211.491 1.47506 211.666 1.67924C211.87 1.88342 211.972 2.13135 211.972 2.42304V25.0433L228.292 1.98551C228.526 1.57715 228.89 1.37297 229.386 1.37297H231.53C231.822 1.37297 232.055 1.47506 232.23 1.67924C232.434 1.85425 232.536 2.10219 232.536 2.42304V30.9937C232.536 31.2854 232.434 31.5333 232.23 31.7375C232.055 31.9125 231.822 32 231.53 32H229.298C229.007 32 228.759 31.9125 228.555 31.7375C228.351 31.5333 228.248 31.2854 228.248 30.9937V8.54845L211.972 31.3875C211.739 31.7958 211.374 32 210.879 32H208.691ZM261.908 32.4375C258.087 32.4375 255.126 31.4458 253.026 29.4623C250.955 27.4497 249.861 24.4307 249.744 20.4055C249.715 19.5304 249.701 18.2908 249.701 16.6865C249.701 15.0822 249.715 13.8571 249.744 13.0112C249.861 9.07348 250.999 6.0837 253.157 4.0419C255.316 1.97093 258.232 0.935443 261.908 0.935443C265.554 0.935443 268.456 1.97093 270.615 4.0419C272.773 6.0837 273.911 9.07348 274.027 13.0112C274.086 14.703 274.115 15.9281 274.115 16.6865C274.115 17.4157 274.086 18.6554 274.027 20.4055C273.911 24.4307 272.802 27.4497 270.702 29.4623C268.631 31.4458 265.7 32.4375 261.908 32.4375ZM261.908 28.7185C264.212 28.7185 266.05 28.0185 267.421 26.6184C268.792 25.2183 269.535 23.0744 269.652 20.1867C269.71 18.4366 269.74 17.2699 269.74 16.6865C269.74 16.0448 269.71 14.878 269.652 13.1863C269.535 10.2986 268.777 8.15467 267.377 6.75458C266.006 5.35449 264.183 4.65444 261.908 4.65444C259.603 4.65444 257.751 5.35449 256.351 6.75458C254.98 8.15467 254.236 10.2986 254.12 13.1863C254.091 14.0321 254.076 15.1989 254.076 16.6865C254.076 18.1449 254.091 19.3117 254.12 20.1867C254.236 23.0744 254.98 25.2183 256.351 26.6184C257.751 28.0185 259.603 28.7185 261.908 28.7185ZM304.031 38.1254C303.739 38.1254 303.492 38.0233 303.287 37.8191C303.112 37.6441 303.025 37.4108 303.025 37.1191V32H281.498C281.207 32 280.959 31.9125 280.755 31.7375C280.58 31.5333 280.492 31.2708 280.492 30.9499V2.37929C280.492 2.05843 280.58 1.8105 280.755 1.63549C280.959 1.46048 281.207 1.37297 281.498 1.37297H283.73C284.022 1.37297 284.269 1.47506 284.474 1.67924C284.678 1.85425 284.78 2.0876 284.78 2.37929V28.0622H299.831V2.37929C299.831 2.0876 299.918 1.85425 300.093 1.67924C300.298 1.47506 300.546 1.37297 300.837 1.37297H303.069C303.36 1.37297 303.608 1.47506 303.812 1.67924C304.017 1.85425 304.119 2.0876 304.119 2.37929V28.0622H306.263C306.554 28.0622 306.802 28.1643 307.006 28.3685C307.211 28.5435 307.313 28.7769 307.313 29.0686V37.1191C307.313 37.4108 307.211 37.6441 307.006 37.8191C306.802 38.0233 306.554 38.1254 306.263 38.1254H304.031ZM313.629 32C313.338 32 313.09 31.9125 312.886 31.7375C312.711 31.5333 312.623 31.2854 312.623 30.9937V2.37929C312.623 2.0876 312.711 1.85425 312.886 1.67924C313.09 1.47506 313.338 1.37297 313.629 1.37297H315.948C316.24 1.37297 316.473 1.47506 316.648 1.67924C316.853 1.85425 316.955 2.0876 316.955 2.37929V30.9937C316.955 31.2854 316.853 31.5333 316.648 31.7375C316.473 31.9125 316.24 32 315.948 32H313.629ZM325.593 32C325.301 32 325.054 31.9125 324.849 31.7375C324.674 31.5333 324.587 31.2854 324.587 30.9937V2.42304C324.587 2.10219 324.674 1.85425 324.849 1.67924C325.054 1.47506 325.301 1.37297 325.593 1.37297H327.825C328.145 1.37297 328.393 1.47506 328.568 1.67924C328.773 1.85425 328.875 2.10219 328.875 2.42304V14.4988H343.926V2.42304C343.926 2.10219 344.013 1.85425 344.188 1.67924C344.392 1.47506 344.64 1.37297 344.932 1.37297H347.163C347.484 1.37297 347.732 1.47506 347.907 1.67924C348.111 1.85425 348.213 2.10219 348.213 2.42304V30.9937C348.213 31.2854 348.111 31.5333 347.907 31.7375C347.703 31.9125 347.455 32 347.163 32H344.932C344.64 32 344.392 31.9125 344.188 31.7375C344.013 31.5333 343.926 31.2854 343.926 30.9937V18.4366H328.875V30.9937C328.875 31.2854 328.773 31.5333 328.568 31.7375C328.364 31.9125 328.116 32 327.825 32H325.593ZM378.222 30.4686C378.31 30.5853 378.353 30.7458 378.353 30.9499C378.353 31.2416 378.251 31.4895 378.047 31.6937C377.872 31.8979 377.639 32 377.347 32H374.853C374.561 32 374.328 31.9417 374.153 31.825C374.007 31.7083 373.861 31.5479 373.716 31.3437L365.315 18.4366H360.108V30.9937C360.108 31.2854 360.006 31.5333 359.802 31.7375C359.598 31.9125 359.35 32 359.058 32H356.827C356.535 32 356.287 31.9125 356.083 31.7375C355.908 31.5333 355.821 31.2854 355.821 30.9937V2.42304C355.821 2.10219 355.908 1.85425 356.083 1.67924C356.287 1.47506 356.535 1.37297 356.827 1.37297H359.058C359.379 1.37297 359.627 1.47506 359.802 1.67924C360.006 1.85425 360.108 2.10219 360.108 2.42304V14.4988L365.096 14.5426L372.84 2.07302C373.132 1.60632 373.628 1.37297 374.328 1.37297H376.691C377.303 1.37297 377.61 1.66466 377.61 2.24803C377.61 2.39387 377.537 2.58347 377.391 2.81682L368.99 16.2052L378.222 30.4686ZM404.896 1.37297C405.129 1.37297 405.333 1.46048 405.508 1.63549C405.684 1.8105 405.771 2.01468 405.771 2.24803C405.771 2.48138 405.727 2.68556 405.64 2.86057L396.714 23.0744C395.693 25.3787 394.774 27.1434 393.958 28.3685C393.17 29.5644 392.237 30.4686 391.158 31.0812C390.078 31.6937 388.678 32 386.957 32H385.207C384.915 32 384.668 31.9125 384.463 31.7375C384.288 31.5333 384.201 31.2854 384.201 30.9937V29.1561C384.201 28.8644 384.288 28.6164 384.463 28.4123C384.668 28.2081 384.915 28.106 385.207 28.106H386.738C387.905 28.106 388.868 27.756 389.626 27.0559C390.414 26.3267 391.216 25.1162 392.033 23.4244L380.701 2.77306C380.613 2.59805 380.569 2.43763 380.569 2.29178C380.569 2.05843 380.657 1.85425 380.832 1.67924C381.036 1.47506 381.255 1.37297 381.488 1.37297H383.982C384.42 1.37297 384.77 1.6209 385.032 2.11677L394.133 18.6991L401.439 2.11677C401.527 1.88342 401.673 1.70841 401.877 1.59174C402.081 1.44589 402.3 1.37297 402.533 1.37297H404.896ZM16.6038 79.5302C13.175 79.5302 10.3117 79.053 8.01401 78.0986C5.75167 77.1088 4.05491 75.8363 2.92374 74.2809C1.79257 72.7255 1.13862 71.0465 0.961872 69.2437V69.1376C0.961872 68.8548 1.06792 68.6251 1.28001 68.4483C1.52746 68.2716 1.81025 68.1832 2.12839 68.1832H8.91541C9.65774 68.1832 10.2056 68.5013 10.5591 69.1376C11.4429 71.0111 13.3871 71.9479 16.3917 71.9479C18.3006 71.9479 19.8029 71.5944 20.8987 70.8874C22.0299 70.1451 22.5955 69.1199 22.5955 67.812C22.5955 66.4688 22.0829 65.4436 21.0578 64.7367C20.0327 64.0297 18.601 63.6762 16.7629 63.6762H12.8392C12.4857 63.6762 12.1675 63.5525 11.8847 63.305C11.6373 63.0222 11.5136 62.6864 11.5136 62.2976V58.0027C11.5136 57.6138 11.6373 57.2957 11.8847 57.0482C12.1675 56.7654 12.4857 56.6241 12.8392 56.6241H16.6568C18.1769 56.6241 19.3787 56.3059 20.2625 55.6696C21.1462 55.0333 21.588 54.0789 21.588 52.8064C21.588 51.6752 21.1285 50.7561 20.2094 50.0491C19.3257 49.3421 18.0708 48.9887 16.4448 48.9887C14.8894 48.9887 13.6345 49.2361 12.6801 49.731C11.761 50.2259 11.1777 50.9329 10.9303 51.8519C10.7536 52.2054 10.5591 52.4529 10.347 52.5943C10.1349 52.7357 9.83448 52.8064 9.44564 52.8064H2.44653C2.12839 52.8064 1.8456 52.7003 1.59815 52.4882C1.38606 52.2408 1.29769 51.958 1.33304 51.6398C1.50978 49.8017 2.12839 48.1226 3.18886 46.6026C4.28468 45.0472 5.94609 43.7923 8.17308 42.8379C10.4354 41.8482 13.2633 41.3533 16.6568 41.3533C19.5908 41.3533 22.1713 41.8305 24.3983 42.7849C26.6253 43.7393 28.3397 45.0296 29.5416 46.6556C30.7434 48.2463 31.3444 49.9961 31.3444 51.905C31.3444 55.4045 29.9481 57.932 27.1555 59.4873C28.9937 60.3711 30.3369 61.6083 31.1853 63.199C32.0337 64.7543 32.4579 66.4334 32.4579 68.2362C32.4579 70.4632 31.8039 72.4428 30.496 74.1749C29.2234 75.8716 27.3853 77.1972 24.9815 78.1516C22.6132 79.0707 19.8206 79.5302 16.6038 79.5302ZM36.2159 79C35.9331 79 35.668 78.894 35.4206 78.6819C35.2085 78.4344 35.1024 78.1693 35.1024 77.8865C35.1024 77.6744 35.1201 77.5153 35.1554 77.4093L47.616 43.3682C47.722 42.944 47.9518 42.5905 48.3053 42.3077C48.6588 42.0249 49.1183 41.8835 49.6839 41.8835H57.5314C58.097 41.8835 58.5565 42.0249 58.91 42.3077C59.2635 42.5905 59.4933 42.944 59.5993 43.3682L72.0068 77.4093L72.1129 77.8865C72.1129 78.1693 71.9892 78.4344 71.7417 78.6819C71.5296 78.894 71.2645 79 70.9464 79H64.4245C63.5761 79 63.0105 78.6288 62.7277 77.8865L60.6598 72.4781H46.5025L44.4876 77.8865C44.2048 78.6288 43.6215 79 42.7378 79H36.2159ZM58.5388 64.8427L53.6076 50.8445L48.6765 64.8427H58.5388ZM101.101 79.5302C97.6726 79.5302 94.7916 79 92.4586 77.9395C90.1609 76.8791 88.4465 75.5711 87.3153 74.0158C86.2195 72.4251 85.6362 70.8344 85.5655 69.2437C85.5655 68.9255 85.6716 68.6604 85.8837 68.4483C86.1311 68.2362 86.4139 68.1302 86.732 68.1302H93.6781C94.067 68.1302 94.3851 68.2009 94.6326 68.3423C94.88 68.4837 95.1098 68.7488 95.3219 69.1376C96.0288 70.9758 97.9554 71.8948 101.101 71.8948C102.904 71.8948 104.301 71.4883 105.29 70.6753C106.315 69.8269 106.828 68.6781 106.828 67.2288C106.828 64.4008 104.99 62.9869 101.314 62.9869H95.4279C95.0744 62.9869 94.7563 62.8632 94.4735 62.6157C94.226 62.3329 94.1023 62.0148 94.1023 61.6613V58.692C94.1023 57.9143 94.3851 57.3134 94.9507 56.8892L103.647 49.5189H88.906C88.5525 49.5189 88.2344 49.3952 87.9516 49.1477C87.7041 48.8649 87.5804 48.5468 87.5804 48.1933V43.2091C87.5804 42.8203 87.7041 42.5021 87.9516 42.2547C88.2344 42.0072 88.5525 41.8835 88.906 41.8835H113.297C113.686 41.8835 114.004 42.0072 114.251 42.2547C114.534 42.5021 114.675 42.8203 114.675 43.2091V47.7161C114.675 48.3877 114.393 48.971 113.827 49.4659L105.768 56.9422L106.139 57.0482C109.391 57.4724 111.954 58.5683 113.827 60.3357C115.736 62.0678 116.69 64.5599 116.69 67.812C116.69 70.1804 116.019 72.2483 114.675 74.0158C113.332 75.7832 111.476 77.1442 109.108 78.0986C106.74 79.053 104.071 79.5302 101.101 79.5302ZM131.859 79C131.541 79 131.258 78.894 131.01 78.6819C130.798 78.4344 130.692 78.1693 130.692 77.8865C130.692 77.6391 130.763 77.427 130.904 77.2502L142.464 60.0706L131.753 43.6333C131.647 43.4212 131.594 43.2091 131.594 42.997C131.594 42.7142 131.7 42.4668 131.912 42.2547C132.124 42.0072 132.389 41.8835 132.707 41.8835H140.396C140.82 41.8835 141.173 41.9895 141.456 42.2016C141.739 42.4137 142.004 42.6789 142.251 42.997L148.561 52.5943L154.977 42.997C155.437 42.2547 156.055 41.8835 156.833 41.8835H164.15C164.433 41.8835 164.68 42.0072 164.893 42.2547C165.14 42.4668 165.264 42.7142 165.264 42.997C165.264 43.2444 165.193 43.4565 165.052 43.6333L154.288 60.0176L165.953 77.2502C166.059 77.3916 166.112 77.6037 166.112 77.8865C166.112 78.1693 166.006 78.4344 165.794 78.6819C165.582 78.894 165.317 79 164.999 79H157.098C156.356 79 155.737 78.6465 155.242 77.9395L148.243 67.759L141.297 77.9395C140.908 78.6465 140.307 79 139.494 79H131.859ZM171.755 79C171.402 79 171.084 78.8763 170.801 78.6288C170.553 78.346 170.43 78.0279 170.43 77.6744V43.2091C170.43 42.8203 170.553 42.5021 170.801 42.2547C171.084 42.0072 171.402 41.8835 171.755 41.8835H187.928C192.382 41.8835 195.687 42.8026 197.843 44.6407C200.035 46.4435 201.13 49.024 201.13 52.3822C201.13 54.1496 200.671 55.652 199.752 56.8892C198.868 58.091 197.861 58.9748 196.729 59.5404C198.179 60.212 199.398 61.2901 200.388 62.7748C201.378 64.2594 201.873 65.9209 201.873 67.759C201.873 71.2939 200.706 74.0511 198.373 76.0307C196.04 78.0102 192.717 79 188.405 79H171.755ZM186.867 56.6241C188.281 56.6241 189.359 56.2706 190.101 55.5636C190.844 54.8213 191.215 53.8492 191.215 52.6473C191.215 51.4808 190.844 50.544 190.101 49.837C189.359 49.1301 188.281 48.7766 186.867 48.7766H179.974V56.6241H186.867ZM187.344 72.1069C188.794 72.1069 189.925 71.6827 190.738 70.8344C191.551 69.986 191.957 68.9609 191.957 67.759C191.957 66.4864 191.551 65.4436 190.738 64.6306C189.925 63.7822 188.794 63.358 187.344 63.358H179.974V72.1069H187.344ZM209.089 79C208.7 79 208.382 78.8763 208.135 78.6288C207.887 78.346 207.764 78.0102 207.764 77.6214V43.2091C207.764 42.8203 207.887 42.5021 208.135 42.2547C208.418 42.0072 208.736 41.8835 209.089 41.8835H215.929C216.318 41.8835 216.636 42.0072 216.884 42.2547C217.167 42.5021 217.308 42.8203 217.308 43.2091V64.5246L232.367 42.8909C232.791 42.2193 233.392 41.8835 234.169 41.8835H240.32C240.709 41.8835 241.027 42.0072 241.275 42.2547C241.522 42.5021 241.646 42.8203 241.646 43.2091V77.6744C241.646 78.0279 241.522 78.346 241.275 78.6288C241.027 78.8763 240.709 79 240.32 79H233.48C233.091 79 232.756 78.8763 232.473 78.6288C232.225 78.3814 232.102 78.0633 232.102 77.6744V57.1013L217.043 77.9926C216.583 78.6642 215.982 79 215.24 79H209.089ZM273.953 79C273.599 79 273.281 78.8763 272.998 78.6288C272.751 78.346 272.627 78.0279 272.627 77.6744V50.3673H262.765V55.1924C262.765 61.1664 262.376 65.8325 261.598 69.1906C260.821 72.5135 259.389 74.9702 257.303 76.5609C255.253 78.1163 252.266 78.9293 248.342 79C247.954 79 247.618 78.8763 247.335 78.6288C247.052 78.346 246.911 78.0102 246.911 77.6214V72.0539C246.911 71.3116 247.353 70.852 248.236 70.6753C250.145 70.3572 251.506 68.8018 252.319 66.0092C253.132 63.1813 253.539 59.1692 253.539 53.9729V43.2091C253.539 42.8203 253.663 42.5021 253.91 42.2547C254.193 42.0072 254.529 41.8835 254.917 41.8835H280.793C281.182 41.8835 281.5 42.0072 281.747 42.2547C282.03 42.5021 282.172 42.8203 282.172 43.2091V77.6744C282.172 78.0633 282.03 78.3814 281.747 78.6288C281.5 78.8763 281.182 79 280.793 79H273.953ZM290.851 79C290.462 79 290.144 78.8763 289.897 78.6288C289.649 78.346 289.526 78.0102 289.526 77.6214V43.2091C289.526 42.8203 289.649 42.5021 289.897 42.2547C290.18 42.0072 290.498 41.8835 290.851 41.8835H297.691C298.08 41.8835 298.398 42.0072 298.646 42.2547C298.928 42.5021 299.07 42.8203 299.07 43.2091V64.5246L314.129 42.8909C314.553 42.2193 315.154 41.8835 315.931 41.8835H322.082C322.471 41.8835 322.789 42.0072 323.037 42.2547C323.284 42.5021 323.408 42.8203 323.408 43.2091V77.6744C323.408 78.0279 323.284 78.346 323.037 78.6288C322.789 78.8763 322.471 79 322.082 79H315.242C314.853 79 314.517 78.8763 314.235 78.6288C313.987 78.3814 313.863 78.0633 313.863 77.6744V57.1013L298.805 77.9926C298.345 78.6642 297.744 79 297.002 79H290.851ZM332.172 79C331.784 79 331.465 78.8763 331.218 78.6288C330.97 78.3814 330.847 78.0633 330.847 77.6744V43.2091C330.847 42.8203 330.97 42.5021 331.218 42.2547C331.501 42.0072 331.819 41.8835 332.172 41.8835H339.012C339.401 41.8835 339.719 42.0072 339.967 42.2547C340.25 42.5021 340.391 42.8203 340.391 43.2091V55.9878H353.435V43.2091C353.435 42.8203 353.559 42.5021 353.806 42.2547C354.053 42.0072 354.372 41.8835 354.76 41.8835H361.6C361.989 41.8835 362.307 42.0072 362.555 42.2547C362.802 42.5021 362.926 42.8203 362.926 43.2091V77.6744C362.926 78.0633 362.802 78.3814 362.555 78.6288C362.307 78.8763 361.989 79 361.6 79H354.76C354.372 79 354.053 78.8763 353.806 78.6288C353.559 78.3814 353.435 78.0633 353.435 77.6744V64.4715H340.391V77.6744C340.391 78.0633 340.25 78.3814 339.967 78.6288C339.719 78.8763 339.401 79 339.012 79H332.172ZM371.681 79C371.292 79 370.974 78.8763 370.727 78.6288C370.479 78.346 370.356 78.0102 370.356 77.6214V43.2091C370.356 42.8203 370.479 42.5021 370.727 42.2547C371.009 42.0072 371.328 41.8835 371.681 41.8835H378.521C378.91 41.8835 379.228 42.0072 379.476 42.2547C379.758 42.5021 379.9 42.8203 379.9 43.2091V64.5246L394.958 42.8909C395.383 42.2193 395.984 41.8835 396.761 41.8835H402.912C403.301 41.8835 403.619 42.0072 403.866 42.2547C404.114 42.5021 404.238 42.8203 404.238 43.2091V77.6744C404.238 78.0279 404.114 78.346 403.866 78.6288C403.619 78.8763 403.301 79 402.912 79H396.072C395.683 79 395.347 78.8763 395.064 78.6288C394.817 78.3814 394.693 78.0633 394.693 77.6744V57.1013L379.635 77.9926C379.175 78.6642 378.574 79 377.832 79H371.681Z" fill="white"/>
</svg>
