<svg width="283" height="65" viewBox="0 0 283 65" fill="none" xmlns="http://www.w3.org/2000/svg">
<path d="M9.92901 29.3224C7.11348 29.3224 4.93197 28.5916 3.3845 27.1301C1.85852 25.6471 1.05255 23.4227 0.966578 20.4567C0.945085 19.8119 0.934339 18.8985 0.934339 17.7164C0.934339 16.5343 0.945085 15.6316 0.966578 15.0083C1.05255 12.1068 1.89076 9.90378 3.48122 8.39929C5.07167 6.87332 7.22094 6.11033 9.92901 6.11033C12.6156 6.11033 14.7541 6.87332 16.3446 8.39929C17.935 9.90378 18.7732 12.1068 18.8592 15.0083C18.9022 16.2549 18.9237 17.1575 18.9237 17.7164C18.9237 18.2537 18.9022 19.1671 18.8592 20.4567C18.7732 23.4227 17.9565 25.6471 16.409 27.1301C14.8831 28.5916 12.7231 29.3224 9.92901 29.3224ZM9.92901 26.5821C11.6269 26.5821 12.981 26.0663 13.9911 25.0346C15.0013 24.003 15.5493 22.4232 15.6353 20.2955C15.6783 19.0059 15.6998 18.1462 15.6998 17.7164C15.6998 17.2435 15.6783 16.3838 15.6353 15.1372C15.5493 13.0095 14.9905 11.4298 13.9589 10.3981C12.9487 9.36646 11.6054 8.85064 9.92901 8.85064C8.23109 8.85064 6.86631 9.36646 5.83466 10.3981C4.82451 11.4298 4.27645 13.0095 4.19048 15.1372C4.16898 15.7605 4.15824 16.6202 4.15824 17.7164C4.15824 18.791 4.16898 19.6507 4.19048 20.2955C4.27645 22.4232 4.82451 24.003 5.83466 25.0346C6.86631 26.0663 8.23109 26.5821 9.92901 26.5821ZM29.2968 29C29.0819 29 28.8992 28.9355 28.7488 28.8066C28.6198 28.6561 28.5553 28.4734 28.5553 28.2585V9.30199H22.3654C22.1505 9.30199 21.9678 9.23751 21.8174 9.10855C21.6884 8.9581 21.624 8.77542 21.624 8.56049V7.20645C21.624 6.99152 21.6884 6.80884 21.8174 6.65839C21.9678 6.50794 22.1505 6.43272 22.3654 6.43272H37.9046C38.1411 6.43272 38.3237 6.50794 38.4527 6.65839C38.6031 6.78734 38.6784 6.97003 38.6784 7.20645V8.56049C38.6784 8.77542 38.6031 8.9581 38.4527 9.10855C38.3022 9.23751 38.1196 9.30199 37.9046 9.30199H31.747V28.2585C31.747 28.4734 31.6718 28.6561 31.5213 28.8066C31.3709 28.9355 31.1882 29 30.9733 29H29.2968ZM43.0339 29C42.819 29 42.6363 28.9355 42.4858 28.8066C42.3569 28.6561 42.2924 28.4734 42.2924 28.2585V7.20645C42.2924 6.97003 42.3569 6.78734 42.4858 6.65839C42.6363 6.50794 42.819 6.43272 43.0339 6.43272H51.2226C53.6513 6.43272 55.5641 7.02376 56.9611 8.20586C58.3582 9.38796 59.0567 11.0966 59.0567 13.3319C59.0567 15.5671 58.3582 17.2758 56.9611 18.4579C55.5856 19.6185 53.6728 20.1988 51.2226 20.1988H45.5163V28.2585C45.5163 28.4734 45.4411 28.6561 45.2906 28.8066C45.1402 28.9355 44.9575 29 44.7426 29H43.0339ZM51.0614 17.4907C52.6304 17.4907 53.8125 17.1361 54.6077 16.4268C55.4244 15.7175 55.8328 14.6859 55.8328 13.3319C55.8328 11.9778 55.4352 10.9462 54.6399 10.2369C53.8447 9.50616 52.6519 9.14079 51.0614 9.14079H45.4841V17.4907H51.0614ZM63.7185 29C63.5036 29 63.3209 28.9355 63.1704 28.8066C63.0415 28.6561 62.977 28.4627 62.977 28.2263V7.20645C62.977 6.97003 63.0415 6.78734 63.1704 6.65839C63.3209 6.50794 63.5036 6.43272 63.7185 6.43272H65.3949C65.6098 6.43272 65.7818 6.50794 65.9107 6.65839C66.0612 6.80884 66.1364 6.99152 66.1364 7.20645V23.874L78.1615 6.88406C78.3335 6.58316 78.6021 6.43272 78.9675 6.43272H80.5472C80.7622 6.43272 80.9341 6.50794 81.0631 6.65839C81.2135 6.78734 81.2887 6.97003 81.2887 7.20645V28.2585C81.2887 28.4734 81.2135 28.6561 81.0631 28.8066C80.9341 28.9355 80.7622 29 80.5472 29H78.903C78.6881 29 78.5054 28.9355 78.355 28.8066C78.2045 28.6561 78.1293 28.4734 78.1293 28.2585V11.7199L66.1364 28.5487C65.9645 28.8496 65.6958 29 65.3304 29H63.7185ZM87.6459 29C87.4309 29 87.2482 28.9355 87.0978 28.8066C86.9688 28.6561 86.9044 28.4734 86.9044 28.2585V7.20645C86.9044 6.97003 86.9688 6.78734 87.0978 6.65839C87.2482 6.50794 87.4309 6.43272 87.6459 6.43272H89.2578C89.6017 6.43272 89.8811 6.60466 90.096 6.94854L96.8984 19.9731L103.765 6.94854C103.808 6.81958 103.894 6.70137 104.023 6.59391C104.174 6.48645 104.356 6.43272 104.571 6.43272H106.151C106.387 6.43272 106.57 6.50794 106.699 6.65839C106.85 6.78734 106.925 6.97003 106.925 7.20645V28.2585C106.925 28.4734 106.85 28.6561 106.699 28.8066C106.549 28.9355 106.366 29 106.151 29H104.571C104.356 29 104.174 28.9355 104.023 28.8066C103.894 28.6561 103.83 28.4734 103.83 28.2585V12.3969L98.4459 22.9068C98.231 23.3582 97.8871 23.5839 97.4143 23.5839H96.4149C95.942 23.5839 95.5981 23.3582 95.3832 22.9068L89.9671 12.3969V28.2585C89.9671 28.4734 89.8918 28.6561 89.7414 28.8066C89.6124 28.9355 89.4405 29 89.2256 29H87.6459ZM110.985 29C110.813 29 110.663 28.9355 110.534 28.8066C110.405 28.6776 110.34 28.5272 110.34 28.3552C110.34 28.1833 110.351 28.0651 110.373 28.0006L118.368 7.14197C118.54 6.66913 118.884 6.43272 119.399 6.43272H121.592C122.108 6.43272 122.451 6.66913 122.623 7.14197L130.586 28.0006L130.651 28.3552C130.651 28.5272 130.586 28.6776 130.457 28.8066C130.328 28.9355 130.178 29 130.006 29H128.362C128.125 29 127.943 28.9463 127.814 28.8388C127.685 28.7098 127.599 28.5809 127.556 28.4519L125.783 23.874H115.208L113.435 28.4519C113.392 28.5809 113.296 28.7098 113.145 28.8388C113.016 28.9463 112.844 29 112.629 29H110.985ZM124.848 21.1015L120.496 9.65661L116.143 21.1015H124.848ZM134.839 29C134.624 29 134.442 28.9355 134.291 28.8066C134.162 28.6561 134.098 28.4627 134.098 28.2263V7.20645C134.098 6.97003 134.162 6.78734 134.291 6.65839C134.442 6.50794 134.624 6.43272 134.839 6.43272H136.516C136.731 6.43272 136.903 6.50794 137.032 6.65839C137.182 6.80884 137.257 6.99152 137.257 7.20645V23.874L149.282 6.88406C149.454 6.58316 149.723 6.43272 150.088 6.43272H151.668C151.883 6.43272 152.055 6.50794 152.184 6.65839C152.334 6.78734 152.41 6.97003 152.41 7.20645V28.2585C152.41 28.4734 152.334 28.6561 152.184 28.8066C152.055 28.9355 151.883 29 151.668 29H150.024C149.809 29 149.626 28.9355 149.476 28.8066C149.325 28.6561 149.25 28.4734 149.25 28.2585V11.7199L137.257 28.5487C137.085 28.8496 136.817 29 136.451 29H134.839ZM143.157 5.14316C141.373 5.14316 140.094 4.76704 139.321 4.01479C138.547 3.26255 138.16 2.30613 138.16 1.14552C138.16 0.973583 138.214 0.833881 138.321 0.726417C138.429 0.597462 138.579 0.532984 138.773 0.532984H139.901C140.094 0.532984 140.245 0.597462 140.352 0.726417C140.46 0.833881 140.513 0.973583 140.513 1.14552C140.513 2.47807 141.395 3.14434 143.157 3.14434C144.919 3.14434 145.801 2.47807 145.801 1.14552C145.801 0.973583 145.854 0.833881 145.962 0.726417C146.069 0.597462 146.22 0.532984 146.413 0.532984H147.542C147.735 0.532984 147.885 0.597462 147.993 0.726417C148.1 0.833881 148.154 0.973583 148.154 1.14552C148.154 2.30613 147.767 3.26255 146.994 4.01479C146.22 4.76704 144.941 5.14316 143.157 5.14316ZM174.052 29.3224C171.236 29.3224 169.055 28.5916 167.507 27.1301C165.981 25.6471 165.175 23.4227 165.089 20.4567C165.068 19.8119 165.057 18.8985 165.057 17.7164C165.057 16.5343 165.068 15.6316 165.089 15.0083C165.175 12.1068 166.014 9.90378 167.604 8.39929C169.195 6.87332 171.344 6.11033 174.052 6.11033C176.738 6.11033 178.877 6.87332 180.467 8.39929C182.058 9.90378 182.896 12.1068 182.982 15.0083C183.025 16.2549 183.047 17.1575 183.047 17.7164C183.047 18.2537 183.025 19.1671 182.982 20.4567C182.896 23.4227 182.079 25.6471 180.532 27.1301C179.006 28.5916 176.846 29.3224 174.052 29.3224ZM174.052 26.5821C175.75 26.5821 177.104 26.0663 178.114 25.0346C179.124 24.003 179.672 22.4232 179.758 20.2955C179.801 19.0059 179.823 18.1462 179.823 17.7164C179.823 17.2435 179.801 16.3838 179.758 15.1372C179.672 13.0095 179.113 11.4298 178.082 10.3981C177.072 9.36646 175.728 8.85064 174.052 8.85064C172.354 8.85064 170.989 9.36646 169.957 10.3981C168.947 11.4298 168.399 13.0095 168.313 15.1372C168.292 15.7605 168.281 16.6202 168.281 17.7164C168.281 18.791 168.292 19.6507 168.313 20.2955C168.399 22.4232 168.947 24.003 169.957 25.0346C170.989 26.0663 172.354 26.5821 174.052 26.5821ZM205.09 33.5135C204.875 33.5135 204.693 33.4382 204.542 33.2878C204.413 33.1588 204.349 32.9869 204.349 32.772V29H188.487C188.272 29 188.089 28.9355 187.939 28.8066C187.81 28.6561 187.746 28.4627 187.746 28.2263V7.17421C187.746 6.93779 187.81 6.75511 187.939 6.62615C188.089 6.49719 188.272 6.43272 188.487 6.43272H190.131C190.346 6.43272 190.529 6.50794 190.679 6.65839C190.83 6.78734 190.905 6.95929 190.905 7.17421V26.0985H201.995V7.17421C201.995 6.95929 202.06 6.78734 202.189 6.65839C202.339 6.50794 202.522 6.43272 202.737 6.43272H204.381C204.596 6.43272 204.779 6.50794 204.929 6.65839C205.079 6.78734 205.155 6.95929 205.155 7.17421V26.0985H206.734C206.949 26.0985 207.132 26.1737 207.282 26.3242C207.433 26.4531 207.508 26.6251 207.508 26.84V32.772C207.508 32.9869 207.433 33.1588 207.282 33.2878C207.132 33.4382 206.949 33.5135 206.734 33.5135H205.09ZM212.163 29C211.948 29 211.765 28.9355 211.615 28.8066C211.486 28.6561 211.421 28.4734 211.421 28.2585V7.17421C211.421 6.95929 211.486 6.78734 211.615 6.65839C211.765 6.50794 211.948 6.43272 212.163 6.43272H213.871C214.086 6.43272 214.258 6.50794 214.387 6.65839C214.538 6.78734 214.613 6.95929 214.613 7.17421V28.2585C214.613 28.4734 214.538 28.6561 214.387 28.8066C214.258 28.9355 214.086 29 213.871 29H212.163ZM220.978 29C220.763 29 220.58 28.9355 220.43 28.8066C220.301 28.6561 220.236 28.4734 220.236 28.2585V7.20645C220.236 6.97003 220.301 6.78734 220.43 6.65839C220.58 6.50794 220.763 6.43272 220.978 6.43272H222.622C222.859 6.43272 223.041 6.50794 223.17 6.65839C223.321 6.78734 223.396 6.97003 223.396 7.20645V16.1044H234.486V7.20645C234.486 6.97003 234.551 6.78734 234.68 6.65839C234.83 6.50794 235.013 6.43272 235.228 6.43272H236.872C237.108 6.43272 237.291 6.50794 237.42 6.65839C237.57 6.78734 237.645 6.97003 237.645 7.20645V28.2585C237.645 28.4734 237.57 28.6561 237.42 28.8066C237.269 28.9355 237.087 29 236.872 29H235.228C235.013 29 234.83 28.9355 234.68 28.8066C234.551 28.6561 234.486 28.4734 234.486 28.2585V19.0059H223.396V28.2585C223.396 28.4734 223.321 28.6561 223.17 28.8066C223.02 28.9355 222.837 29 222.622 29H220.978ZM259.757 27.8716C259.822 27.9576 259.854 28.0758 259.854 28.2263C259.854 28.4412 259.779 28.6239 259.628 28.7743C259.499 28.9248 259.327 29 259.112 29H257.275C257.06 29 256.888 28.957 256.759 28.871C256.651 28.7851 256.544 28.6669 256.437 28.5164L250.247 19.0059H246.41V28.2585C246.41 28.4734 246.335 28.6561 246.185 28.8066C246.034 28.9355 245.851 29 245.636 29H243.992C243.777 29 243.595 28.9355 243.444 28.8066C243.315 28.6561 243.251 28.4734 243.251 28.2585V7.20645C243.251 6.97003 243.315 6.78734 243.444 6.65839C243.595 6.50794 243.777 6.43272 243.992 6.43272H245.636C245.873 6.43272 246.056 6.50794 246.185 6.65839C246.335 6.78734 246.41 6.97003 246.41 7.20645V16.1044L250.085 16.1366L255.792 6.94854C256.007 6.60466 256.372 6.43272 256.888 6.43272H258.629C259.08 6.43272 259.306 6.64764 259.306 7.0775C259.306 7.18496 259.252 7.32466 259.145 7.4966L252.955 17.3617L259.757 27.8716ZM279.412 6.43272C279.584 6.43272 279.734 6.49719 279.863 6.62615C279.992 6.75511 280.056 6.90555 280.056 7.0775C280.056 7.24944 280.024 7.39989 279.96 7.52884L273.383 22.4232C272.631 24.1212 271.954 25.4215 271.352 26.3242C270.772 27.2054 270.084 27.8716 269.289 28.323C268.493 28.7743 267.462 29 266.194 29H264.904C264.689 29 264.506 28.9355 264.356 28.8066C264.227 28.6561 264.163 28.4734 264.163 28.2585V26.9045C264.163 26.6895 264.227 26.5069 264.356 26.3564C264.506 26.206 264.689 26.1307 264.904 26.1307H266.032C266.892 26.1307 267.601 25.8728 268.16 25.357C268.74 24.8197 269.332 23.9277 269.933 22.6812L261.583 7.46436C261.519 7.33541 261.487 7.2172 261.487 7.10973C261.487 6.93779 261.551 6.78734 261.68 6.65839C261.831 6.50794 261.992 6.43272 262.164 6.43272H264.001C264.324 6.43272 264.582 6.6154 264.775 6.98078L271.481 19.1994L276.865 6.98078C276.929 6.80884 277.037 6.67988 277.187 6.59391C277.338 6.48645 277.499 6.43272 277.671 6.43272H279.412ZM11.3088 64.3707C8.91134 64.3707 6.9093 64.0371 5.30272 63.3697C3.72086 62.6777 2.53447 61.7879 1.74354 60.7003C0.952607 59.6128 0.495351 58.4388 0.371768 57.1782V57.1041C0.371768 56.9064 0.445918 56.7457 0.594217 56.6221C0.767233 56.4985 0.964966 56.4367 1.18741 56.4367H5.93299C6.45204 56.4367 6.83515 56.6592 7.08231 57.1041C7.70023 58.4141 9.05964 59.069 11.1605 59.069C12.4952 59.069 13.5457 58.8219 14.3119 58.3276C15.1028 57.8085 15.4983 57.0917 15.4983 56.1772C15.4983 55.238 15.1399 54.5212 14.4231 54.0269C13.7063 53.5325 12.7053 53.2854 11.4201 53.2854H8.67653C8.42936 53.2854 8.20691 53.1989 8.00918 53.0259C7.83617 52.8281 7.74966 52.5933 7.74966 52.3214V49.3184C7.74966 49.0465 7.83617 48.824 8.00918 48.651C8.20691 48.4533 8.42936 48.3544 8.67653 48.3544H11.3459C12.4087 48.3544 13.2491 48.132 13.867 47.6871C14.4849 47.2422 14.7939 46.5748 14.7939 45.685C14.7939 44.8941 14.4726 44.2515 13.8299 43.7571C13.212 43.2628 12.3346 43.0156 11.1976 43.0156C10.1101 43.0156 9.23265 43.1887 8.5653 43.5347C7.92267 43.8807 7.51485 44.3751 7.34184 45.0177C7.21825 45.2649 7.08231 45.4379 6.93401 45.5367C6.78571 45.6356 6.57562 45.685 6.30374 45.685H1.40986C1.18741 45.685 0.989682 45.6109 0.816666 45.4626C0.668367 45.2896 0.606576 45.0918 0.631292 44.8694C0.754875 43.5841 1.18741 42.4101 1.92891 41.3473C2.69512 40.2598 3.8568 39.3823 5.41394 38.715C6.9958 38.0229 8.97313 37.6769 11.3459 37.6769C13.3974 37.6769 15.2017 38.0105 16.7588 38.6779C18.316 39.3452 19.5147 40.2474 20.3551 41.3844C21.1955 42.4966 21.6156 43.7201 21.6156 45.0548C21.6156 47.5017 20.6393 49.2689 18.6867 50.3565C19.972 50.9744 20.9112 51.8395 21.5044 52.9517C22.0976 54.0392 22.3942 55.2133 22.3942 56.4738C22.3942 58.031 21.937 59.4151 21.0224 60.6262C20.1326 61.8126 18.8474 62.7395 17.1667 63.4068C15.5107 64.0494 13.558 64.3707 11.3088 64.3707ZM25.0219 64C24.8242 64 24.6388 63.9259 24.4658 63.7776C24.3175 63.6045 24.2433 63.4192 24.2433 63.2214C24.2433 63.0731 24.2557 62.9619 24.2804 62.8878L32.993 39.0857C33.0671 38.7891 33.2278 38.542 33.4749 38.3442C33.7221 38.1465 34.0434 38.0476 34.4389 38.0476H39.926C40.3214 38.0476 40.6427 38.1465 40.8899 38.3442C41.1371 38.542 41.2977 38.7891 41.3719 39.0857L50.0474 62.8878L50.1215 63.2214C50.1215 63.4192 50.035 63.6045 49.862 63.7776C49.7137 63.9259 49.5283 64 49.3059 64H44.7457C44.1525 64 43.757 63.7405 43.5593 63.2214L42.1134 59.4398H32.2144L30.8056 63.2214C30.6078 63.7405 30.2 64 29.5821 64H25.0219ZM40.6304 54.101L37.1824 44.3133L33.7345 54.101H40.6304ZM70.3908 64.3707C67.9933 64.3707 65.9789 64 64.3476 63.2585C62.741 62.517 61.5422 61.6025 60.7513 60.515C59.9851 59.4027 59.5773 58.2905 59.5278 57.1782C59.5278 56.9558 59.602 56.7704 59.7503 56.6221C59.9233 56.4738 60.121 56.3997 60.3435 56.3997H65.2003C65.4722 56.3997 65.6946 56.4491 65.8676 56.548C66.0406 56.6468 66.2013 56.8322 66.3496 57.1041C66.8439 58.3893 68.191 59.032 70.3908 59.032C71.6513 59.032 72.6276 58.7477 73.3197 58.1793C74.0364 57.5861 74.3948 56.7828 74.3948 55.7694C74.3948 53.7921 73.1096 52.8034 70.5391 52.8034H66.4237C66.1766 52.8034 65.9541 52.7169 65.7564 52.5439C65.5834 52.3461 65.4969 52.1237 65.4969 51.8765V49.8003C65.4969 49.2566 65.6946 48.8364 66.0901 48.5398L72.1703 43.3864H61.8635C61.6164 43.3864 61.3939 43.2999 61.1962 43.1269C61.0232 42.9291 60.9367 42.7067 60.9367 42.4595V38.9745C60.9367 38.7026 61.0232 38.4802 61.1962 38.3071C61.3939 38.1341 61.6164 38.0476 61.8635 38.0476H78.918C79.1898 38.0476 79.4123 38.1341 79.5853 38.3071C79.783 38.4802 79.8819 38.7026 79.8819 38.9745V42.1259C79.8819 42.5955 79.6842 43.0033 79.2887 43.3493L73.6533 48.5769L73.9129 48.651C76.1868 48.9476 77.9787 49.7138 79.2887 50.9497C80.6234 52.1608 81.2908 53.9033 81.2908 56.1772C81.2908 57.8332 80.8211 59.2791 79.8819 60.515C78.9427 61.7508 77.6451 62.7024 75.9891 63.3697C74.333 64.0371 72.4669 64.3707 70.3908 64.3707ZM91.8968 64C91.6743 64 91.4766 63.9259 91.3036 63.7776C91.1553 63.6045 91.0811 63.4192 91.0811 63.2214C91.0811 63.0484 91.1305 62.9001 91.2294 62.7765L99.3117 50.7643L91.8226 39.2711C91.7485 39.1228 91.7114 38.9745 91.7114 38.8262C91.7114 38.6285 91.7855 38.4554 91.9338 38.3071C92.0821 38.1341 92.2675 38.0476 92.49 38.0476H97.8658C98.1624 38.0476 98.4096 38.1218 98.6073 38.2701C98.805 38.4184 98.9904 38.6037 99.1634 38.8262L103.575 45.5367L108.061 38.8262C108.383 38.3071 108.815 38.0476 109.359 38.0476H114.475C114.673 38.0476 114.846 38.1341 114.994 38.3071C115.167 38.4554 115.254 38.6285 115.254 38.8262C115.254 38.9992 115.204 39.1475 115.106 39.2711L107.579 50.7272L115.736 62.7765C115.81 62.8754 115.847 63.0237 115.847 63.2214C115.847 63.4192 115.773 63.6045 115.625 63.7776C115.476 63.9259 115.291 64 115.069 64H109.544C109.025 64 108.593 63.7528 108.247 63.2585L103.353 56.1401L98.4961 63.2585C98.2242 63.7528 97.804 64 97.2355 64H91.8968ZM119.793 64C119.546 64 119.323 63.9135 119.126 63.7405C118.953 63.5427 118.866 63.3203 118.866 63.0731V38.9745C118.866 38.7026 118.953 38.4802 119.126 38.3071C119.323 38.1341 119.546 38.0476 119.793 38.0476H131.101C134.215 38.0476 136.526 38.6903 138.034 39.9755C139.566 41.2361 140.332 43.0404 140.332 45.3884C140.332 46.6243 140.011 47.6747 139.368 48.5398C138.751 49.3802 138.046 49.9981 137.255 50.3935C138.269 50.8632 139.121 51.617 139.813 52.6551C140.505 53.6932 140.851 54.8549 140.851 56.1401C140.851 58.6118 140.036 60.5397 138.405 61.9238C136.773 63.3079 134.45 64 131.434 64H119.793ZM130.359 48.3544C131.348 48.3544 132.102 48.1073 132.621 47.6129C133.14 47.0939 133.399 46.4142 133.399 45.5738C133.399 44.7582 133.14 44.1032 132.621 43.6088C132.102 43.1145 131.348 42.8673 130.359 42.8673H125.54V48.3544H130.359ZM130.693 59.1803C131.706 59.1803 132.497 58.8837 133.066 58.2905C133.634 57.6973 133.918 56.9805 133.918 56.1401C133.918 55.2503 133.634 54.5212 133.066 53.9527C132.497 53.3595 131.706 53.0629 130.693 53.0629H125.54V59.1803H130.693ZM145.897 64C145.626 64 145.403 63.9135 145.23 63.7405C145.057 63.5427 144.971 63.3079 144.971 63.0361V38.9745C144.971 38.7026 145.057 38.4802 145.23 38.3071C145.428 38.1341 145.65 38.0476 145.897 38.0476H150.68C150.952 38.0476 151.174 38.1341 151.347 38.3071C151.545 38.4802 151.644 38.7026 151.644 38.9745V53.8786L162.173 38.752C162.47 38.2824 162.89 38.0476 163.434 38.0476H167.734C168.006 38.0476 168.229 38.1341 168.402 38.3071C168.575 38.4802 168.661 38.7026 168.661 38.9745V63.0731C168.661 63.3203 168.575 63.5427 168.402 63.7405C168.229 63.9135 168.006 64 167.734 64H162.952C162.68 64 162.445 63.9135 162.247 63.7405C162.074 63.5675 161.988 63.345 161.988 63.0731V48.6881L151.459 63.2956C151.137 63.7652 150.717 64 150.198 64H145.897ZM191.251 64C191.004 64 190.781 63.9135 190.584 63.7405C190.411 63.5427 190.324 63.3203 190.324 63.0731V43.9796H183.428V47.3534C183.428 51.5305 183.156 54.7931 182.612 57.1412C182.069 59.4645 181.068 61.1823 179.609 62.2946C178.176 63.3821 176.087 63.9506 173.344 64C173.072 64 172.837 63.9135 172.639 63.7405C172.442 63.5427 172.343 63.3079 172.343 63.0361V59.1432C172.343 58.6242 172.652 58.3028 173.27 58.1793C174.604 57.9568 175.556 56.8693 176.124 54.9167C176.693 52.9393 176.977 50.134 176.977 46.5007V38.9745C176.977 38.7026 177.064 38.4802 177.237 38.3071C177.434 38.1341 177.669 38.0476 177.941 38.0476H196.034C196.305 38.0476 196.528 38.1341 196.701 38.3071C196.899 38.4802 196.998 38.7026 196.998 38.9745V63.0731C196.998 63.345 196.899 63.5675 196.701 63.7405C196.528 63.9135 196.305 64 196.034 64H191.251ZM203.066 64C202.795 64 202.572 63.9135 202.399 63.7405C202.226 63.5427 202.14 63.3079 202.14 63.0361V38.9745C202.14 38.7026 202.226 38.4802 202.399 38.3071C202.597 38.1341 202.819 38.0476 203.066 38.0476H207.849C208.121 38.0476 208.343 38.1341 208.516 38.3071C208.714 38.4802 208.813 38.7026 208.813 38.9745V53.8786L219.342 38.752C219.639 38.2824 220.059 38.0476 220.603 38.0476H224.904C225.175 38.0476 225.398 38.1341 225.571 38.3071C225.744 38.4802 225.83 38.7026 225.83 38.9745V63.0731C225.83 63.3203 225.744 63.5427 225.571 63.7405C225.398 63.9135 225.175 64 224.904 64H220.121C219.849 64 219.614 63.9135 219.416 63.7405C219.243 63.5675 219.157 63.345 219.157 63.0731V48.6881L208.628 63.2956C208.306 63.7652 207.886 64 207.367 64H203.066ZM231.959 64C231.687 64 231.464 63.9135 231.291 63.7405C231.118 63.5675 231.032 63.345 231.032 63.0731V38.9745C231.032 38.7026 231.118 38.4802 231.291 38.3071C231.489 38.1341 231.712 38.0476 231.959 38.0476H236.741C237.013 38.0476 237.236 38.1341 237.409 38.3071C237.607 38.4802 237.705 38.7026 237.705 38.9745V47.9095H246.826V38.9745C246.826 38.7026 246.912 38.4802 247.085 38.3071C247.258 38.1341 247.481 38.0476 247.753 38.0476H252.535C252.807 38.0476 253.03 38.1341 253.203 38.3071C253.376 38.4802 253.462 38.7026 253.462 38.9745V63.0731C253.462 63.345 253.376 63.5675 253.203 63.7405C253.03 63.9135 252.807 64 252.535 64H247.753C247.481 64 247.258 63.9135 247.085 63.7405C246.912 63.5675 246.826 63.345 246.826 63.0731V53.8415H237.705V63.0731C237.705 63.345 237.607 63.5675 237.409 63.7405C237.236 63.9135 237.013 64 236.741 64H231.959ZM259.584 64C259.312 64 259.09 63.9135 258.916 63.7405C258.743 63.5427 258.657 63.3079 258.657 63.0361V38.9745C258.657 38.7026 258.743 38.4802 258.916 38.3071C259.114 38.1341 259.337 38.0476 259.584 38.0476H264.366C264.638 38.0476 264.861 38.1341 265.034 38.3071C265.232 38.4802 265.33 38.7026 265.33 38.9745V53.8786L275.86 38.752C276.156 38.2824 276.576 38.0476 277.12 38.0476H281.421C281.693 38.0476 281.915 38.1341 282.088 38.3071C282.261 38.4802 282.348 38.7026 282.348 38.9745V63.0731C282.348 63.3203 282.261 63.5427 282.088 63.7405C281.915 63.9135 281.693 64 281.421 64H276.638C276.366 64 276.132 63.9135 275.934 63.7405C275.761 63.5675 275.674 63.345 275.674 63.0731V48.6881L265.145 63.2956C264.824 63.7652 264.404 64 263.885 64H259.584Z" fill="#E96325"/>
</svg>
