<svg width="304" height="116" viewBox="0 0 304 116" fill="none" xmlns="http://www.w3.org/2000/svg">
<path d="M4.69486 75.9155C3.97623 75.9155 3.32946 75.6624 2.75456 75.1563C2.25152 74.5779 2 73.9272 2 73.2042V2.71127C2 1.91596 2.25152 1.26526 2.75456 0.759157C3.32946 0.253052 3.97623 0 4.69486 0H34.8773C44.0757 0 51.2979 2.13286 56.5439 6.39859C61.8618 10.6643 64.5207 16.8822 64.5207 25.0521C64.5207 33.1498 61.8977 39.2592 56.6517 43.3803C51.4057 47.4291 44.1476 49.4535 34.8773 49.4535H22.0497V73.2042C22.0497 73.9995 21.7623 74.6502 21.1874 75.1563C20.6843 75.6624 20.0376 75.9155 19.2471 75.9155H4.69486ZM34.3383 34.4873C37.5003 34.4873 39.9795 33.692 41.7761 32.1014C43.5727 30.4385 44.471 28.0164 44.471 24.8352C44.471 21.8709 43.6086 19.5211 41.8839 17.7859C40.231 15.9784 37.7158 15.0746 34.3383 15.0746H21.7264V34.4873H34.3383Z" fill="#005182"/>
<path d="M89.2123 77C85.4036 77 81.9182 76.277 78.7563 74.831C75.6662 73.3127 73.2228 71.2883 71.4263 68.7578C69.7016 66.1549 68.8392 63.2991 68.8392 60.1901C68.8392 55.2014 70.8513 51.1887 74.8757 48.1521C78.9719 45.1155 84.5772 43.0188 91.6916 41.862L105.166 39.8014V38.2831C105.166 35.5357 104.591 33.5113 103.441 32.2099C102.291 30.9085 100.351 30.2577 97.6203 30.2577C95.9674 30.2577 94.602 30.5469 93.5241 31.1254C92.4461 31.7038 91.3323 32.4991 90.1825 33.5113C89.1764 34.3789 88.4218 34.9573 87.9188 35.2465C87.7032 35.8249 87.308 36.1141 86.733 36.1141H74.9835C74.2648 36.1141 73.654 35.8972 73.151 35.4634C72.7198 34.9573 72.5401 34.3789 72.612 33.7282C72.6839 31.7761 73.6181 29.607 75.4146 27.2211C77.2831 24.8352 80.0857 22.7746 83.8226 21.0394C87.6313 19.3042 92.3024 18.4366 97.8359 18.4366C106.675 18.4366 113.215 20.4249 117.454 24.4014C121.694 28.3056 123.814 33.5836 123.814 40.2352V73.2042C123.814 73.9272 123.563 74.5779 123.06 75.1563C122.557 75.6624 121.91 75.9155 121.119 75.9155H108.615C107.897 75.9155 107.25 75.6624 106.675 75.1563C106.172 74.5779 105.92 73.9272 105.92 73.2042V69.4085C104.339 71.6498 102.112 73.4934 99.2372 74.9394C96.4345 76.3131 93.0929 77 89.2123 77ZM94.2786 64.6366C97.5843 64.6366 100.243 63.5521 102.255 61.3831C104.339 59.2141 105.381 56.0329 105.381 51.8394V50.3211L96.2189 51.9479C89.7513 53.1047 86.5175 55.3822 86.5175 58.7803C86.5175 60.5878 87.272 62.0338 88.7811 63.1183C90.2903 64.1305 92.1228 64.6366 94.2786 64.6366Z" fill="#005182"/>
<path d="M138.673 75.9155C137.883 75.9155 137.236 75.6624 136.733 75.1563C136.23 74.6502 135.978 73.9995 135.978 73.2042V22.2324C135.978 21.4371 136.23 20.7864 136.733 20.2803C137.236 19.7742 137.883 19.5211 138.673 19.5211H151.069C151.86 19.5211 152.507 19.8103 153.01 20.3887C153.585 20.8948 153.872 21.5094 153.872 22.2324V26.5704C157.824 21.8709 163.142 19.5211 169.826 19.5211H174.569C175.359 19.5211 176.006 19.7742 176.509 20.2803C177.012 20.7864 177.263 21.4371 177.263 22.2324V33.4028C177.263 34.1258 177.012 34.7765 176.509 35.3549C176.006 35.861 175.359 36.1141 174.569 36.1141H164.112C161.166 36.1141 158.867 36.9455 157.214 38.6085C155.633 40.1991 154.842 42.4765 154.842 45.4408V73.2042C154.842 73.9995 154.555 74.6502 153.98 75.1563C153.477 75.6624 152.83 75.9155 152.04 75.9155H138.673Z" fill="#005182"/>
<path d="M205.516 77C199.193 77 194.09 74.8671 190.21 70.6014C186.329 66.2634 184.389 60.2263 184.389 52.4901V22.2324C184.389 21.4371 184.64 20.7864 185.143 20.2803C185.646 19.7742 186.293 19.5211 187.084 19.5211H200.558C201.348 19.5211 201.995 19.7742 202.498 20.2803C203.073 20.7864 203.361 21.4371 203.361 22.2324V51.8394C203.361 58.9249 206.487 62.4676 212.739 62.4676C215.757 62.4676 218.128 61.5277 219.853 59.6479C221.578 57.7681 222.44 55.1653 222.44 51.8394V22.2324C222.44 21.4371 222.692 20.7864 223.195 20.2803C223.77 19.7742 224.416 19.5211 225.135 19.5211H238.609C239.4 19.5211 240.047 19.7742 240.55 20.2803C241.053 20.7864 241.304 21.4371 241.304 22.2324V73.2042C241.304 73.9272 241.053 74.5779 240.55 75.1563C240.047 75.6624 239.4 75.9155 238.609 75.9155H226.105C225.387 75.9155 224.74 75.6624 224.165 75.1563C223.662 74.5779 223.41 73.9272 223.41 73.2042V69.0831C219.673 74.361 213.709 77 205.516 77Z" fill="#005182"/>
<path d="M277.051 77C271.231 77 266.344 76.1686 262.391 74.5056C258.511 72.8427 255.636 70.8545 253.768 68.5408C251.899 66.2272 250.965 64.1667 250.965 62.3592C250.965 61.6362 251.217 61.0578 251.72 60.624C252.295 60.1178 252.906 59.8648 253.552 59.8648H265.841C266.272 59.8648 266.667 60.0456 267.027 60.4071C267.889 60.9855 268.536 61.4554 268.967 61.8169C270.548 62.9737 271.913 63.8413 273.063 64.4197C274.285 64.9258 275.758 65.1789 277.483 65.1789C279.567 65.1789 281.255 64.7812 282.549 63.9859C283.914 63.1183 284.597 61.9254 284.597 60.4071C284.597 59.1779 284.238 58.2019 283.519 57.4789C282.872 56.7559 281.579 56.069 279.638 55.4183C277.698 54.6953 274.752 53.9362 270.799 53.1409C264.835 51.9117 260.236 49.9235 257.002 47.1761C253.84 44.3563 252.259 40.5967 252.259 35.8972C252.259 32.9329 253.193 30.1131 255.061 27.438C256.93 24.7629 259.697 22.5939 263.362 20.931C267.098 19.2681 271.518 18.4366 276.62 18.4366C281.723 18.4366 286.178 19.2319 289.987 20.8225C293.795 22.4131 296.67 24.3653 298.61 26.6789C300.622 28.9202 301.629 30.9808 301.629 32.8606C301.629 33.5113 301.377 34.0897 300.874 34.5958C300.443 35.1019 299.904 35.3549 299.257 35.3549H288.046C287.472 35.3549 286.933 35.1742 286.43 34.8127C285.495 34.3066 284.669 33.7643 283.95 33.1859C282.729 32.246 281.579 31.523 280.501 31.0169C279.423 30.5108 278.093 30.2577 276.512 30.2577C274.644 30.2577 273.135 30.6915 271.985 31.5592C270.907 32.4268 270.368 33.5474 270.368 34.9211C270.368 36.0056 270.656 36.9094 271.231 37.6324C271.877 38.3554 273.171 39.0784 275.111 39.8014C277.123 40.4521 280.07 41.139 283.95 41.862C290.921 43.0911 295.987 45.2601 299.149 48.369C302.383 51.4779 304 55.1291 304 59.3225C304 64.6728 301.629 68.9747 296.886 72.2282C292.143 75.4094 285.531 77 277.051 77Z" fill="#005182"/>
<path d="M14.343 97.8143C14.4924 97.8143 14.6232 97.8655 14.7352 97.968C14.8473 98.0534 14.9033 98.1644 14.9033 98.301V110.57C14.9033 110.741 14.8473 110.877 14.7352 110.98C14.6232 111.082 14.4831 111.133 14.315 111.133H12.9423C12.7556 111.133 12.6062 111.082 12.4941 110.98C12.3821 110.877 12.326 110.741 12.326 110.57V102.143L8.74028 108.342C8.60955 108.564 8.47882 108.734 8.34809 108.854C8.23603 108.956 8.05861 109.007 7.81582 109.007H7.08747C6.86336 109.007 6.68594 108.956 6.55521 108.854C6.44315 108.751 6.31242 108.581 6.16301 108.342L2.60528 102.297V110.57C2.60528 110.741 2.54925 110.877 2.43719 110.98C2.32514 111.082 2.17573 111.133 1.98897 111.133H0.616301C0.429543 111.133 0.280137 111.082 0.168082 110.98C0.0560274 110.877 0 110.741 0 110.57V98.301C0 98.1814 0.0560274 98.0704 0.168082 97.968C0.280137 97.8655 0.410868 97.8143 0.560274 97.8143H1.98897C2.26911 97.8143 2.50256 97.9509 2.68932 98.2241L7.45165 106.369L12.242 98.2241C12.3914 97.9509 12.6248 97.8143 12.9423 97.8143H14.343Z" fill="#206792"/>
<path d="M28.5639 111.39C26.6403 111.39 25.0996 110.852 23.9417 109.776C22.8024 108.683 22.1768 107.197 22.0647 105.319L22.0367 104.448L22.0647 103.603C22.1955 101.759 22.8304 100.29 23.9697 99.1974C25.1276 98.1046 26.6496 97.5582 28.5359 97.5582C30.6089 97.5582 32.215 98.1644 33.3543 99.3767C34.4935 100.572 35.0631 102.194 35.0631 104.243V104.679C35.0631 104.85 34.9977 104.995 34.867 105.114C34.7549 105.217 34.6055 105.268 34.4188 105.268H24.726V105.498C24.7821 106.608 25.1462 107.556 25.8186 108.342C26.5096 109.11 27.4153 109.494 28.5359 109.494C29.395 109.494 30.0953 109.34 30.6369 109.033C31.1972 108.709 31.6081 108.376 31.8695 108.034C32.0376 107.829 32.159 107.71 32.2337 107.676C32.3271 107.624 32.4858 107.599 32.7099 107.599H34.0826C34.2507 107.599 34.3908 107.641 34.5028 107.727C34.6149 107.812 34.6709 107.932 34.6709 108.085C34.6709 108.461 34.4094 108.914 33.8865 109.443C33.3823 109.972 32.6632 110.433 31.7295 110.826C30.8143 111.202 29.7592 111.39 28.5639 111.39ZM32.4018 103.501V103.424C32.4018 102.245 32.047 101.289 31.3373 100.555C30.6463 99.8036 29.7125 99.428 28.5359 99.428C27.3593 99.428 26.4255 99.8036 25.7345 100.555C25.0622 101.289 24.726 102.245 24.726 103.424V103.501H32.4018Z" fill="#206792"/>
<path d="M42.7268 116C42.5401 116 42.3813 115.94 42.2506 115.821C42.1385 115.718 42.0825 115.582 42.0825 115.411V98.4034C42.0825 98.2327 42.1385 98.0961 42.2506 97.9936C42.3813 97.8741 42.5401 97.8143 42.7268 97.8143H44.0154C44.2022 97.8143 44.3516 97.8741 44.4637 97.9936C44.5944 98.0961 44.6598 98.2327 44.6598 98.4034V99.5304C45.7056 98.2156 47.237 97.5582 49.254 97.5582C51.215 97.5582 52.681 98.1217 53.6522 99.2487C54.642 100.376 55.1742 101.827 55.2489 103.603C55.2676 103.791 55.2769 104.081 55.2769 104.474C55.2769 104.867 55.2676 105.157 55.2489 105.345C55.1742 107.104 54.642 108.555 53.6522 109.699C52.6623 110.826 51.1963 111.39 49.254 111.39C47.3117 111.39 45.799 110.749 44.7158 109.469V115.411C44.7158 115.582 44.6598 115.718 44.5477 115.821C44.4356 115.94 44.2862 116 44.0995 116H42.7268ZM48.6657 109.315C49.9917 109.315 50.9535 108.939 51.5511 108.188C52.1674 107.437 52.5036 106.446 52.5596 105.217C52.5783 105.046 52.5876 104.798 52.5876 104.474C52.5876 101.247 51.2803 99.6329 48.6657 99.6329C47.3771 99.6329 46.4059 100.026 45.7523 100.811C45.1173 101.58 44.7718 102.502 44.7158 103.577L44.6878 104.551L44.7158 105.55C44.7531 106.557 45.108 107.437 45.7803 108.188C46.4526 108.939 47.4144 109.315 48.6657 109.315Z" fill="#206792"/>
<path d="M68.211 111.39C66.2874 111.39 64.7466 110.852 63.5887 109.776C62.4495 108.683 61.8238 107.197 61.7118 105.319L61.6838 104.448L61.7118 103.603C61.8425 101.759 62.4775 100.29 63.6167 99.1974C64.7746 98.1046 66.2967 97.5582 68.183 97.5582C70.256 97.5582 71.8621 98.1644 73.0013 99.3767C74.1405 100.572 74.7101 102.194 74.7101 104.243V104.679C74.7101 104.85 74.6448 104.995 74.5141 105.114C74.402 105.217 74.2526 105.268 74.0658 105.268H64.3731V105.498C64.4291 106.608 64.7933 107.556 65.4656 108.342C66.1566 109.11 67.0624 109.494 68.183 109.494C69.042 109.494 69.7424 109.34 70.284 109.033C70.8443 108.709 71.2551 108.376 71.5166 108.034C71.6847 107.829 71.8061 107.71 71.8808 107.676C71.9741 107.624 72.1329 107.599 72.357 107.599H73.7297C73.8978 107.599 74.0378 107.641 74.1499 107.727C74.2619 107.812 74.318 107.932 74.318 108.085C74.318 108.461 74.0565 108.914 73.5336 109.443C73.0293 109.972 72.3103 110.433 71.3765 110.826C70.4614 111.202 69.4062 111.39 68.211 111.39ZM72.0488 103.501V103.424C72.0488 102.245 71.694 101.289 70.9843 100.555C70.2933 99.8036 69.3595 99.428 68.183 99.428C67.0064 99.428 66.0726 99.8036 65.3816 100.555C64.7093 101.289 64.3731 102.245 64.3731 103.424V103.501H72.0488Z" fill="#206792"/>
<path d="M101.227 110.391C101.302 110.51 101.339 110.621 101.339 110.724C101.339 110.997 101.152 111.133 100.779 111.133H99.098C98.7992 111.133 98.5471 111.005 98.3417 110.749L94.2797 105.37H92.1226V110.544C92.1226 110.715 92.0573 110.86 91.9265 110.98C91.8145 111.082 91.6651 111.133 91.4783 111.133H90.1897C90.0029 111.133 89.8442 111.082 89.7134 110.98C89.6014 110.86 89.5454 110.715 89.5454 110.544V105.37H87.3603L83.2983 110.749C83.0929 111.005 82.8408 111.133 82.5419 111.133H80.8331C80.665 111.133 80.5249 111.099 80.4129 111.031C80.3195 110.946 80.2728 110.843 80.2728 110.724C80.2728 110.638 80.3195 110.527 80.4129 110.391L85.2032 104.166L80.9732 98.5315C80.8985 98.4461 80.8611 98.3436 80.8611 98.2241C80.8611 98.1046 80.9078 98.0107 81.0012 97.9424C81.1132 97.857 81.2533 97.8143 81.4214 97.8143H82.8781C83.1582 97.8143 83.4104 97.9424 83.6345 98.1985L87.3883 103.321H89.5454V98.4034C89.5454 98.2327 89.6014 98.0961 89.7134 97.9936C89.8442 97.8741 90.0029 97.8143 90.1897 97.8143H91.4783C91.6651 97.8143 91.8145 97.8741 91.9265 97.9936C92.0573 98.0961 92.1226 98.2327 92.1226 98.4034V103.321H94.1956L98.0055 98.1985C98.1923 97.9424 98.4351 97.8143 98.7339 97.8143H100.219C100.387 97.8143 100.517 97.857 100.611 97.9424C100.723 98.0107 100.779 98.1046 100.779 98.2241C100.779 98.3095 100.732 98.412 100.639 98.5315L96.4367 104.166L101.227 110.391Z" fill="#206792"/>
<path d="M111.783 111.39C110.868 111.39 110.019 111.219 109.234 110.877C108.45 110.536 107.824 110.075 107.357 109.494C106.909 108.896 106.685 108.239 106.685 107.522C106.685 106.395 107.189 105.473 108.198 104.756C109.225 104.021 110.607 103.543 112.344 103.321L116.518 102.783V102.041C116.518 100.299 115.425 99.428 113.24 99.428C112.418 99.428 111.746 99.5902 111.223 99.9146C110.7 100.222 110.308 100.589 110.047 101.016C109.991 101.17 109.916 101.281 109.822 101.349C109.748 101.417 109.636 101.451 109.486 101.451H108.282C108.114 101.451 107.964 101.4 107.834 101.298C107.721 101.178 107.665 101.042 107.665 100.888C107.684 100.478 107.89 100.017 108.282 99.5048C108.693 98.9755 109.318 98.5229 110.159 98.1473C110.999 97.7545 112.036 97.5582 113.268 97.5582C115.36 97.5582 116.863 98.0107 117.778 98.9157C118.693 99.8036 119.151 100.914 119.151 102.245V110.544C119.151 110.715 119.086 110.86 118.955 110.98C118.843 111.082 118.693 111.133 118.507 111.133H117.218C117.031 111.133 116.873 111.082 116.742 110.98C116.63 110.86 116.574 110.715 116.574 110.544V109.443C116.163 109.989 115.565 110.45 114.781 110.826C113.997 111.202 112.997 111.39 111.783 111.39ZM112.372 109.469C113.586 109.469 114.575 109.11 115.341 108.393C116.126 107.658 116.518 106.608 116.518 105.242V104.525L113.268 104.961C111.942 105.131 110.943 105.422 110.271 105.831C109.598 106.224 109.262 106.728 109.262 107.343C109.262 108.026 109.57 108.555 110.187 108.931C110.803 109.289 111.531 109.469 112.372 109.469Z" fill="#206792"/>
<path d="M136.628 111.133C136.441 111.133 136.283 111.074 136.152 110.954C136.021 110.835 135.956 110.689 135.956 110.519V109.571C135.956 109.4 136.012 109.264 136.124 109.161C136.236 109.059 136.376 109.007 136.544 109.007C137.44 108.973 138.103 108.393 138.533 107.266C138.981 106.122 139.205 104.26 139.205 101.682V98.4034C139.205 98.2327 139.261 98.0961 139.373 97.9936C139.504 97.8741 139.663 97.8143 139.85 97.8143H148.758C148.945 97.8143 149.094 97.8741 149.206 97.9936C149.337 98.0961 149.402 98.2327 149.402 98.4034V110.544C149.402 110.715 149.337 110.86 149.206 110.98C149.094 111.082 148.945 111.133 148.758 111.133H147.413C147.227 111.133 147.077 111.082 146.965 110.98C146.853 110.86 146.797 110.715 146.797 110.544V99.8634H141.755V101.964C141.755 105.225 141.344 107.573 140.522 109.007C139.7 110.425 138.402 111.133 136.628 111.133Z" fill="#206792"/>
<path d="M163.187 111.39C161.133 111.39 159.536 110.86 158.397 109.801C157.276 108.743 156.679 107.334 156.604 105.575L156.576 104.474L156.604 103.372C156.679 101.631 157.286 100.231 158.425 99.1718C159.564 98.0961 161.152 97.5582 163.187 97.5582C165.223 97.5582 166.81 98.0961 167.95 99.1718C169.089 100.231 169.696 101.631 169.77 103.372C169.789 103.56 169.799 103.927 169.799 104.474C169.799 105.02 169.789 105.387 169.77 105.575C169.696 107.334 169.089 108.743 167.95 109.801C166.829 110.86 165.242 111.39 163.187 111.39ZM163.187 109.417C164.364 109.417 165.288 109.076 165.961 108.393C166.652 107.71 167.025 106.728 167.081 105.447C167.1 105.276 167.109 104.952 167.109 104.474C167.109 103.996 167.1 103.671 167.081 103.501C167.025 102.22 166.652 101.238 165.961 100.555C165.288 99.8719 164.364 99.5304 163.187 99.5304C162.011 99.5304 161.077 99.8719 160.386 100.555C159.695 101.238 159.331 102.22 159.293 103.501L159.265 104.474L159.293 105.447C159.331 106.728 159.695 107.71 160.386 108.393C161.077 109.076 162.011 109.417 163.187 109.417Z" fill="#206792"/>
<path d="M191.291 97.8143C191.441 97.8143 191.571 97.8655 191.683 97.968C191.795 98.0534 191.851 98.1644 191.851 98.301V110.57C191.851 110.741 191.795 110.877 191.683 110.98C191.571 111.082 191.431 111.133 191.263 111.133H189.89C189.704 111.133 189.554 111.082 189.442 110.98C189.33 110.877 189.274 110.741 189.274 110.57V102.143L185.688 108.342C185.558 108.564 185.427 108.734 185.296 108.854C185.184 108.956 185.007 109.007 184.764 109.007H184.036C183.812 109.007 183.634 108.956 183.503 108.854C183.391 108.751 183.261 108.581 183.111 108.342L179.553 102.297V110.57C179.553 110.741 179.497 110.877 179.385 110.98C179.273 111.082 179.124 111.133 178.937 111.133H177.564C177.378 111.133 177.228 111.082 177.116 110.98C177.004 110.877 176.948 110.741 176.948 110.57V98.301C176.948 98.1814 177.004 98.0704 177.116 97.968C177.228 97.8655 177.359 97.8143 177.508 97.8143H178.937C179.217 97.8143 179.451 97.9509 179.637 98.2241L184.4 106.369L189.19 98.2241C189.34 97.9509 189.573 97.8143 189.89 97.8143H191.291Z" fill="#206792"/>
<path d="M212.431 104.166C212.45 104.337 212.459 104.61 212.459 104.986C212.459 105.311 212.45 105.541 212.431 105.678C212.357 107.402 211.75 108.785 210.611 109.827C209.49 110.869 207.903 111.39 205.848 111.39C203.738 111.39 202.132 110.843 201.03 109.75C199.928 108.657 199.34 107.155 199.265 105.242L199.237 103.705L199.265 102.169C199.284 99.7268 199.639 97.8997 200.33 96.6873C201.039 95.4578 202.038 94.5784 203.327 94.0491C204.634 93.5027 206.745 92.8794 209.658 92.1793L210.33 92.0256L210.47 92C210.62 92 210.751 92.0512 210.863 92.1537C210.993 92.2391 211.068 92.3415 211.087 92.461L211.311 93.5112L211.339 93.6649C211.339 93.7844 211.292 93.8869 211.199 93.9723C211.124 94.0576 211.012 94.1174 210.863 94.1515L209.462 94.4589C207.314 94.937 205.774 95.3469 204.84 95.6884C203.906 96.0299 203.178 96.5678 202.655 97.302C202.15 98.0192 201.87 99.095 201.814 100.529C202.262 99.9146 202.897 99.4194 203.719 99.0438C204.541 98.651 205.409 98.4546 206.324 98.4546C208.211 98.4546 209.677 98.984 210.723 100.043C211.787 101.084 212.357 102.459 212.431 104.166ZM209.742 105.575C209.761 105.456 209.77 105.259 209.77 104.986C209.77 104.679 209.761 104.448 209.742 104.295C209.705 103.048 209.35 102.083 208.678 101.4C208.024 100.7 207.165 100.35 206.1 100.35C204.905 100.35 203.925 100.7 203.159 101.4C202.412 102.083 202.01 103.048 201.954 104.295L201.926 104.986L201.954 105.575C202.01 106.839 202.384 107.812 203.075 108.495C203.766 109.161 204.69 109.494 205.848 109.494C207.025 109.494 207.959 109.161 208.65 108.495C209.341 107.812 209.705 106.839 209.742 105.575Z" fill="#206792"/>
<path d="M223.666 111.39C222.751 111.39 221.902 111.219 221.117 110.877C220.333 110.536 219.707 110.075 219.24 109.494C218.792 108.896 218.568 108.239 218.568 107.522C218.568 106.395 219.072 105.473 220.081 104.756C221.108 104.021 222.49 103.543 224.227 103.321L228.401 102.783V102.041C228.401 100.299 227.308 99.428 225.123 99.428C224.301 99.428 223.629 99.5902 223.106 99.9146C222.583 100.222 222.191 100.589 221.93 101.016C221.874 101.17 221.799 101.281 221.706 101.349C221.631 101.417 221.519 101.451 221.369 101.451H220.165C219.997 101.451 219.847 101.4 219.717 101.298C219.604 101.178 219.548 101.042 219.548 100.888C219.567 100.478 219.773 100.017 220.165 99.5048C220.576 98.9755 221.201 98.5229 222.042 98.1473C222.882 97.7545 223.919 97.5582 225.151 97.5582C227.243 97.5582 228.746 98.0107 229.661 98.9157C230.576 99.8036 231.034 100.914 231.034 102.245V110.544C231.034 110.715 230.969 110.86 230.838 110.98C230.726 111.082 230.577 111.133 230.39 111.133H229.101C228.914 111.133 228.756 111.082 228.625 110.98C228.513 110.86 228.457 110.715 228.457 110.544V109.443C228.046 109.989 227.448 110.45 226.664 110.826C225.88 111.202 224.88 111.39 223.666 111.39ZM224.255 109.469C225.469 109.469 226.458 109.11 227.224 108.393C228.009 107.658 228.401 106.608 228.401 105.242V104.525L225.151 104.961C223.825 105.131 222.826 105.422 222.154 105.831C221.481 106.224 221.145 106.728 221.145 107.343C221.145 108.026 221.453 108.555 222.07 108.931C222.686 109.289 223.414 109.469 224.255 109.469Z" fill="#206792"/>
<path d="M239.375 116C239.189 116 239.03 115.94 238.899 115.821C238.787 115.718 238.731 115.582 238.731 115.411V98.4034C238.731 98.2327 238.787 98.0961 238.899 97.9936C239.03 97.8741 239.189 97.8143 239.375 97.8143H240.664C240.851 97.8143 241 97.8741 241.112 97.9936C241.243 98.0961 241.308 98.2327 241.308 98.4034V99.5304C242.354 98.2156 243.886 97.5582 245.903 97.5582C247.864 97.5582 249.33 98.1217 250.301 99.2487C251.291 100.376 251.823 101.827 251.898 103.603C251.916 103.791 251.926 104.081 251.926 104.474C251.926 104.867 251.916 105.157 251.898 105.345C251.823 107.104 251.291 108.555 250.301 109.699C249.311 110.826 247.845 111.39 245.903 111.39C243.96 111.39 242.448 110.749 241.364 109.469V115.411C241.364 115.582 241.308 115.718 241.196 115.821C241.084 115.94 240.935 116 240.748 116H239.375ZM245.314 109.315C246.64 109.315 247.602 108.939 248.2 108.188C248.816 107.437 249.152 106.446 249.208 105.217C249.227 105.046 249.236 104.798 249.236 104.474C249.236 101.247 247.929 99.6329 245.314 99.6329C244.026 99.6329 243.055 100.026 242.401 100.811C241.766 101.58 241.42 102.502 241.364 103.577L241.336 104.551L241.364 105.55C241.402 106.557 241.757 107.437 242.429 108.188C243.101 108.939 244.063 109.315 245.314 109.315Z" fill="#206792"/>
<path d="M258.192 113.951C258.005 113.951 257.847 113.891 257.716 113.772C257.604 113.669 257.548 113.533 257.548 113.362V109.673C257.548 109.503 257.604 109.366 257.716 109.264C257.847 109.144 258.005 109.084 258.192 109.084H258.332C259.117 109.067 259.705 108.47 260.097 107.291C260.508 106.113 260.714 104.243 260.714 101.682V98.4034C260.714 98.2327 260.77 98.0961 260.882 97.9936C261.012 97.8741 261.171 97.8143 261.358 97.8143H270.294C270.481 97.8143 270.63 97.8741 270.742 97.9936C270.873 98.0961 270.939 98.2327 270.939 98.4034V109.033H272.255C272.442 109.033 272.591 109.093 272.703 109.212C272.834 109.315 272.899 109.451 272.899 109.622V113.362C272.899 113.533 272.834 113.669 272.703 113.772C272.591 113.891 272.442 113.951 272.255 113.951H270.939C270.752 113.951 270.593 113.891 270.462 113.772C270.35 113.669 270.294 113.533 270.294 113.362V111.133H260.153V113.362C260.153 113.533 260.088 113.669 259.957 113.772C259.845 113.891 259.696 113.951 259.509 113.951H258.192ZM268.333 109.033V99.8634H263.263V101.964C263.263 105.379 262.73 107.752 261.666 109.084L268.333 109.033Z" fill="#206792"/>
<path d="M279.892 95.3298C279.705 95.3298 279.546 95.2785 279.416 95.1761C279.304 95.0566 279.248 94.9114 279.248 94.7407V93.3575C279.248 93.1868 279.304 93.0416 279.416 92.9221C279.546 92.8026 279.705 92.7428 279.892 92.7428H281.657C281.844 92.7428 282.002 92.8026 282.133 92.9221C282.264 93.0416 282.329 93.1868 282.329 93.3575V94.7407C282.329 94.9114 282.264 95.0566 282.133 95.1761C282.002 95.2785 281.844 95.3298 281.657 95.3298H279.892ZM280.116 111.133C279.929 111.133 279.771 111.082 279.64 110.98C279.528 110.86 279.472 110.715 279.472 110.544V98.4034C279.472 98.2327 279.528 98.0961 279.64 97.9936C279.771 97.8741 279.929 97.8143 280.116 97.8143H281.461C281.647 97.8143 281.797 97.8741 281.909 97.9936C282.04 98.0961 282.105 98.2327 282.105 98.4034V110.544C282.105 110.715 282.04 110.86 281.909 110.98C281.797 111.082 281.647 111.133 281.461 111.133H280.116Z" fill="#206792"/>
<path d="M290.542 111.133C290.356 111.133 290.197 111.082 290.066 110.98C289.954 110.86 289.898 110.715 289.898 110.544V98.4034C289.898 98.2327 289.954 98.0961 290.066 97.9936C290.197 97.8741 290.356 97.8143 290.542 97.8143H296.369C298.087 97.8143 299.395 98.1387 300.291 98.7876C301.206 99.4194 301.664 100.29 301.664 101.4C301.664 102.134 301.514 102.707 301.216 103.116C300.917 103.509 300.459 103.851 299.843 104.141C300.515 104.397 301.038 104.824 301.412 105.422C301.804 106.019 302 106.66 302 107.343C302 108.572 301.524 109.511 300.571 110.16C299.638 110.809 298.312 111.133 296.593 111.133H290.542ZM296.201 103.475C297.116 103.475 297.835 103.296 298.358 102.937C298.881 102.578 299.143 102.075 299.143 101.426C299.143 100.794 298.89 100.35 298.386 100.094C297.882 99.8207 297.154 99.6841 296.201 99.6841H292.475V103.475H296.201ZM296.369 109.264C297.303 109.264 298.031 109.101 298.554 108.777C299.096 108.453 299.367 107.974 299.367 107.343C299.367 106.66 299.124 106.164 298.638 105.857C298.153 105.533 297.396 105.37 296.369 105.37H292.475V109.264H296.369Z" fill="#206792"/>
</svg>
