<svg width="19" height="19" viewBox="0 0 19 19" fill="none" xmlns="http://www.w3.org/2000/svg">
<path d="M9.5 0C4.26138 0 0 4.26138 0 9.5C0 14.7386 4.26138 19 9.5 19C14.7386 19 19 14.7379 19 9.5C19 4.26212 14.7386 0 9.5 0ZM9.5 17.5283C5.07378 17.5283 1.47172 13.927 1.47172 9.5C1.47172 5.07304 5.07378 1.47172 9.5 1.47172C13.9262 1.47172 17.5283 5.07304 17.5283 9.5C17.5283 13.927 13.927 17.5283 9.5 17.5283Z" fill="#A8D6E4"/>
<path d="M13.1792 8.69792H10.2358V5.75448C10.2358 5.34828 9.90686 5.0186 9.49992 5.0186C9.09297 5.0186 8.76404 5.34828 8.76404 5.75448V8.69792H5.8206C5.41365 8.69792 5.08472 9.0276 5.08472 9.4338C5.08472 9.84 5.41365 10.1697 5.8206 10.1697H8.76404V13.1131C8.76404 13.5193 9.09297 13.849 9.49992 13.849C9.90686 13.849 10.2358 13.5193 10.2358 13.1131V10.1697H13.1792C13.5862 10.1697 13.9151 9.84 13.9151 9.4338C13.9151 9.0276 13.5862 8.69792 13.1792 8.69792Z" fill="#A8D6E4"/>
</svg>
