<svg width="18" height="18" viewBox="0 0 18 18" fill="none" xmlns="http://www.w3.org/2000/svg">
<path d="M17.2913 0H2.61542C1.19725 0 0.043457 1.1538 0.043457 2.57196V15.3368C0.043457 16.8053 1.23814 18 2.70669 18H17.2912C17.6586 18 17.9565 17.7021 17.9565 17.3348V0.665243C17.9565 0.297851 17.6587 0 17.2913 0ZM2.61542 1.33049H16.626V3.81339H15.5921V2.57196C15.5921 2.32702 15.3935 2.12847 15.1486 2.12847H1.45617C1.63512 1.66235 2.08713 1.33049 2.61542 1.33049ZM14.705 3.81339H2.61537C2.08708 3.81339 1.63507 3.48152 1.45612 3.01546H14.705V3.81339H14.705ZM2.70669 16.6695C1.97182 16.6695 1.37394 16.0716 1.37394 15.3368V4.8235C1.74226 5.02742 2.1654 5.14388 2.61537 5.14388H16.626V8.46024H13.7977C12.4488 8.46024 11.3513 9.55772 11.3513 10.9067C11.3513 12.2557 12.4488 13.3531 13.7977 13.3531H16.626V16.6695H2.70669ZM16.626 12.4662H13.7978C12.9379 12.4662 12.2383 11.7666 12.2383 10.9067C12.2383 10.0468 12.9379 9.34723 13.7978 9.34723H16.626V12.4662Z" fill="#639ABB"/>
</svg>
