<svg width="19" height="19" viewBox="0 0 19 19" fill="none" xmlns="http://www.w3.org/2000/svg">
<path d="M15.5249 2.66491C13.8695 0.969059 11.6083 0 9.18568 0C4.25963 0 0.221881 4.03775 0.221881 8.9638C0.221881 10.5789 0.666033 12.1132 1.4332 13.4457L0.181503 18.0891L4.90567 16.8778C6.23812 17.5642 7.69171 17.968 9.18568 17.968C14.1521 17.968 18.2706 13.9302 18.2706 9.00417C18.2706 6.58153 17.2208 4.36077 15.5249 2.66491ZM9.18568 16.4336C7.85322 16.4336 6.56114 16.0702 5.3902 15.3838L5.14793 15.2223L2.32151 15.9895L3.08868 13.2438L2.88679 12.9612C2.16 11.7498 1.75622 10.377 1.75622 8.9638C1.75622 4.88567 5.10755 1.53434 9.22605 1.53434C11.2045 1.53434 13.0619 2.30152 14.4751 3.71473C15.8883 5.12794 16.7363 6.9853 16.7363 9.00417C16.7363 13.0823 13.3042 16.4336 9.18568 16.4336ZM13.3042 10.8615C13.0619 10.7404 11.9717 10.2155 11.7698 10.1347C11.5679 10.054 11.4064 10.0136 11.2449 10.2559C11.1238 10.4578 10.6796 10.9827 10.5585 11.1442C10.397 11.2653 10.2759 11.3057 10.074 11.1846C8.74152 10.5385 7.8936 10.0136 7.00529 8.51964C6.76303 8.11587 7.24756 8.15625 7.65133 7.30832C7.73209 7.14681 7.69171 7.02568 7.65133 6.90455C7.61096 6.78341 7.12643 5.69322 6.96492 5.24907C6.76303 4.80492 6.60152 4.8453 6.44001 4.8453C6.31888 4.8453 6.15737 4.8453 6.03623 4.8453C5.87473 4.8453 5.63246 4.88567 5.43057 5.12794C5.22869 5.3702 4.6634 5.89511 4.6634 6.9853C4.6634 8.11587 5.43057 9.16568 5.55171 9.32719C5.67284 9.44833 7.12643 11.7095 9.38756 12.6785C10.8008 13.3246 11.3661 13.3649 12.0929 13.2438C12.4966 13.2034 13.3849 12.7189 13.5868 12.194C13.7887 11.6691 13.7887 11.2249 13.708 11.1442C13.6676 11.023 13.5061 10.9827 13.3042 10.8615Z" fill="#005182"/>
</svg>
